<?xml version="1.0" encoding="utf-8"?>
<!-- Generator: Adobe Illustrator 25.0.0, SVG Export Plug-In . SVG Version: 6.00 Build 0)  -->
<!DOCTYPE svg PUBLIC "-//W3C//DTD SVG 1.1//EN" "http://www.w3.org/Graphics/SVG/1.1/DTD/svg11.dtd" [
	<!ENTITY ns_extend "http://ns.adobe.com/Extensibility/1.0/">
	<!ENTITY ns_ai "http://ns.adobe.com/AdobeIllustrator/10.0/">
	<!ENTITY ns_graphs "http://ns.adobe.com/Graphs/1.0/">
	<!ENTITY ns_vars "http://ns.adobe.com/Variables/1.0/">
	<!ENTITY ns_imrep "http://ns.adobe.com/ImageReplacement/1.0/">
	<!ENTITY ns_sfw "http://ns.adobe.com/SaveForWeb/1.0/">
	<!ENTITY ns_custom "http://ns.adobe.com/GenericCustomNamespace/1.0/">
	<!ENTITY ns_adobe_xpath "http://ns.adobe.com/XPath/1.0/">
]>
<svg version="1.1" xmlns:x="&ns_extend;" xmlns:i="&ns_ai;" xmlns:graph="&ns_graphs;"
	 xmlns="http://www.w3.org/2000/svg" xmlns:xlink="http://www.w3.org/1999/xlink" x="0px" y="0px" viewBox="0 0 3580 1436"
	 style="enable-background:new 0 0 3580 1436;" xml:space="preserve">
<style type="text/css">
	.st0{display:none;}
	.st1{display:inline;fill:#001682;}
	.st2{display:inline;fill:#0070F3;}
	.st3{display:inline;}
	.st4{fill:#FFFFFF;}
	.st5{display:inline;fill:#FFFFFF;}
	.st6{fill:#0028E8;}
	.st7{fill:#00A8E2;}
	.st8{fill:#1C2321;}
	.st9{fill:#0070F3;}
	.st10{fill:#001682;}
	.st11{opacity:0.8;fill:#0070F3;}
	.st12{fill:#1A1B1F;}
	.st13{fill:#FFB936;}
	.st14{fill:url(#SVGID_1_);}
	.st15{display:inline;fill:#1D1E1E;}
	.st16{fill:url(#SVGID_2_);}
	.st17{fill:url(#SVGID_3_);}
	.st18{fill:url(#SVGID_4_);}
	.st19{fill:url(#SVGID_5_);}
	.st20{fill:url(#SVGID_6_);}
	.st21{fill:url(#SVGID_7_);}
	.st22{fill:url(#SVGID_8_);}
	.st23{fill:url(#SVGID_9_);}
	.st24{fill:url(#SVGID_10_);}
	.st25{fill:url(#SVGID_11_);}
	.st26{fill:#1D1E1E;}
	.st27{fill:#8BC53F;}
	.st28{fill:#6D6E71;}
	.st29{display:inline;fill:#6D6E71;}
	.st30{fill:#1E2526;}
	.st31{fill:url(#SVGID_12_);}
	.st32{fill:url(#SVGID_13_);}
	.st33{fill:url(#SVGID_14_);}
	.st34{fill:url(#SVGID_15_);}
	.st35{fill:url(#SVGID_16_);}
	.st36{fill:url(#SVGID_17_);}
	.st37{fill:url(#SVGID_18_);}
	.st38{fill:url(#SVGID_19_);}
	.st39{fill:url(#SVGID_20_);}
	.st40{fill:url(#SVGID_21_);}
	.st41{fill:url(#SVGID_22_);}
	.st42{fill:url(#SVGID_23_);}
	.st43{fill:url(#SVGID_24_);}
	.st44{fill:url(#SVGID_25_);}
	.st45{fill:url(#SVGID_26_);}
</style>
<metadata>
	<sfw  xmlns="&ns_sfw;">
		<slices></slices>
		<sliceSourceBounds  bottomLeftOrigin="true" height="1443.9" width="3591.2" x="-661.2" y="-1785"></sliceSourceBounds>
		<optimizationSettings>
			<targetSettings  fileFormat="PNG24Format" targetSettingsID="0">
				<PNG24Format  filtered="false" interlaced="true" matteColor="#FFFFFF" noMatteColor="false" transparency="true">
					</PNG24Format>
			</targetSettings>
		</optimizationSettings>
	</sfw>
</metadata>
<g id="Layer_1" class="st0">
	<rect x="-3.5" y="-0.5" class="st1" width="3589" height="1441"/>
	<path class="st2" d="M2900.1,1056.5l100.7,56.5c20.7,11.6,20.9,41.3,0.4,53.2l-100.7,58.4c-20.4,11.8-46-2.9-46-26.5v-114.8
		C2854.5,1059.8,2879.7,1045,2900.1,1056.5z"/>
	<g class="st3">
		<g>
			<path class="st4" d="M851,1231.5L851,1231.5c-56.6,0-102.4-45.9-102.4-102.4V536.2c0-56.6,45.9-102.4,102.4-102.4h0
				c56.6,0,102.4,45.9,102.4,102.4v592.9C953.4,1185.6,907.5,1231.5,851,1231.5z"/>
		</g>
		<g>
			<path class="st4" d="M1579.4,843.9c0-57.7,10.1-111.7,30.3-162c15.3-38,34.8-72.4,58.6-103c-9.5-12.5-19.6-24.3-30.5-35.5
				c-34.8-35.7-75.6-63.6-122.3-83.5c-46.8-20-96.9-30-150.5-30c-17.4,0-35.2,1.8-53.6,5.3c-18.3,3.5-36.1,8.6-53.2,15.2
				c-17.2,6.6-33.1,15-47.9,25.4c-14.8,10.3-27.4,22.1-37.7,35.2V158.5H979.3v671.1c0,58.3,10.1,111.7,30.3,160.4
				c20.2,48.6,47.8,90.6,82.8,125.8c35,35.2,75.9,62.7,122.7,82.5c46.8,19.7,96.7,29.6,149.8,29.6c53.6,0,103.7-9.6,150.5-28.9
				c46.8-19.3,87.5-46.4,122.3-81.4c10-10.1,19.3-20.7,28.1-31.9c-22.7-27.7-41.4-58.6-56.2-92.6
				C1589.5,946.7,1579.4,896.9,1579.4,843.9z M1541.5,910.7c-10.1,24.9-23.9,46.5-41.2,64.9c-17.4,18.3-37.7,32.8-61,43.4
				c-23.3,10.6-48.1,15.9-74.4,15.9c-26.3,0-51.1-5.3-74.4-15.9c-23.3-10.6-43.6-25-61-43.4c-17.4-18.3-31-39.9-40.9-64.9
				c-9.9-24.9-14.8-51.9-14.8-81.1c0-26.3,4.9-51.8,14.8-76.5c9.9-24.7,23.5-46.5,40.9-65.6c17.4-19,37.7-34.3,61-45.8
				c23.3-11.5,48-17.3,74.4-17.3c26.3,0,51.1,5.2,74.4,15.5c23.3,10.3,43.6,24.7,61,43c17.4,18.3,31.1,40.1,41.2,65.2
				c10.1,25.1,15.2,52.3,15.2,81.4C1556.6,858.8,1551.6,885.8,1541.5,910.7z"/>
			<path class="st4" d="M2107.2,994.1c-2.4-5.5-4.6-11-6.7-16.6c-9.9,10.1-20.9,19-32.9,26.6c-15.3,9.6-31.6,17-48.9,22.2
				c-17.4,5.2-35.4,7.7-54.2,7.7c-26.3,0-51-4.9-74.3-14.8c-23.2-9.9-43.4-23.5-60.6-40.8c-17.1-17.4-30.6-37.6-40.5-60.6
				c-9.9-23-14.8-47.6-14.8-73.9c0-32.4,4.9-62,14.8-88.7c9.9-26.8,23.3-49.9,40.5-69.4c17.1-19.5,37.3-34.6,60.6-45.4
				c23.2-10.8,48-16.2,74.3-16.2c18.8,0,37.1,2.8,54.9,8.4c17.8,5.6,34.4,13.9,49.6,24.6c12.9,9.1,24.7,20,35.4,32.7
				c0.9-2.4,1.8-4.7,2.7-7.1c20.2-50.2,47.8-94,82.7-131.3c7.8-8.4,16-16.3,24.4-23.9c-21.8-19.9-45.3-36.9-70.7-51
				c-27.5-15.2-56.3-26.9-86.6-34.9c-30.3-8-61.1-12-92.6-12c-53.1,0-102.9,10.8-149.6,32.4c-46.7,21.6-87.6,51-122.5,88.4
				c-8.5,9-16.5,18.5-24.1,28.3c20.7,27.3,38.1,57.7,51.9,91.1c20.2,48.6,30.3,101.9,30.3,159.7c0,59.2-10.1,113.3-30.3,162.1
				c-14.4,34.8-32.5,66.2-54.3,93.9c8.3,10.2,17.2,19.9,26.5,29.2c35,34.7,75.8,62.1,122.5,82c46.7,19.9,96.6,29.9,149.6,29.9
				c31.4,0,62.1-3.6,91.9-10.9c29.8-7.3,58.2-18,85.2-32c25.2-13.2,48.8-29,70.8-47.5c-7.7-6.5-15.2-13.4-22.4-20.5
				C2155,1081.2,2127.4,1040.6,2107.2,994.1z"/>
		</g>
		<path class="st4" d="M1720,991.7c20.2-48.9,30.3-102.9,30.3-162.1c0-57.8-10.1-111-30.3-159.7c-13.9-33.4-31.2-63.8-51.9-91.1
			c-23.8,30.6-43.3,65-58.6,103c-20.2,50.2-30.3,104.2-30.3,162c0,53.1,10.1,102.8,30.3,149.3c14.8,34,33.5,64.9,56.2,92.6
			C1687.4,1057.9,1705.6,1026.6,1720,991.7z"/>
		<g>
			<path class="st4" d="M2808.5,610.2l-140.8,141.5c-7-19.7-16.7-37.4-28.9-53.2c-12.2-15.7-25.9-29-41.2-39.8
				c-15.3-10.8-31.8-19-49.6-24.6c-17.8-5.6-36.2-8.4-54.9-8.4c-26.3,0-51,5.4-74.3,16.2c-23.2,10.8-43.4,25.9-60.6,45.4
				c-17.1,19.5-30.6,42.6-40.5,69.4c-9.9,26.8-14.8,56.3-14.8,88.7c0,26.3,4.9,50.9,14.8,73.9c9.9,23,23.3,43.2,40.5,60.6
				c17.1,17.4,37.3,31,60.6,40.8c23.2,9.9,48,14.8,74.3,14.8c18.8,0,36.8-2.6,54.2-7.7c17.4-5.2,33.7-12.6,48.9-22.2
				c15.2-9.6,28.9-21.4,40.8-35.2c12-13.8,21.7-29.2,29.2-46.1l140.8,141.5c-17.8,25.3-38.4,48.1-61.6,68.3
				c-23.2,20.2-48.4,37.3-75.3,51.4c-27,14.1-55.4,24.8-85.2,32c-29.8,7.3-60.4,10.9-91.9,10.9c-53.1,0-102.9-10-149.6-29.9
				c-46.7-19.9-87.6-47.3-122.5-82c-35-34.7-62.6-75.3-82.7-121.8c-20.2-46.5-30.3-96.2-30.3-149.3c0-57.7,10.1-111.7,30.3-162
				c20.2-50.2,47.8-94,82.7-131.3c35-37.3,75.8-66.8,122.5-88.4c46.7-21.6,96.6-32.4,149.6-32.4c31.4,0,62.3,4,92.6,12
				c30.3,8,59.1,19.6,86.6,34.9c27.5,15.3,52.8,33.9,76,56C2771.5,556.2,2791.6,581.6,2808.5,610.2z"/>
		</g>
	</g>
</g>
<g id="Layer_6" class="st0">
	<rect x="0.5" y="0.5" class="st5" width="3579" height="1437"/>
	<g>
		<path class="st3" d="M859.4,1041.2H719.5v-700h139.9V1041.2z"/>
		<path class="st3" d="M1548.3,831.6c0,28.9-5.5,56.1-16.6,81.4c-11.1,25.4-26.1,47.5-45.1,66.6c-19,19-41.2,34.1-66.5,45.1
			c-25.4,11.1-52.5,16.6-81.4,16.6H989.1V342.1h349.6c28.9,0,56.1,5.5,81.4,16.6c25.4,11.1,47.5,26.1,66.5,45.1
			c19,19,34,41.2,45.1,66.5c11,25.4,16.6,52.5,16.6,81.4c0,13-1.8,26.3-5.4,40c-3.6,13.7-8.6,26.8-15.1,39.5
			c-6.5,12.7-14.3,24.2-23.4,34.6c-9.1,10.4-19.2,19-30.2,25.8c11.4,6.2,21.6,14.5,30.7,25.1c9.1,10.6,16.9,22.2,23.4,34.9
			c6.5,12.7,11.5,25.9,14.9,39.7C1546.6,805.2,1548.3,818.6,1548.3,831.6z M1129,621.9h209.6c9.8,0,18.8-1.8,27.3-5.4
			c8.4-3.6,15.8-8.5,22.2-14.9c6.3-6.3,11.3-13.8,14.9-22.4c3.6-8.6,5.4-17.8,5.4-27.5c0-9.8-1.8-18.8-5.4-27.3
			c-3.6-8.4-8.5-15.8-14.9-22.2c-6.3-6.3-13.7-11.3-22.2-14.9c-8.5-3.6-17.6-5.4-27.3-5.4H1129V621.9z M1129,901.3h209.6
			c9.8,0,18.8-1.8,27.3-5.4c8.4-3.6,15.8-8.5,22.2-14.9c6.3-6.3,11.3-13.7,14.9-22.2c3.6-8.4,5.4-17.6,5.4-27.3s-1.8-18.8-5.4-27.3
			c-3.6-8.4-8.5-15.8-14.9-22.2c-6.3-6.3-13.7-11.3-22.2-14.9c-8.5-3.6-17.6-5.4-27.3-5.4H1129V901.3z"/>
		<path class="st3" d="M2212.3,969.5c-32.5,28-68.9,49.4-109.2,64.4c-40.3,14.9-82.1,22.4-125.3,22.4c-33.2,0-65.1-4.3-95.8-12.9
			c-30.7-8.6-59.5-20.8-86.3-36.6c-26.8-15.8-51.3-34.7-73.4-56.8c-22.1-22.1-41-46.6-56.8-73.4c-15.8-26.8-28-55.6-36.6-86.3
			c-8.6-30.7-12.9-62.6-12.9-95.8c0-33.2,4.3-65.2,12.9-96c8.6-30.9,20.8-59.7,36.6-86.5c15.8-26.8,34.7-51.3,56.8-73.4
			c22.1-22.1,46.6-41,73.4-56.8c26.8-15.8,55.6-27.9,86.3-36.6c30.7-8.6,62.6-12.9,95.8-12.9c43.2,0,85,7.4,125.3,22.2
			c40.3,14.8,76.7,36.3,109.2,64.6L2138.2,541c-20.5-22.1-44.7-39.1-72.6-50.9c-28-11.9-57.2-17.8-87.8-17.8
			c-30.9,0-59.8,5.9-86.8,17.6c-27,11.7-50.5,27.5-70.7,47.5c-20.2,20-36.1,43.6-47.8,70.7c-11.7,27.1-17.6,56-17.6,86.5
			c0,30.6,5.9,59.2,17.6,86.1c11.7,26.8,27.6,50.3,47.8,70.4c20.1,20.2,43.7,36.1,70.7,47.8c27,11.7,55.9,17.6,86.8,17.6
			c30.5,0,59.8-5.9,87.8-17.8c27.9-11.9,52.2-28.8,72.6-50.9L2212.3,969.5z"/>
		<path class="st3" d="M2831.5,969.5c-32.5,28-68.9,49.4-109.2,64.4c-40.3,14.9-82.1,22.4-125.3,22.4c-33.2,0-65.1-4.3-95.8-12.9
			c-30.7-8.6-59.5-20.8-86.3-36.6c-26.8-15.8-51.3-34.7-73.4-56.8c-22.1-22.1-41-46.6-56.8-73.4c-15.8-26.8-28-55.6-36.6-86.3
			c-8.6-30.7-12.9-62.6-12.9-95.8c0-33.2,4.3-65.2,12.9-96c8.6-30.9,20.8-59.7,36.6-86.5c15.8-26.8,34.7-51.3,56.8-73.4
			c22.1-22.1,46.6-41,73.4-56.8c26.8-15.8,55.6-27.9,86.3-36.6c30.7-8.6,62.6-12.9,95.8-12.9c43.2,0,85,7.4,125.3,22.2
			c40.3,14.8,76.7,36.3,109.2,64.6L2757.4,541c-20.5-22.1-44.7-39.1-72.6-50.9c-28-11.9-57.2-17.8-87.8-17.8
			c-30.9,0-59.8,5.9-86.8,17.6c-27,11.7-50.5,27.5-70.7,47.5c-20.2,20-36.1,43.6-47.8,70.7c-11.7,27.1-17.6,56-17.6,86.5
			c0,30.6,5.9,59.2,17.6,86.1c11.7,26.8,27.6,50.3,47.8,70.4c20.1,20.2,43.7,36.1,70.7,47.8c27,11.7,55.9,17.6,86.8,17.6
			c30.5,0,59.8-5.9,87.8-17.8c27.9-11.9,52.2-28.8,72.6-50.9L2831.5,969.5z"/>
	</g>
	<g class="st3">
		<path d="M580.1,332.5h166.3v762.1H580.1V332.5z"/>
		<path d="M1506.8,818.6c0,173.4-120.1,284.3-275,284.3c-73.9,0-133.4-23.6-173.4-71.8v63.6H905.4V333.2h160.1V601
			c41.1-45.2,97.5-66.7,166.3-66.7C1386.7,534.3,1506.8,645.1,1506.8,818.6z M1344.6,818.6c0-95.4-60.5-152.9-140.6-152.9
			c-80,0-140.6,57.5-140.6,152.9c0,95.4,60.5,152.9,140.6,152.9C1284.1,971.5,1344.6,914,1344.6,818.6z"/>
		<path d="M1572.4,818.6c0-166.3,128.3-284.3,307.9-284.3c116,0,207.3,50.3,247.3,140.6l-124.2,66.7
			c-29.8-52.3-73.9-75.9-124.2-75.9c-81.1,0-144.7,56.4-144.7,152.9c0,96.5,63.6,152.9,144.7,152.9c50.3,0,94.4-22.6,124.2-75.9
			l124.2,67.7c-40,88.3-131.4,139.6-247.3,139.6C1700.7,1102.8,1572.4,984.8,1572.4,818.6z"/>
		<path d="M2171.8,818.6c0-166.3,128.3-284.3,307.9-284.3c116,0,207.3,50.3,247.3,140.6l-124.2,66.7
			c-29.8-52.3-73.9-75.9-124.2-75.9c-81.1,0-144.7,56.4-144.7,152.9c0,96.5,63.6,152.9,144.7,152.9c50.3,0,94.4-22.6,124.2-75.9
			l124.2,67.7c-40,88.3-131.4,139.6-247.3,139.6C2300.1,1102.8,2171.8,984.8,2171.8,818.6z"/>
		<path class="st6" d="M2800.8,1002.3c0-59.5,44.1-98.5,99.5-98.5c55.4,0,99.5,39,99.5,98.5c0,58.5-44.1,100.6-99.5,100.6
			C2845,1102.8,2800.8,1060.8,2800.8,1002.3z"/>
	</g>
</g>
<g id="Layer_2" class="st0">
	<rect x="-2.2" y="-3.4" class="st1" width="2439" height="1441"/>
	<g class="st3">
		<g>
			<path class="st4" d="M129.5,1347.8L129.5,1347.8c-66.7,0-120.8-54.1-120.8-120.8V527.8C8.8,461.1,62.8,407,129.5,407h0
				c66.7,0,120.8,54.1,120.8,120.8V1227C250.3,1293.7,196.3,1347.8,129.5,1347.8z"/>
		</g>
		<g>
			<path class="st4" d="M980.3,890.7c0-68.1,11.9-131.7,35.7-191c18-44.9,41.1-85.4,69.1-121.5c-11.2-14.7-23.2-28.6-36-41.8
				c-41-42.1-89.1-75-144.2-98.5c-55.2-23.6-114.3-35.3-177.5-35.3c-20.5,0-41.6,2.1-63.2,6.2c-21.6,4.2-42.5,10.1-62.8,17.9
				c-20.2,7.8-39.1,17.7-56.5,29.9c-17.5,12.2-32.3,26.1-44.5,41.6V82.4H272.6v791.5c0,68.7,11.9,131.8,35.7,189.1
				c23.8,57.4,56.4,106.8,97.7,148.4c41.3,41.6,89.5,74,144.7,97.3c55.1,23.3,114,34.9,176.7,34.9c63.2,0,122.3-11.4,177.5-34.1
				c55.1-22.7,103.2-54.7,144.2-96c11.8-11.9,22.8-24.4,33.2-37.6c-26.8-32.7-48.9-69.1-66.3-109.2
				C992.2,1011.9,980.3,953.2,980.3,890.7z M935.6,969.5c-11.9,29.4-28.1,54.9-48.6,76.5c-20.5,21.6-44.5,38.7-71.9,51.1
				c-27.4,12.5-56.7,18.7-87.7,18.7c-31,0-60.3-6.2-87.7-18.7c-27.4-12.5-51.4-29.5-71.9-51.1c-20.5-21.6-36.6-47.1-48.2-76.5
				c-11.6-29.4-17.5-61.2-17.5-95.6c0-31,5.8-61.1,17.5-90.2c11.6-29.1,27.7-54.9,48.2-77.3c20.5-22.4,44.5-40.5,71.9-54
				c27.4-13.6,56.7-20.4,87.7-20.4c31,0,60.3,6.1,87.7,18.3c27.4,12.2,51.4,29.1,71.9,50.7c20.5,21.6,36.7,47.3,48.6,76.9
				c11.9,29.7,17.9,61.7,17.9,96C953.5,908.2,947.5,940.1,935.6,969.5z"/>
			<path class="st7" d="M1602.8,1067.8c-2.8-6.5-5.4-13-7.9-19.6c-11.7,12-24.6,22.4-38.7,31.3c-18,11.4-37.2,20.1-57.7,26.2
				c-20.5,6.1-41.8,9.1-63.9,9.1c-31,0-60.2-5.8-87.6-17.4c-27.4-11.6-51.2-27.7-71.4-48.2c-20.2-20.5-36.1-44.3-47.7-71.4
				c-11.6-27.1-17.4-56.2-17.4-87.2c0-38.2,5.8-73.1,17.4-104.6c11.6-31.6,27.5-58.8,47.7-81.8c20.2-23,44-40.8,71.4-53.6
				c27.4-12.7,56.6-19.1,87.6-19.1c22.1,0,43.7,3.3,64.8,10c21,6.6,40.5,16.3,58.5,29.1c15.2,10.8,29.1,23.6,41.8,38.6
				c1.1-2.8,2.1-5.6,3.2-8.4c23.8-59.2,56.3-110.9,97.6-154.9c9.2-9.9,18.9-19.2,28.8-28.2c-25.7-23.5-53.4-43.5-83.4-60.1
				c-32.4-18-66.4-31.7-102.1-41.1c-35.7-9.4-72.1-14.1-109.2-14.1c-62.6,0-121.4,12.7-176.5,38.2
				c-55.1,25.5-103.3,60.2-144.5,104.2c-10,10.7-19.5,21.8-28.5,33.4c24.5,32.2,44.9,68,61.3,107.4c23.8,57.4,35.7,120.1,35.7,188.3
				c0,69.8-11.9,133.6-35.7,191.2c-17,41.1-38.4,78-64.1,110.8c9.8,12,20.2,23.5,31.3,34.5c41.2,41,89.4,73.2,144.5,96.7
				c55.1,23.5,113.9,35.3,176.5,35.3c37.1,0,73.2-4.3,108.4-12.9c35.1-8.6,68.6-21.2,100.5-37.8c29.8-15.5,57.6-34.2,83.5-56
				c-9.1-7.7-17.9-15.8-26.4-24.2C1659.1,1170.5,1626.6,1122.6,1602.8,1067.8z"/>
		</g>
		<path class="st4" d="M1146.1,1065c23.8-57.6,35.7-121.4,35.7-191.2c0-68.2-11.9-130.9-35.7-188.3c-16.4-39.4-36.8-75.2-61.3-107.4
			c-28,36.1-51.1,76.6-69.1,121.5c-23.8,59.2-35.7,122.9-35.7,191c0,62.6,11.9,121.2,35.7,176c17.4,40.1,39.5,76.5,66.3,109.2
			C1107.7,1143,1129.1,1106.1,1146.1,1065z"/>
		<g>
			<path class="st7" d="M2429.8,615.1L2263.7,782c-8.3-23.3-19.7-44.1-34-62.7c-14.4-18.5-30.6-34.2-48.6-46.9
				c-18-12.7-37.5-22.4-58.5-29.1c-21-6.6-42.6-10-64.8-10c-31,0-60.2,6.4-87.6,19.1c-27.4,12.7-51.2,30.6-71.4,53.6
				c-20.2,23-36.1,50.2-47.7,81.8s-17.4,66.4-17.4,104.6c0,31,5.8,60.1,17.4,87.2c11.6,27.1,27.5,50.9,47.7,71.4
				c20.2,20.5,44,36.5,71.4,48.2s56.6,17.4,87.6,17.4c22.1,0,43.5-3,63.9-9.1c20.5-6.1,39.7-14.8,57.7-26.2
				c18-11.3,34-25.2,48.2-41.5c14.1-16.3,25.6-34.5,34.5-54.4l166.1,166.9c-21,29.9-45.3,56.8-72.7,80.5c-27.4,23.8-57,44-88.9,60.6
				c-31.8,16.6-65.3,29.2-100.5,37.8c-35.2,8.6-71.3,12.9-108.4,12.9c-62.6,0-121.4-11.8-176.5-35.3
				c-55.1-23.5-103.3-55.8-144.5-96.7c-41.2-41-73.8-88.9-97.6-143.7c-23.8-54.8-35.7-113.5-35.7-176c0-68.1,11.9-131.7,35.7-191
				c23.8-59.2,56.3-110.9,97.6-154.9c41.2-44,89.4-78.7,144.5-104.2c55.1-25.5,113.9-38.2,176.5-38.2c37.1,0,73.5,4.7,109.2,14.1
				c35.7,9.4,69.8,23.1,102.1,41.1c32.4,18,62.3,40,89.7,66C2386.2,551.4,2409.8,581.3,2429.8,615.1z"/>
		</g>
	</g>
</g>
<g id="Layer_3" class="st0">
</g>
<g id="Layer_4" class="st0">
	<g class="st3">
		<path class="st8" d="M227.7,1229.3V503.9h151.6v725.4H227.7z"/>
		<path class="st8" d="M1865,1228.2c-92.1,0-175.4-19.4-249.9-58.3c-74.6-38.9-133.6-95.3-177-169.2
			c-43.5-73.9-65.2-162.7-65.2-266.5v-25.3c0-103.7,21.7-192.2,65.2-265.5c43.4-73.2,102.4-129.6,177-169.2
			c74.5-39.5,157.8-59.3,249.9-59.3c92,0,170.5,16.9,235.3,50.6c64.8,33.7,117,78.5,156.6,134.2c39.5,55.8,65.2,117.4,76.8,184.8
			l-194.5,40.8c-6.5-42.8-20.1-81.7-40.8-116.7c-20.8-35-49.9-62.9-87.5-83.6c-37.6-20.7-84.9-31.1-142-31.1
			c-55.8,0-106,12.6-150.7,37.9c-44.7,25.3-80.1,61.6-106,108.9c-26,47.3-38.9,104.7-38.9,172.1v17.5c0,67.4,12.9,125.1,38.9,173.1
			c25.9,48,61.3,84.3,106,108.9c44.7,24.6,95,37,150.7,37c84.3,0,148.5-21.7,192.5-65.2c44.1-43.4,72-98.9,83.6-166.3l194.5,44.7
			c-15.6,66.1-43.1,127.1-82.7,182.8c-39.6,55.8-91.7,100.2-156.6,133.2C2035.5,1211.7,1957.1,1228.2,1865,1228.2z"/>
		<path class="st8" d="M2877.7,1231.3c-92.1,0-175.4-19.4-249.9-58.3c-74.6-38.9-133.6-95.3-177-169.2
			c-43.5-73.9-65.2-162.7-65.2-266.5v-25.3c0-103.7,21.7-192.2,65.2-265.5c43.4-73.2,102.4-129.6,177-169.2
			c74.5-39.5,157.8-59.3,249.9-59.3c92,0,170.5,16.9,235.3,50.6c64.8,33.7,117,78.5,156.6,134.2c39.5,55.8,65.2,117.4,76.8,184.8
			L3152,628.4c-6.5-42.8-20.1-81.7-40.8-116.7c-20.8-35-49.9-62.9-87.5-83.6c-37.6-20.7-84.9-31.1-142-31.1
			c-55.8,0-106,12.6-150.7,37.9c-44.7,25.3-80.1,61.6-106,108.9c-26,47.3-38.9,104.7-38.9,172.1v17.5c0,67.4,12.9,125.1,38.9,173.1
			c25.9,48,61.3,84.3,106,108.9c44.7,24.6,95,37,150.7,37c84.3,0,148.5-21.7,192.5-65.2c44.1-43.4,72-98.9,83.6-166.3l194.5,44.7
			c-15.6,66.1-43.1,127.1-82.7,182.8c-39.6,55.8-91.7,100.2-156.6,133.2C3048.2,1214.8,2969.8,1231.3,2877.7,1231.3z"/>
		<path class="st9" d="M270.4,207.2l93.9,52.6c19.3,10.8,19.5,38.5,0.3,49.6l-93.9,54.4c-19,11-42.9-2.7-42.9-24.7v-107
			C227.9,210.3,251.4,196.5,270.4,207.2z"/>
		<g>
			<path class="st10" d="M1203.9,731.9l-124.1-66.5L709.7,869.9c-74.4,41.1-165.6-12.7-165.6-97.7v332.8
				c0,96.9,103.9,158.2,188.7,111.3l472.5-261.1C1293.5,906.5,1292.7,779.5,1203.9,731.9z"/>
			<path class="st9" d="M731.4,478.6l348.4,186.8l44.4-24.5c77.4-42.8,76.7-154.2-1.3-196L708.4,222.6
				c-74.3-39.8-164.3,14-164.3,98.3v269.7C544.1,494.6,646.7,433.2,731.4,478.6z"/>
			<path class="st11" d="M709.7,869.9l370.1-204.6L731.4,478.6c-84.7-45.4-187.3,16-187.3,112.1v181.6
				C544.1,857.3,635.3,911,709.7,869.9z"/>
		</g>
	</g>
</g>
<g id="Layer_5" class="st0">
	<g class="st3">
		<path class="st10" d="M776.4,706.9l-120-64.3L298.6,840.4c-71.9,39.7-160.1-12.3-160.1-94.4v321.8c0,93.6,100.5,152.9,182.5,107.6
			l456.8-252.5C863.1,875.8,862.3,752.9,776.4,706.9z"/>
		<path class="st9" d="M319.6,462l336.9,180.6l42.9-23.7c74.8-41.3,74.1-149.1-1.2-189.5L297.4,214.5
			c-71.9-38.5-158.9,13.5-158.9,95.1v260.8C138.5,477.4,237.7,418.1,319.6,462z"/>
		<path class="st11" d="M298.6,840.4l357.9-197.8L319.6,462c-81.9-43.9-181.1,15.4-181.1,108.4v175.6
			C138.5,828.1,226.7,880.1,298.6,840.4z"/>
	</g>
	<g class="st3">
		<path class="st8" d="M1151.8,1169.7H991.6V369.4h160.2V1169.7z"/>
		<path class="st8" d="M1940.5,929.7c0,33.1-6.3,64.2-19,93.2c-12.7,29-29.9,54.4-51.6,76.2c-21.8,21.8-47.2,39-76.2,51.6
			c-29,12.7-60.1,19-93.2,19h-400.2V369.4h400.2c33.1,0,64.2,6.3,93.2,19c29,12.7,54.4,29.9,76.2,51.6s39,47.2,51.6,76.2
			c12.6,29,19,60.1,19,93.2c0,14.9-2,30.1-6.1,45.8c-4.1,15.6-9.9,30.7-17.3,45.2c-7.4,14.5-16.4,27.7-26.8,39.6
			c-10.4,11.9-22,21.8-34.6,29.6c13,7.1,24.7,16.7,35.2,28.7c10.4,12.1,19.3,25.4,26.8,39.9c7.4,14.5,13.1,29.7,17,45.5
			C1938.5,899.5,1940.5,914.9,1940.5,929.7z M1460.5,689.7h240c11.2,0,21.6-2,31.3-6.1c9.7-4.1,18.1-9.8,25.4-17
			c7.3-7.3,12.9-15.8,17-25.7c4.1-9.9,6.1-20.4,6.1-31.5c0-11.2-2-21.6-6.1-31.3c-4.1-9.7-9.8-18.1-17-25.4
			c-7.3-7.3-15.7-12.9-25.4-17c-9.7-4.1-20.1-6.1-31.3-6.1h-240V689.7z M1460.5,1009.6h240c11.2,0,21.6-2,31.3-6.1
			c9.7-4.1,18.1-9.8,25.4-17c7.3-7.3,12.9-15.7,17-25.4c4.1-9.7,6.1-20.1,6.1-31.3c0-11.2-2-21.6-6.1-31.3
			c-4.1-9.7-9.8-18.1-17-25.4c-7.3-7.3-15.7-12.9-25.4-17c-9.7-4.1-20.1-6.1-31.3-6.1h-240V1009.6z"/>
		<path class="st8" d="M2700.7,1087.7c-37.2,32-78.9,56.6-125,73.7c-46.1,17.1-94,25.7-143.4,25.7c-38,0-74.5-4.9-109.7-14.8
			c-35.2-9.9-68.1-23.8-98.8-41.9c-30.7-18-58.7-39.7-84-65c-25.3-25.3-47-53.3-65-84c-18.1-30.7-32-63.6-41.9-98.8
			c-9.9-35.2-14.8-71.7-14.8-109.7c0-38,4.9-74.6,14.8-110c9.9-35.3,23.8-68.4,41.9-99.1c18-30.7,39.7-58.7,65-84
			c25.3-25.3,53.3-47,84-65c30.7-18,63.6-32,98.8-41.9c35.2-9.9,71.7-14.8,109.7-14.8c49.5,0,97.3,8.5,143.4,25.4
			c46.1,16.9,87.8,41.6,125,74l-84.8,139.5c-23.4-25.3-51.2-44.7-83.2-58.3c-32-13.6-65.5-20.4-100.5-20.4
			c-35.4,0-68.5,6.7-99.3,20.1c-30.9,13.4-57.9,31.5-80.9,54.4c-23.1,22.9-41.3,49.9-54.7,80.9c-13.4,31.1-20.1,64.1-20.1,99.1
			c0,35,6.7,67.8,20.1,98.5c13.4,30.7,31.6,57.6,54.7,80.7c23.1,23.1,50,41.3,80.9,54.7c30.9,13.4,64,20.1,99.3,20.1
			c35,0,68.5-6.8,100.5-20.4c32-13.6,59.7-33,83.2-58.3L2700.7,1087.7z"/>
		<path class="st8" d="M3409.5,1087.7c-37.2,32-78.9,56.6-125,73.7c-46.1,17.1-94,25.7-143.4,25.7c-38,0-74.5-4.9-109.7-14.8
			c-35.2-9.9-68.1-23.8-98.8-41.9c-30.7-18-58.7-39.7-84-65c-25.3-25.3-47-53.3-65-84c-18.1-30.7-32-63.6-41.9-98.8
			c-9.9-35.2-14.8-71.7-14.8-109.7c0-38,4.9-74.6,14.8-110c9.9-35.3,23.8-68.4,41.9-99.1c18-30.7,39.7-58.7,65-84
			c25.3-25.3,53.3-47,84-65c30.7-18,63.6-32,98.8-41.9c35.2-9.9,71.7-14.8,109.7-14.8c49.5,0,97.3,8.5,143.4,25.4
			c46.1,16.9,87.8,41.6,125,74l-84.8,139.5c-23.4-25.3-51.2-44.7-83.2-58.3c-32-13.6-65.5-20.4-100.5-20.4
			c-35.4,0-68.5,6.7-99.3,20.1c-30.9,13.4-57.9,31.5-80.9,54.4c-23.1,22.9-41.3,49.9-54.7,80.9c-13.4,31.1-20.1,64.1-20.1,99.1
			c0,35,6.7,67.8,20.1,98.5c13.4,30.7,31.6,57.6,54.7,80.7c23.1,23.1,50,41.3,80.9,54.7c30.9,13.4,64,20.1,99.3,20.1
			c35,0,68.5-6.8,100.5-20.4c32-13.6,59.7-33,83.2-58.3L3409.5,1087.7z"/>
	</g>
</g>
<g id="Layer_7" class="st0">
	<rect x="-5.7" y="-0.4" class="st5" width="3579" height="1435.9"/>
	<g>
		<path class="st3" d="M853.2,1039.5H713.2V340h139.9V1039.5z"/>
		<path class="st3" d="M1542.1,830c0,28.9-5.5,56-16.6,81.4c-11.1,25.3-26.1,47.5-45.1,66.5c-19,19-41.2,34-66.5,45.1
			c-25.4,11-52.5,16.6-81.4,16.6H982.8V340.9h349.6c28.9,0,56.1,5.5,81.4,16.6c25.4,11,47.5,26.1,66.5,45.1c19,19,34,41.2,45.1,66.5
			c11,25.3,16.6,52.5,16.6,81.4c0,13-1.8,26.3-5.4,39.9c-3.6,13.6-8.6,26.8-15.1,39.5c-6.5,12.7-14.3,24.2-23.4,34.6
			c-9.1,10.4-19.2,19-30.2,25.8c11.4,6.2,21.6,14.5,30.7,25.1c9.1,10.6,16.9,22.2,23.4,34.8c6.5,12.7,11.5,25.9,14.9,39.7
			C1540.4,803.6,1542.1,817,1542.1,830z M1122.8,620.5h209.6c9.8,0,18.8-1.8,27.3-5.4c8.4-3.6,15.8-8.5,22.2-14.9
			c6.3-6.3,11.3-13.8,14.9-22.4c3.6-8.6,5.4-17.8,5.4-27.5c0-9.7-1.8-18.8-5.4-27.3c-3.6-8.4-8.5-15.8-14.9-22.2
			c-6.3-6.3-13.7-11.3-22.2-14.9c-8.5-3.6-17.6-5.4-27.3-5.4h-209.6V620.5z M1122.8,899.7h209.6c9.8,0,18.8-1.8,27.3-5.4
			c8.4-3.6,15.8-8.5,22.2-14.9c6.3-6.3,11.3-13.7,14.9-22.2c3.6-8.4,5.4-17.5,5.4-27.3s-1.8-18.8-5.4-27.3
			c-3.6-8.4-8.5-15.8-14.9-22.2c-6.3-6.3-13.7-11.3-22.2-14.9c-8.5-3.6-17.6-5.4-27.3-5.4h-209.6V899.7z"/>
		<path class="st3" d="M2206.1,967.9c-32.5,27.9-68.9,49.4-109.2,64.3c-40.3,14.9-82.1,22.4-125.3,22.4c-33.2,0-65.1-4.3-95.8-12.9
			c-30.7-8.6-59.5-20.8-86.3-36.5c-26.8-15.7-51.3-34.7-73.4-56.8c-22.1-22.1-41-46.5-56.8-73.3c-15.8-26.8-28-55.5-36.6-86.2
			c-8.6-30.7-12.9-62.6-12.9-95.7c0-33.1,4.3-65.1,12.9-96c8.6-30.9,20.8-59.7,36.6-86.5c15.8-26.8,34.7-51.2,56.8-73.3
			c22.1-22.1,46.6-41,73.4-56.8c26.8-15.7,55.6-27.9,86.3-36.5c30.7-8.6,62.6-12.9,95.8-12.9c43.2,0,85,7.4,125.3,22.2
			c40.3,14.8,76.7,36.3,109.2,64.6L2132,539.7c-20.5-22.1-44.7-39.1-72.6-50.9c-28-11.9-57.2-17.8-87.8-17.8
			c-30.9,0-59.8,5.8-86.8,17.5c-27,11.7-50.5,27.5-70.7,47.5c-20.2,20-36.1,43.5-47.8,70.6c-11.7,27.1-17.6,55.9-17.6,86.5
			c0,30.5,5.9,59.2,17.6,86c11.7,26.8,27.6,50.3,47.8,70.4c20.1,20.1,43.7,36.1,70.7,47.7c27,11.7,55.9,17.5,86.8,17.5
			c30.5,0,59.8-5.9,87.8-17.8c27.9-11.9,52.2-28.8,72.6-50.9L2206.1,967.9z"/>
		<path class="st3" d="M2825.3,967.9c-32.5,27.9-68.9,49.4-109.2,64.3c-40.3,14.9-82.1,22.4-125.3,22.4c-33.2,0-65.1-4.3-95.8-12.9
			c-30.7-8.6-59.5-20.8-86.3-36.5c-26.8-15.7-51.3-34.7-73.4-56.8c-22.1-22.1-41-46.5-56.8-73.3c-15.8-26.8-28-55.5-36.6-86.2
			c-8.6-30.7-12.9-62.6-12.9-95.7c0-33.1,4.3-65.1,12.9-96c8.6-30.9,20.8-59.7,36.6-86.5c15.8-26.8,34.7-51.2,56.8-73.3
			c22.1-22.1,46.6-41,73.4-56.8c26.8-15.7,55.6-27.9,86.3-36.5c30.7-8.6,62.6-12.9,95.8-12.9c43.2,0,85,7.4,125.3,22.2
			c40.3,14.8,76.7,36.3,109.2,64.6l-74.1,121.8c-20.5-22.1-44.7-39.1-72.6-50.9c-28-11.9-57.2-17.8-87.8-17.8
			c-30.9,0-59.8,5.8-86.8,17.5c-27,11.7-50.5,27.5-70.7,47.5c-20.2,20-36.1,43.5-47.8,70.6c-11.7,27.1-17.6,55.9-17.6,86.5
			c0,30.5,5.9,59.2,17.6,86c11.7,26.8,27.6,50.3,47.8,70.4c20.1,20.1,43.7,36.1,70.7,47.7c27,11.7,55.9,17.5,86.8,17.5
			c30.5,0,59.8-5.9,87.8-17.8c27.9-11.9,52.2-28.8,72.6-50.9L2825.3,967.9z"/>
	</g>
	<g class="st3">
		<g>
			<path class="st12" d="M1313.5,410.7c-38.1,0-74.4,3.8-108.4,11.2v209.8c32.6-22,69.8-32.4,109.8-32.4
				c116.5,0,207.9,81,207.9,219.5c0,138.5-91.4,219.5-207.9,219.5c-40,0-77.3-10-109.8-31.8v209.1c34,7.5,70.2,11.3,108.4,11.3
				c258,0,442.3-169.4,442.3-408.1C1755.9,580.2,1571.6,410.7,1313.5,410.7z"/>
		</g>
		<g>
			<path class="st12" d="M1852.9,603.6c33.3-61.4,79.5-109,138.6-142.8c59.1-33.8,126.7-50.7,202.9-50.7
				c98.1,0,179.4,24.5,243.7,73.5c64.3,49,107.4,117.8,129.3,206.4h-215.8c-11.4-34.3-30.7-61.2-57.9-80.7
				C2266.6,589.8,2233,580,2193,580c-57.2,0-102.4,20.7-135.8,62.1c-33.4,41.4-50,100.2-50,176.4c0,75.2,16.7,133.5,50,174.9
				c33.3,41.4,78.6,62.1,135.8,62.1c81,0,133.8-36.2,158.6-108.5h215.8c-21.9,85.7-65.3,153.8-130.1,204.2
				c-64.8,50.5-145.8,75.7-243,75.7c-76.2,0-143.9-16.9-202.9-50.7c-59.1-33.8-105.3-81.4-138.6-142.8c-33.4-61.4-50-133-50-214.9
				C1802.8,736.6,1819.5,665,1852.9,603.6z"/>
			<path class="st12" d="M2664.3,603.6c33.3-61.4,79.5-109,138.6-142.8c59.1-33.8,126.7-50.7,202.9-50.7
				c98.1,0,179.4,24.5,243.7,73.5c64.3,49,107.4,117.8,129.3,206.4h-215.8c-11.4-34.3-30.7-61.2-57.9-80.7
				c-27.2-19.5-60.7-29.3-100.8-29.3c-57.2,0-102.4,20.7-135.8,62.1c-33.4,41.4-50,100.2-50,176.4c0,75.2,16.7,133.5,50,174.9
				c33.3,41.4,78.6,62.1,135.8,62.1c81,0,133.8-36.2,158.6-108.5h215.8c-21.9,85.7-65.3,153.8-130.1,204.2
				c-64.8,50.5-145.8,75.7-243,75.7c-76.2,0-143.9-16.9-202.9-50.7c-59.1-33.8-105.3-81.4-138.6-142.8c-33.4-61.4-50-133-50-214.9
				C2614.3,736.6,2631,665,2664.3,603.6z"/>
		</g>
		<g>
			<path class="st13" d="M1156.2,1197V225.5c0-13.7-8.8-25.3-21-29.6H222c-12.2,4.3-21,15.9-21,29.6V1197c0,13.7,8.8,25.3,21,29.6
				h527.4V466.3V401h251.6v825.5h134.1C1147.4,1222.2,1156.2,1210.6,1156.2,1197z M1000.7,381.8H749.2L749,279.5l251.6-76.3V381.8z"
				/>
		</g>
		<linearGradient id="SVGID_1_" gradientUnits="userSpaceOnUse" x1="534.6164" y1="1006.2191" x2="783.9429" y2="519.7996">
			<stop  offset="9.228511e-02" style="stop-color:#FFB936"/>
			<stop  offset="1" style="stop-color:#CF8E2F"/>
		</linearGradient>
		<polygon class="st14" points="749,279.5 202.5,1014.7 202.5,1226.5 749.4,1226.5 		"/>
	</g>
</g>
<g id="Layer_8" class="st0">
	<circle class="st3" cx="1486.1" cy="417.1" r="101.6"/>
	<path class="st3" d="M1383.5,786c0,113.3,91.7,205.2,205,205.5v-411C1475.2,580.8,1383.5,672.7,1383.5,786z"/>
	<path class="st3" d="M1619,310.5c-0.2,0-0.3,0-0.5,0v411c0.2,0,0.3,0,0.5,0c113.5,0,205.5-92,205.5-205.5S1732.5,310.5,1619,310.5z
		"/>
	<circle class="st3" cx="1721.6" cy="892.2" r="101.6"/>
	<path class="st3" d="M1884.5,774.2c0,113.3,91.7,205.2,205,205.5v-411C1976.2,568.9,1884.5,660.8,1884.5,774.2z"/>
	<path class="st3" d="M2131.5,776.2c0,113.3,91.7,205.2,205,205.5v-411C2223.2,570.9,2131.5,662.8,2131.5,776.2z"/>
</g>
<g id="Layer_9" class="st0">
	<circle class="st15" cx="682.2" cy="341.1" r="100.6"/>
	<g class="st3">
		<g>
			<g>
				<linearGradient id="SVGID_2_" gradientUnits="userSpaceOnUse" x1="785.0682" y1="738.6379" x2="1347.8157" y2="738.6379">
					<stop  offset="0" style="stop-color:#42E49B"/>
					<stop  offset="1" style="stop-color:#2E838E"/>
				</linearGradient>
				<path class="st16" d="M1153.4,721c51.8-16.3,93.4-44.1,124.6-83.5c31.2-39.4,46.8-88.3,46.8-146.9c0-49.9-12.7-94.5-38.2-133.9
					c-25.4-39.4-62.9-70.1-112.3-92.2c-23.1-10.3-48.4-18.2-75.6-23.7L913.8,394.1h55.3c48,0,85,11,110.9,33.1
					c25.9,22.1,38.9,53.3,38.9,93.6c0,40.3-13,71.3-38.9,92.9c-25.9,21.6-62.9,32.4-110.9,32.4h-80.9v155.5h95.3
					c49,0,87.8,12.2,116.6,36.7c28.8,24.5,43.2,58.3,43.2,101.5c0,42.3-13.7,74.9-41,97.9c-27.4,23-65.5,34.6-114.5,34.6H785.1
					v164.2h231.5c68.2,0,127.2-11.5,177.1-34.6c49.9-23,88.1-54.9,114.5-95.8c26.4-40.8,39.6-88.1,39.6-141.8
					c0-59.5-18.2-112.3-54.7-158.4C1256.6,759.8,1210,731.5,1153.4,721z"/>
				<linearGradient id="SVGID_3_" gradientUnits="userSpaceOnUse" x1="785.0682" y1="738.6379" x2="1347.8157" y2="738.6379">
					<stop  offset="0" style="stop-color:#42E49B"/>
					<stop  offset="1" style="stop-color:#2E838E"/>
				</linearGradient>
				<path class="st17" d="M1153.4,721c51.8-16.3,93.4-44.1,124.6-83.5c31.2-39.4,46.8-88.3,46.8-146.9c0-49.9-12.7-94.5-38.2-133.9
					c-25.4-39.4-62.9-70.1-112.3-92.2c-23.1-10.3-48.4-18.2-75.6-23.7L913.8,394.1h55.3c48,0,85,11,110.9,33.1
					c25.9,22.1,38.9,53.3,38.9,93.6c0,40.3-13,71.3-38.9,92.9c-25.9,21.6-62.9,32.4-110.9,32.4h-80.9v155.5h95.3
					c49,0,87.8,12.2,116.6,36.7c28.8,24.5,43.2,58.3,43.2,101.5c0,42.3-13.7,74.9-41,97.9c-27.4,23-65.5,34.6-114.5,34.6H785.1
					v164.2h231.5c68.2,0,127.2-11.5,177.1-34.6c49.9-23,88.1-54.9,114.5-95.8c26.4-40.8,39.6-88.1,39.6-141.8
					c0-59.5-18.2-112.3-54.7-158.4C1256.6,759.8,1210,731.5,1153.4,721z"/>
			</g>
			<g>
				<linearGradient id="SVGID_4_" gradientUnits="userSpaceOnUse" x1="583.1611" y1="868.7584" x2="785.0682" y2="868.7584">
					<stop  offset="0" style="stop-color:#42E49B"/>
					<stop  offset="1" style="stop-color:#2E838E"/>
				</linearGradient>
				<polygon class="st18" points="784.8,1072.3 784.8,801.6 784.8,801.6 784.8,646.1 784.8,646.1 784.8,501 583.2,668.2 
					583.2,1236.5 785.1,1236.5 785.1,1072.3 				"/>
				<linearGradient id="SVGID_5_" gradientUnits="userSpaceOnUse" x1="583.1611" y1="868.7584" x2="785.0682" y2="868.7584">
					<stop  offset="0" style="stop-color:#42E49B"/>
					<stop  offset="1" style="stop-color:#2E838E"/>
				</linearGradient>
				<polygon class="st19" points="784.8,1072.3 784.8,801.6 784.8,801.6 784.8,646.1 784.8,646.1 784.8,501 583.2,668.2 
					583.2,1236.5 785.1,1236.5 785.1,1072.3 				"/>
			</g>
		</g>
		<g>
			<g>
				<linearGradient id="SVGID_6_" gradientUnits="userSpaceOnUse" x1="583.1611" y1="738.6379" x2="1347.8157" y2="738.6379">
					<stop  offset="0" style="stop-color:#42E49B"/>
					<stop  offset="1" style="stop-color:#2E838E"/>
				</linearGradient>
				<path class="st20" d="M1153.4,721c51.8-16.3,93.4-44.1,124.6-83.5c31.2-39.4,46.8-88.3,46.8-146.9c0-49.9-12.7-94.5-38.2-133.9
					c-25.4-39.4-62.9-70.1-112.3-92.2c-23.1-10.3-48.4-18.2-75.6-23.7L913.8,394.1h55.3c48,0,85,11,110.9,33.1
					c25.9,22.1,38.9,53.3,38.9,93.6c0,40.3-13,71.3-38.9,92.9c-25.9,21.6-62.9,32.4-110.9,32.4h-80.9v155.5h95.3
					c49,0,87.8,12.2,116.6,36.7c28.8,24.5,43.2,58.3,43.2,101.5c0,42.3-13.7,74.9-41,97.9c-27.4,23-65.5,34.6-114.5,34.6H785.1
					v164.2h231.5c68.2,0,127.2-11.5,177.1-34.6c49.9-23,88.1-54.9,114.5-95.8c26.4-40.8,39.6-88.1,39.6-141.8
					c0-59.5-18.2-112.3-54.7-158.4C1256.6,759.8,1210,731.5,1153.4,721z"/>
				<linearGradient id="SVGID_7_" gradientUnits="userSpaceOnUse" x1="583.1611" y1="738.6379" x2="1347.8157" y2="738.6379">
					<stop  offset="0" style="stop-color:#42E49B"/>
					<stop  offset="1" style="stop-color:#2E838E"/>
				</linearGradient>
				<path class="st21" d="M1153.4,721c51.8-16.3,93.4-44.1,124.6-83.5c31.2-39.4,46.8-88.3,46.8-146.9c0-49.9-12.7-94.5-38.2-133.9
					c-25.4-39.4-62.9-70.1-112.3-92.2c-23.1-10.3-48.4-18.2-75.6-23.7L913.8,394.1h55.3c48,0,85,11,110.9,33.1
					c25.9,22.1,38.9,53.3,38.9,93.6c0,40.3-13,71.3-38.9,92.9c-25.9,21.6-62.9,32.4-110.9,32.4h-80.9v155.5h95.3
					c49,0,87.8,12.2,116.6,36.7c28.8,24.5,43.2,58.3,43.2,101.5c0,42.3-13.7,74.9-41,97.9c-27.4,23-65.5,34.6-114.5,34.6H785.1
					v164.2h231.5c68.2,0,127.2-11.5,177.1-34.6c49.9-23,88.1-54.9,114.5-95.8c26.4-40.8,39.6-88.1,39.6-141.8
					c0-59.5-18.2-112.3-54.7-158.4C1256.6,759.8,1210,731.5,1153.4,721z"/>
				<linearGradient id="SVGID_8_" gradientUnits="userSpaceOnUse" x1="583.1611" y1="738.6379" x2="1347.8157" y2="738.6379">
					<stop  offset="0" style="stop-color:#42E49B"/>
					<stop  offset="1" style="stop-color:#2E838E"/>
				</linearGradient>
				<path class="st22" d="M1153.4,721c51.8-16.3,93.4-44.1,124.6-83.5c31.2-39.4,46.8-88.3,46.8-146.9c0-49.9-12.7-94.5-38.2-133.9
					c-25.4-39.4-62.9-70.1-112.3-92.2c-23.1-10.3-48.4-18.2-75.6-23.7L913.8,394.1h55.3c48,0,85,11,110.9,33.1
					c25.9,22.1,38.9,53.3,38.9,93.6c0,40.3-13,71.3-38.9,92.9c-25.9,21.6-62.9,32.4-110.9,32.4h-80.9v155.5h95.3
					c49,0,87.8,12.2,116.6,36.7c28.8,24.5,43.2,58.3,43.2,101.5c0,42.3-13.7,74.9-41,97.9c-27.4,23-65.5,34.6-114.5,34.6H785.1
					v164.2h231.5c68.2,0,127.2-11.5,177.1-34.6c49.9-23,88.1-54.9,114.5-95.8c26.4-40.8,39.6-88.1,39.6-141.8
					c0-59.5-18.2-112.3-54.7-158.4C1256.6,759.8,1210,731.5,1153.4,721z"/>
			</g>
			<g>
				<linearGradient id="SVGID_9_" gradientUnits="userSpaceOnUse" x1="583.1611" y1="738.6379" x2="1347.8157" y2="738.6379">
					<stop  offset="0" style="stop-color:#42E49B"/>
					<stop  offset="1" style="stop-color:#2E838E"/>
				</linearGradient>
				<polygon class="st23" points="784.8,1072.3 784.8,801.6 784.8,801.6 784.8,646.1 784.8,646.1 784.8,501 583.2,668.2 
					583.2,1236.5 785.1,1236.5 785.1,1072.3 				"/>
				<linearGradient id="SVGID_10_" gradientUnits="userSpaceOnUse" x1="583.1611" y1="738.6379" x2="1347.8157" y2="738.6379">
					<stop  offset="0" style="stop-color:#42E49B"/>
					<stop  offset="1" style="stop-color:#2E838E"/>
				</linearGradient>
				<polygon class="st24" points="784.8,1072.3 784.8,801.6 784.8,801.6 784.8,646.1 784.8,646.1 784.8,501 583.2,668.2 
					583.2,1236.5 785.1,1236.5 785.1,1072.3 				"/>
				<linearGradient id="SVGID_11_" gradientUnits="userSpaceOnUse" x1="583.1611" y1="738.6379" x2="1347.8157" y2="738.6379">
					<stop  offset="0" style="stop-color:#42E49B"/>
					<stop  offset="1" style="stop-color:#2E838E"/>
				</linearGradient>
				<polygon class="st25" points="784.8,1072.3 784.8,801.6 784.8,801.6 784.8,646.1 784.8,646.1 784.8,501 583.2,668.2 
					583.2,1236.5 785.1,1236.5 785.1,1072.3 				"/>
			</g>
		</g>
	</g>
	<g class="st3">
		<path class="st26" d="M1847.8,1224.2c-152.9,0-269.3-42.5-349.4-127.5c-80-85-120.1-205.8-120.1-362.2
			c0-77.8,12.2-147.2,36.6-208.3c24.4-61.1,57.9-112.6,100.4-154.7c42.5-42.1,93.1-73.9,152-95.6c58.8-21.7,122.5-32.6,191.3-32.6
			c39.8,0,76,2.9,108.5,8.8c32.6,5.9,61.1,12.7,85.5,20.4c24.4,7.7,44.8,15.6,61.1,23.7c16.3,8.1,28,14.5,35.3,19l-61.1,170.9
			c-29-15.4-62.6-28.5-101.1-39.3c-38.5-10.9-82.1-16.3-130.9-16.3c-32.6,0-64.4,5.4-95.6,16.3c-31.2,10.9-58.8,28.3-82.8,52.2
			c-24,24-43.2,54.9-57.7,92.9c-14.5,38-21.7,84.1-21.7,138.4c0,43.4,4.7,83.9,14.2,121.4c9.5,37.5,24.9,69.9,46.1,97
			c21.2,27.1,49.1,48.6,83.4,64.4c34.4,15.8,76,23.7,124.8,23.7c30.7,0,58.3-1.8,82.8-5.4c24.4-3.6,46.1-7.9,65.1-12.9
			c19-5,35.7-10.6,50.2-17c14.5-6.3,27.6-12.2,39.3-17.6l58.3,169.6c-29.8,18.1-71.9,34.4-126.2,48.8
			C1982.1,1216.9,1919.2,1224.2,1847.8,1224.2z"/>
		<path class="st26" d="M2633.7,1224.2c-152.9,0-269.3-42.5-349.4-127.5c-80-85-120.1-205.8-120.1-362.2
			c0-77.8,12.2-147.2,36.6-208.3c24.4-61.1,57.9-112.6,100.4-154.7c42.5-42.1,93.1-73.9,152-95.6c58.8-21.7,122.5-32.6,191.3-32.6
			c39.8,0,76,2.9,108.5,8.8c32.6,5.9,61.1,12.7,85.5,20.4c24.4,7.7,44.8,15.6,61.1,23.7c16.3,8.1,28,14.5,35.3,19l-61.1,170.9
			c-29-15.4-62.6-28.5-101.1-39.3c-38.5-10.9-82.1-16.3-130.9-16.3c-32.6,0-64.4,5.4-95.6,16.3c-31.2,10.9-58.8,28.3-82.8,52.2
			c-24,24-43.2,54.9-57.7,92.9c-14.5,38-21.7,84.1-21.7,138.4c0,43.4,4.7,83.9,14.2,121.4c9.5,37.5,24.9,69.9,46.1,97
			c21.2,27.1,49.1,48.6,83.4,64.4c34.4,15.8,76,23.7,124.8,23.7c30.7,0,58.3-1.8,82.8-5.4c24.4-3.6,46.1-7.9,65.1-12.9
			c19-5,35.7-10.6,50.2-17c14.5-6.3,27.6-12.2,39.3-17.6l58.3,169.6c-29.8,18.1-71.9,34.4-126.2,48.8
			C2768,1216.9,2705.2,1224.2,2633.7,1224.2z"/>
	</g>
</g>
<g id="Layer_11">
	<path class="st27" d="M1372.2,508.3v-1.1c0-117.6-92.3-212.9-206.1-212.9H697.4v420.4v6.4v420.4h468.8
		c113.8,0,206.1-95.3,206.1-212.9v-1.1c0-105-73.6-192.2-170.3-209.7C1298.6,700.5,1372.2,613.3,1372.2,508.3z M866.8,362.9
		c33,0,59.8,26.8,59.8,59.8c0,33-26.8,59.8-59.8,59.8S807,455.8,807,422.8C807,389.7,833.8,362.9,866.8,362.9z M1103.9,1073.1
		c-162.9,0-294.9-132-294.9-294.9s132-294.9,294.9-294.9V1073.1z"/>
	<g>
		<path class="st28" d="M1553,480.5c0-26.1,20.9-47,48.5-47s48.5,20.1,48.5,45.5c0,26.8-20.1,47.7-48.5,47.7
			C1573.9,526.7,1553,506.6,1553,480.5z M1565.7,602.8h71.6V998h-71.6V602.8z"/>
		<path class="st28" d="M2145.8,800.4c0,120.8-84.3,202.1-199.8,202.1c-58.2,0-108.9-22.4-140.9-67.1V998h-68.6V444.7h71.6v217.7
			c32.8-42.5,82-63.4,137.9-63.4C2061.6,599.1,2145.8,679.6,2145.8,800.4z M2073.5,800.4c0-84.3-57.4-138.7-133.5-138.7
			c-75.3,0-132.7,54.4-132.7,138.7c0,84.3,57.4,139.4,132.7,139.4C2016.1,939.8,2073.5,884.6,2073.5,800.4z"/>
		<path class="st28" d="M2171.2,800.4c0-117.8,87.2-201.3,208.8-201.3c70.8,0,129.7,29.1,161.1,84.3l-54.4,35
			c-25.4-38.8-64.1-56.7-107.4-56.7c-77.5,0-135.7,54.4-135.7,138.7c0,85.7,58.2,139.4,135.7,139.4c43.2,0,82-17.9,107.4-56.7
			l54.4,34.3c-31.3,55.2-90.2,85-161.1,85C2258.4,1002.5,2171.2,918.2,2171.2,800.4z"/>
		<path class="st28" d="M2553.7,800.4c0-117.8,87.2-201.3,208.8-201.3c70.8,0,129.7,29.1,161.1,84.3l-54.4,35
			c-25.4-38.8-64.1-56.7-107.4-56.7c-77.5,0-135.7,54.4-135.7,138.7c0,85.7,58.2,139.4,135.7,139.4c43.2,0,82-17.9,107.4-56.7
			l54.4,34.3c-31.3,55.2-90.2,85-161.1,85C2640.9,1002.5,2553.7,918.2,2553.7,800.4z"/>
	</g>
	<g class="st0">
		<path class="st29" d="M1566,433.6h100v89.7h-100V433.6z M1566,592.3h100.8v404.7H1566V592.3z"/>
		<path class="st29" d="M1777.9,433.6h100.8v173.8c0,19.8-1.6,34.1-1.6,34.1h1.6c0,0,35.7-58.7,121.4-58.7
			c109.5,0,179.4,86.5,179.4,211.9c0,128.6-78.6,211.9-185.7,211.9c-84.1,0-120.6-60.3-120.6-60.3h-1.6c0,0,1.6,11.9,1.6,27.8v23
			h-95.2V433.6z M1976.3,921.7c55.6,0,101.6-45.2,101.6-125.4c0-77-41.3-127-100.8-127c-52.4,0-101.6,38.1-101.6,127.8
			C1875.6,859.8,1908.9,921.7,1976.3,921.7z"/>
		<path class="st29" d="M2453.3,582.8c105.6,0,155.5,60.3,155.5,60.3l-44.4,69c0,0-42.1-43.6-105.6-43.6c-74.6,0-123,56.3-123,125.4
			c0,68.3,49.2,127,126.2,127c68.2,0,119-51.6,119-51.6l38.9,71.4c0,0-57.9,65.9-166.7,65.9c-134.1,0-219.8-94.4-219.8-211.9
			C2233.5,679.6,2319.2,582.8,2453.3,582.8z"/>
		<path class="st29" d="M2885.8,582.8c105.6,0,155.5,60.3,155.5,60.3l-44.4,69c0,0-42.1-43.6-105.6-43.6c-74.6,0-123,56.3-123,125.4
			c0,68.3,49.2,127,126.2,127c68.2,0,119-51.6,119-51.6l38.9,71.4c0,0-57.9,65.9-166.7,65.9c-134.1,0-219.8-94.4-219.8-211.9
			C2666,679.6,2751.7,582.8,2885.8,582.8z"/>
	</g>
</g>
<g id="Layer_10" class="st0">
	<g class="st3">
		<g>
			<path class="st30" d="M595.9,915.8c21.5-18,43.9-34.2,66.9-49.1c21.7-14.1,44.1-26.9,66.8-38.7V268.8H564.3v675.6
				c0,0,0,0,0.1-0.1C574.6,934.3,585.2,924.8,595.9,915.8z"/>
			<path class="st30" d="M988.4,707.7h116.7c30.2,0,56.7,4,79.6,12c72.7-3,145.1-0.1,216.7,7c-4-5-8.3-9.8-12.9-14.5
				c-37.6-38.3-90.5-62.6-158.7-72.9c45.5-12,80-32.9,103.6-62.6c23.6-29.7,35.4-66,35.4-109.1c0-62-23.8-110.6-71.5-145.9
				c-47.7-35.3-113-52.9-196.1-52.9H823.2v521.1c54-20.6,109.4-36,165.3-47.2V707.7z M988.4,384.9h94.4
				c85.7,0,128.5,33.6,128.5,100.7c0,33.6-11.8,59.8-35.4,78.7c-23.6,18.9-56,28.4-97.1,28.4h-90.5V384.9z"/>
			<path class="st30" d="M1272.6,844.5c1.1,7.1,1.7,14.4,1.7,22.1c0,40.3-14.7,72.1-43.9,95.5c-29.3,23.4-69.7,35.1-121.3,35.1
				H988.4V887.1c-44.5,12.5-87.6,27.9-128.7,46.6c-12.4,5.6-24.6,11.6-36.6,17.8v156.8h317.4c92.7,0,166.6-20.3,221.7-61
				c55.1-40.7,82.6-95.9,82.6-165.7c0-12.1-0.9-23.7-2.6-34.9c-7.7-0.5-15.5-0.9-23.3-1.2C1370.1,843,1321.2,842.6,1272.6,844.5z"/>
			<path class="st30" d="M1671,680.4c0-80.1,25.6-148.1,76.7-204c51.2-55.9,118.2-83.9,201.3-83.9c69.1,0,128.5,20.7,178.4,62
				l87.9-127.8c-77-52.5-166.1-78.8-267.6-78.8c-88.3,0-166.6,19.4-234.8,58.1c-68.2,38.7-120.7,90.8-157.4,156.2
				c-36.7,65.4-55.1,138-55.1,217.6c0,20.4,1.2,40.3,3.6,59.7c61,9.2,121.2,21,180.3,34.1C1675.5,744.5,1671,713.4,1671,680.4z"/>
			<path class="st30" d="M1949.1,985.8c-83.1,0-150.2-27.4-201.3-82.3c-8-8.6-15.4-17.4-22.1-26.6c-4.2-0.6-8.5-1.2-12.7-1.9
				c-63.8-9.7-126.3-19.2-188.6-26c8.3,23.5,18.7,46.3,31.3,68.2c36.7,64.1,89.2,115,157.4,152.7c68.2,37.7,146,56.6,233.5,56.6
				c102.3,0,191.9-26,268.9-77.9l-80.6-114.2c-5.8-0.7-11.7-1.4-17.5-2.2C2069.5,967.9,2013.4,985.8,1949.1,985.8z"/>
			<path class="st30" d="M2380.2,680.9c0-80.2,25.6-148.2,76.7-204.3c51.2-56,118.2-84,201.3-84c69.1,0,128.5,20.7,178.4,62.1
				l87.9-128c-77-52.6-166.1-78.9-267.6-78.9c-88.3,0-166.6,19.4-234.8,58.2c-68.2,38.8-120.7,91-157.4,156.4
				c-36.7,65.5-55.1,138.1-55.1,217.9c0,52.7,8,102.4,24.1,149c63.8,8.1,128,13.6,191.6,14C2395.3,795.9,2380.2,741.8,2380.2,680.9z
				"/>
			<path class="st30" d="M2658.2,985.3c-45.2,0-85.7-8.2-121.4-24.5c-75.7,2.7-151.6-1.6-226.7-8c-7.9-0.7-15.7-1.5-23.6-2.2
				c34.7,48.6,79.9,88.3,135.6,119.2c68.2,37.8,146,56.8,233.5,56.8c102.3,0,191.9-26.1,268.9-78.2l-87.9-124.9
				C2786.8,964.7,2727.3,985.3,2658.2,985.3z"/>
		</g>
		
			<linearGradient id="SVGID_12_" gradientUnits="userSpaceOnUse" x1="-17.3216" y1="1200.2842" x2="6317.75" y2="-1116.0671" gradientTransform="matrix(1.0031 -2.023448e-02 2.031466e-02 0.9998 -25.0958 33.5604)">
			<stop  offset="0" style="stop-color:#02FFE2"/>
			<stop  offset="9.333432e-03" style="stop-color:#02FCE2"/>
			<stop  offset="0.1404" style="stop-color:#01D9DF"/>
			<stop  offset="0.2791" style="stop-color:#01BBDC"/>
			<stop  offset="0.4257" style="stop-color:#00A5DA"/>
			<stop  offset="0.5837" style="stop-color:#0094D9"/>
			<stop  offset="0.7615" style="stop-color:#008BD8"/>
			<stop  offset="1" style="stop-color:#0088D8"/>
		</linearGradient>
		<path class="st31" d="M988.4,750.2v122.6c45.9-13.7,93.1-24.1,141.1-31.5c47.1-7.3,94.9-11.8,143.1-13.8
			c-4.7-31-19.2-56.4-43.5-76.1c-12.8-10.4-27.6-18.5-44.4-24.5c-22.9,1-45.8,2.5-68.7,4.7C1073.5,735.6,1030.8,741.6,988.4,750.2z"
			/>
		
			<linearGradient id="SVGID_13_" gradientUnits="userSpaceOnUse" x1="-5.3163" y1="1233.1178" x2="6329.7554" y2="-1083.2335" gradientTransform="matrix(1.0031 -2.023448e-02 2.031466e-02 0.9998 -25.0958 33.5604)">
			<stop  offset="0" style="stop-color:#02FFE2"/>
			<stop  offset="9.333432e-03" style="stop-color:#02FCE2"/>
			<stop  offset="0.1404" style="stop-color:#01D9DF"/>
			<stop  offset="0.2791" style="stop-color:#01BBDC"/>
			<stop  offset="0.4257" style="stop-color:#00A5DA"/>
			<stop  offset="0.5837" style="stop-color:#0094D9"/>
			<stop  offset="0.7615" style="stop-color:#008BD8"/>
			<stop  offset="1" style="stop-color:#0088D8"/>
		</linearGradient>
		<path class="st32" d="M564.3,959.9c-10.7,11-19.5,19.8-31.9,35.9l-1.6,2c-1.6,2.1-3.1,4.4-4.5,6.7c-21.1,35-9.7,80.4,25.3,101.4
			c22.9,13.7,50.2,13.7,72.3,2.3h-59.6V959.9z"/>
		
			<linearGradient id="SVGID_14_" gradientUnits="userSpaceOnUse" x1="112.3273" y1="1554.8656" x2="6447.3989" y2="-761.4857" gradientTransform="matrix(1.0031 -2.023448e-02 2.031466e-02 0.9998 -25.0958 33.5604)">
			<stop  offset="0" style="stop-color:#02FFE2"/>
			<stop  offset="9.333432e-03" style="stop-color:#02FCE2"/>
			<stop  offset="0.1404" style="stop-color:#01D9DF"/>
			<stop  offset="0.2791" style="stop-color:#01BBDC"/>
			<stop  offset="0.4257" style="stop-color:#00A5DA"/>
			<stop  offset="0.5837" style="stop-color:#0094D9"/>
			<stop  offset="0.7615" style="stop-color:#008BD8"/>
			<stop  offset="1" style="stop-color:#0088D8"/>
		</linearGradient>
		<path class="st33" d="M2260.6,900.5c-178.7-30.3-356.2-70.5-534.1-108.8c-14-3.3-28.1-6.6-42.2-9.8c9.1,30.2,22.8,58.2,41.2,84.2
			c130.3,19.9,260.5,40.6,391.6,57.8c3.5-2.7,6.9-5.5,10.3-8.4l7.2,10.7c50.5,6.5,101.1,12.4,151.9,17.5
			c-7.8-11.3-15.1-23.1-21.8-35.4C2263.4,905.6,2262,903,2260.6,900.5z"/>
		
			<linearGradient id="SVGID_15_" gradientUnits="userSpaceOnUse" x1="211.7608" y1="1826.8097" x2="6546.8325" y2="-489.5417" gradientTransform="matrix(1.0031 -2.023448e-02 2.031466e-02 0.9998 -25.0958 33.5604)">
			<stop  offset="0" style="stop-color:#02FFE2"/>
			<stop  offset="9.333432e-03" style="stop-color:#02FCE2"/>
			<stop  offset="0.1404" style="stop-color:#01D9DF"/>
			<stop  offset="0.2791" style="stop-color:#01BBDC"/>
			<stop  offset="0.4257" style="stop-color:#00A5DA"/>
			<stop  offset="0.5837" style="stop-color:#0094D9"/>
			<stop  offset="0.7615" style="stop-color:#008BD8"/>
			<stop  offset="1" style="stop-color:#0088D8"/>
		</linearGradient>
		<path class="st34" d="M2613,948.6c100.9-10.5,198.5-42.8,286.7-90c-91.1,41.8-189.1,67.5-288.2,71.7c-38.6,1.9-77.1,1.4-115.7-0.8
			c12.9,9.6,26.6,17.9,41.1,24.7C2562.2,953.2,2587.6,951.4,2613,948.6z"/>
		
			<linearGradient id="SVGID_16_" gradientUnits="userSpaceOnUse" x1="-25.4047" y1="1178.1772" x2="6309.667" y2="-1138.1741" gradientTransform="matrix(1.0031 -2.023448e-02 2.031466e-02 0.9998 -25.0958 33.5604)">
			<stop  offset="0" style="stop-color:#02FFE2"/>
			<stop  offset="9.333432e-03" style="stop-color:#02FCE2"/>
			<stop  offset="0.1404" style="stop-color:#01D9DF"/>
			<stop  offset="0.2791" style="stop-color:#01BBDC"/>
			<stop  offset="0.4257" style="stop-color:#00A5DA"/>
			<stop  offset="0.5837" style="stop-color:#0094D9"/>
			<stop  offset="0.7615" style="stop-color:#008BD8"/>
			<stop  offset="1" style="stop-color:#0088D8"/>
		</linearGradient>
		<path class="st35" d="M807.2,804.5c-26.3,10.8-52.2,22.9-77.6,36.3v162.8c4.3-3.5,8.7-6.9,13.2-10.3c25.2-19,52.2-36.4,80.5-52
			V798.2C817.8,800.2,812.5,802.3,807.2,804.5z"/>
		
			<linearGradient id="SVGID_17_" gradientUnits="userSpaceOnUse" x1="22.8089" y1="1310.0386" x2="6357.8804" y2="-1006.3127" gradientTransform="matrix(1.0031 -2.023448e-02 2.031466e-02 0.9998 -25.0958 33.5604)">
			<stop  offset="0" style="stop-color:#02FFE2"/>
			<stop  offset="9.333432e-03" style="stop-color:#02FCE2"/>
			<stop  offset="0.1404" style="stop-color:#01D9DF"/>
			<stop  offset="0.2791" style="stop-color:#01BBDC"/>
			<stop  offset="0.4257" style="stop-color:#00A5DA"/>
			<stop  offset="0.5837" style="stop-color:#0094D9"/>
			<stop  offset="0.7615" style="stop-color:#008BD8"/>
			<stop  offset="1" style="stop-color:#0088D8"/>
		</linearGradient>
		<path class="st36" d="M1401.4,734c21.8,27.4,35.4,59.3,40.8,95.7c27.4,1.7,54.7,4.2,82.1,7.3c-9.7-28.8-16.4-58.8-20.2-89.8
			C1470.1,741.9,1435.8,737.5,1401.4,734z"/>
		
			<linearGradient id="SVGID_18_" gradientUnits="userSpaceOnUse" x1="-14.1938" y1="1208.8384" x2="6320.8779" y2="-1107.5129" gradientTransform="matrix(1.0031 -2.023448e-02 2.031466e-02 0.9998 -25.0958 33.5604)">
			<stop  offset="0" style="stop-color:#02FFE2"/>
			<stop  offset="9.333432e-03" style="stop-color:#02FCE2"/>
			<stop  offset="0.1404" style="stop-color:#01D9DF"/>
			<stop  offset="0.2791" style="stop-color:#01BBDC"/>
			<stop  offset="0.4257" style="stop-color:#00A5DA"/>
			<stop  offset="0.5837" style="stop-color:#0094D9"/>
			<stop  offset="0.7615" style="stop-color:#008BD8"/>
			<stop  offset="1" style="stop-color:#0088D8"/>
		</linearGradient>
		<path class="st37" d="M662.7,880.4c-23,15.3-45.3,31.9-66.9,50.3c-10.7,9.2-21.2,18.9-31.5,29.1c0,0,0,0-0.1,0.1v148.3h59.6
			c11.8-6.1,22.1-15.4,29.4-27.6c2.4-3.9,10.4-13.9,16.7-21c6.9-7.8,14.4-15.6,22.2-23.1c11.8-11.4,24.3-22.4,37.3-32.9V840.8
			C706.8,852.9,684.5,866,662.7,880.4z"/>
		
			<linearGradient id="SVGID_19_" gradientUnits="userSpaceOnUse" x1="1.9761" y1="1253.062" x2="6337.0474" y2="-1063.2893" gradientTransform="matrix(1.0031 -2.023448e-02 2.031466e-02 0.9998 -25.0958 33.5604)">
			<stop  offset="0" style="stop-color:#02FFE2"/>
			<stop  offset="9.333432e-03" style="stop-color:#02FCE2"/>
			<stop  offset="0.1404" style="stop-color:#01D9DF"/>
			<stop  offset="0.2791" style="stop-color:#01BBDC"/>
			<stop  offset="0.4257" style="stop-color:#00A5DA"/>
			<stop  offset="0.5837" style="stop-color:#0094D9"/>
			<stop  offset="0.7615" style="stop-color:#008BD8"/>
			<stop  offset="1" style="stop-color:#0088D8"/>
		</linearGradient>
		<path class="st38" d="M1184.7,726.9c16.8,6,31.6,14.1,44.4,24.5c24.3,19.7,38.8,45.1,43.5,76.1c48.5-2,97.4-1.6,146.3,0.8
			c7.8,0.4,15.5,0.8,23.3,1.3c-5.4-36.4-19-68.3-40.8-95.7C1329.8,726.8,1257.4,723.9,1184.7,726.9z"/>
		
			<linearGradient id="SVGID_20_" gradientUnits="userSpaceOnUse" x1="-29.5613" y1="1166.8094" x2="6305.5103" y2="-1149.5419" gradientTransform="matrix(1.0031 -2.023448e-02 2.031466e-02 0.9998 -25.0958 33.5604)">
			<stop  offset="0" style="stop-color:#02FFE2"/>
			<stop  offset="9.333432e-03" style="stop-color:#02FCE2"/>
			<stop  offset="0.1404" style="stop-color:#01D9DF"/>
			<stop  offset="0.2791" style="stop-color:#01BBDC"/>
			<stop  offset="0.4257" style="stop-color:#00A5DA"/>
			<stop  offset="0.5837" style="stop-color:#0094D9"/>
			<stop  offset="0.7615" style="stop-color:#008BD8"/>
			<stop  offset="1" style="stop-color:#0088D8"/>
		</linearGradient>
		<path class="st39" d="M988.4,872.8V750.2c-55.9,11.3-111.2,27-165.3,47.9v143.2c12-6.6,24.2-12.9,36.6-18.9
			C900.8,902.5,943.9,886.1,988.4,872.8z"/>
		
			<linearGradient id="SVGID_21_" gradientUnits="userSpaceOnUse" x1="148.9587" y1="1655.05" x2="6484.0303" y2="-661.3013" gradientTransform="matrix(1.0031 -2.023448e-02 2.031466e-02 0.9998 -25.0958 33.5604)">
			<stop  offset="0" style="stop-color:#02FFE2"/>
			<stop  offset="9.333432e-03" style="stop-color:#02FCE2"/>
			<stop  offset="0.1404" style="stop-color:#01D9DF"/>
			<stop  offset="0.2791" style="stop-color:#01BBDC"/>
			<stop  offset="0.4257" style="stop-color:#00A5DA"/>
			<stop  offset="0.5837" style="stop-color:#0094D9"/>
			<stop  offset="0.7615" style="stop-color:#008BD8"/>
			<stop  offset="1" style="stop-color:#0088D8"/>
		</linearGradient>
		<path class="st40" d="M2117.1,923.8c5.8,0.8,11.7,1.5,17.5,2.3l-7.2-10.7C2124,918.3,2120.6,921.1,2117.1,923.8z"/>
		
			<linearGradient id="SVGID_22_" gradientUnits="userSpaceOnUse" x1="48.4054" y1="1380.0433" x2="6383.4771" y2="-936.308" gradientTransform="matrix(1.0031 -2.023448e-02 2.031466e-02 0.9998 -25.0958 33.5604)">
			<stop  offset="0" style="stop-color:#02FFE2"/>
			<stop  offset="9.333432e-03" style="stop-color:#02FCE2"/>
			<stop  offset="0.1404" style="stop-color:#01D9DF"/>
			<stop  offset="0.2791" style="stop-color:#01BBDC"/>
			<stop  offset="0.4257" style="stop-color:#00A5DA"/>
			<stop  offset="0.5837" style="stop-color:#0094D9"/>
			<stop  offset="0.7615" style="stop-color:#008BD8"/>
			<stop  offset="1" style="stop-color:#0088D8"/>
		</linearGradient>
		<path class="st41" d="M1725.6,866c-18.4-26-32.1-54-41.2-84.2c-59.1-13.3-119.3-25.3-180.3-34.7c3.8,31.1,10.5,61,20.2,89.8
			c62.3,7,124.8,16.9,188.6,27.1C1717.1,864.7,1721.4,865.4,1725.6,866z"/>
		
			<linearGradient id="SVGID_23_" gradientUnits="userSpaceOnUse" x1="184.2694" y1="1751.6227" x2="6519.3408" y2="-564.7287" gradientTransform="matrix(1.0031 -2.023448e-02 2.031466e-02 0.9998 -25.0958 33.5604)">
			<stop  offset="0" style="stop-color:#02FFE2"/>
			<stop  offset="9.333432e-03" style="stop-color:#02FCE2"/>
			<stop  offset="0.1404" style="stop-color:#01D9DF"/>
			<stop  offset="0.2791" style="stop-color:#01BBDC"/>
			<stop  offset="0.4257" style="stop-color:#00A5DA"/>
			<stop  offset="0.5837" style="stop-color:#0094D9"/>
			<stop  offset="0.7615" style="stop-color:#008BD8"/>
			<stop  offset="1" style="stop-color:#0088D8"/>
		</linearGradient>
		<path class="st42" d="M2536.8,954.2c-14.5-6.9-28.1-15.1-41.1-24.7c-60.6-3.5-121-11.1-181.1-20.2c-18-2.8-36-5.8-54-8.8
			c1.3,2.6,2.7,5.1,4.1,7.7c6.7,12.3,14,24.1,21.8,35.4c7.9,0.8,15.7,1.6,23.6,2.3C2385.3,952.5,2461.1,957,2536.8,954.2z"/>
		
			<linearGradient id="SVGID_24_" gradientUnits="userSpaceOnUse" x1="235.8435" y1="1741.3744" x2="6457.1753" y2="-533.3893" gradientTransform="matrix(1.0031 -2.023448e-02 2.031466e-02 0.9998 -25.0958 33.5604)">
			<stop  offset="0" style="stop-color:#02FFE2"/>
			<stop  offset="0.2216" style="stop-color:#01DEDF"/>
			<stop  offset="0.5739" style="stop-color:#01B0DB"/>
			<stop  offset="0.8449" style="stop-color:#0093D9"/>
			<stop  offset="1" style="stop-color:#0088D8"/>
		</linearGradient>
		<path class="st43" d="M2675.3,878.3c38.4-5.5,76.7-13.2,114.6-23.7c38.4-11.1,74.2-22.7,113.5-43.9c0.9-0.5,1.8-1,2.7-1.6
			c16.8-11,21.4-33.5,10.3-50.2c-11-16.7-33.6-21.4-50.4-10.3l-1.5,1c-25.8,16.9-60.9,32.6-94.1,44.9
			c-33.9,12.5-69.1,22.7-104.9,30.8c-71.5,16.2-145.9,25-219.9,26.6c-6.7,0.1-13.5,0.1-20.2,0c7.8,12.4,16.5,24.4,26.3,35.8
			C2526.2,891.5,2600.7,888.8,2675.3,878.3z"/>
		
			<linearGradient id="SVGID_25_" gradientUnits="userSpaceOnUse" x1="166.4413" y1="1551.564" x2="6387.7734" y2="-723.1998" gradientTransform="matrix(1.0031 -2.023448e-02 2.031466e-02 0.9998 -25.0958 33.5604)">
			<stop  offset="0" style="stop-color:#02FFE2"/>
			<stop  offset="0.2216" style="stop-color:#01DEDF"/>
			<stop  offset="0.5739" style="stop-color:#01B0DB"/>
			<stop  offset="0.8449" style="stop-color:#0093D9"/>
			<stop  offset="1" style="stop-color:#0088D8"/>
		</linearGradient>
		<path class="st44" d="M2221.9,836.1c-74.6-10.1-148.8-23.5-222.4-40.5c72,22.7,145.2,41.9,219.3,58c7.5,1.6,15,3.2,22.5,4.7
			c-2.7-6.8-5.2-13.7-7.6-20.7C2229.8,837.2,2225.8,836.7,2221.9,836.1z"/>
		
			<linearGradient id="SVGID_26_" gradientUnits="userSpaceOnUse" x1="205.4313" y1="1658.1991" x2="6426.7632" y2="-616.5646" gradientTransform="matrix(1.0031 -2.023448e-02 2.031466e-02 0.9998 -25.0958 33.5604)">
			<stop  offset="0" style="stop-color:#02FFE2"/>
			<stop  offset="0.2216" style="stop-color:#01DEDF"/>
			<stop  offset="0.5739" style="stop-color:#01B0DB"/>
			<stop  offset="0.8449" style="stop-color:#0093D9"/>
			<stop  offset="1" style="stop-color:#0088D8"/>
		</linearGradient>
		<path class="st45" d="M2451.7,887.7c-9.8-11.5-18.5-23.4-26.3-35.8c-63.7-0.4-127.8-6-191.6-14.2c2.4,7,4.9,13.8,7.6,20.7
			c66.8,13.6,134.4,24.4,203.3,29C2447,887.5,2449.3,887.6,2451.7,887.7z"/>
	</g>
</g>
</svg>
