<?xml version="1.0" encoding="UTF-8" standalone="no"?>
<!-- Created with Inkscape (http://www.inkscape.org/) -->

<svg
   width="40"
   height="40"
   viewBox="0 0 10.583333 10.583334"
   version="1.1"
   id="svg1399"
   sodipodi:docname="ibcc_logo_small.svg"
   inkscape:version="1.1.1 (3bf5ae0d25, 2021-09-20)"
   xmlns:inkscape="http://www.inkscape.org/namespaces/inkscape"
   xmlns:sodipodi="http://sodipodi.sourceforge.net/DTD/sodipodi-0.dtd"
   xmlns="http://www.w3.org/2000/svg"
   xmlns:svg="http://www.w3.org/2000/svg">
  <sodipodi:namedview
     id="namedview1401"
     pagecolor="#ffffff"
     bordercolor="#666666"
     borderopacity="1.0"
     inkscape:pageshadow="2"
     inkscape:pageopacity="0.0"
     inkscape:pagecheckerboard="0"
     inkscape:document-units="mm"
     showgrid="false"
     height="296mm"
     inkscape:zoom="3.1108586"
     inkscape:cx="134.04659"
     inkscape:cy="195.76589"
     inkscape:window-width="3840"
     inkscape:window-height="2066"
     inkscape:window-x="-11"
     inkscape:window-y="-11"
     inkscape:window-maximized="1"
     inkscape:current-layer="layer1"
     units="px" />
  <defs
     id="defs1396" />
  <g
     inkscape:label="Layer 1"
     inkscape:groupmode="layer"
     id="layer1">
    <path
       class="st27"
       d="m 9.124975,3.1379111 v -0.011653 c 0,-1.2457641 -0.9777551,-2.2552993 -2.1832651,-2.2552993 H 1.9766616 v 4.4533944 0.067797 4.4533957 h 4.9661073 c 1.2055101,0 2.1832656,-1.009536 2.1832656,-2.2553 v -0.011652 c 0,-1.1122891 -0.7796617,-2.0360191 -1.8040274,-2.221401 C 8.3453133,5.17393 9.124975,4.2502002 9.124975,3.1379111 Z M 3.7711551,1.597655 c 0.3495766,0 0.6334756,0.2838986 0.6334756,0.6334752 0,0.3495766 -0.283899,0.6334756 -0.6334756,0.6334756 -0.3495766,0 -0.6334752,-0.2828395 -0.6334752,-0.6324161 0,-0.3506361 0.2838986,-0.6345347 0.6334752,-0.6345347 z m 2.5116554,7.5233139 c -1.7256375,0 -3.1239443,-1.3983071 -3.1239443,-3.1239451 0,-1.7256369 1.3983068,-3.1239436 3.1239443,-3.1239436 z"
       id="path832"
       style="fill:#8bc53f;stroke-width:0.0105932" />
  </g>
</svg>
