<?xml version="1.0" encoding="UTF-8" standalone="no"?>
<!-- Generator: Adobe Illustrator 25.0.0, SVG Export Plug-In . SVG Version: 6.00 Build 0)  -->

<svg
   version="1.1"
   x="0px"
   y="0px"
   viewBox="0 0 105 22"
   xml:space="preserve"
   id="svg2588"
   sodipodi:docname="ibcc_textlogo_small_105x22.svg"
   width="105"
   height="22"
   inkscape:version="1.1.1 (3bf5ae0d25, 2021-09-20)"
   xmlns:inkscape="http://www.inkscape.org/namespaces/inkscape"
   xmlns:sodipodi="http://sodipodi.sourceforge.net/DTD/sodipodi-0.dtd"
   xmlns="http://www.w3.org/2000/svg"
   xmlns:svg="http://www.w3.org/2000/svg"
   xmlns:ns="&amp;ns_sfw;"><defs
   id="defs2592" /><sodipodi:namedview
   id="namedview2590"
   pagecolor="#ffffff"
   bordercolor="#ed6666"
   borderopacity="1"
   inkscape:pageshadow="2"
   inkscape:pageopacity="0.0"
   inkscape:pagecheckerboard="false"
   showgrid="true"
   width="105px"
   inkscape:showpageshadow="false"
   showborder="true"
   inkscape:zoom="18.342113"
   inkscape:cx="55.609733"
   inkscape:cy="23.525098"
   inkscape:window-width="3840"
   inkscape:window-height="2066"
   inkscape:window-x="-11"
   inkscape:window-y="-11"
   inkscape:window-maximized="1"
   inkscape:current-layer="g2289"><inkscape:grid
     type="xygrid"
     id="grid2796" /></sodipodi:namedview>
<style
   type="text/css"
   id="style2025">
	.st0{display:none;}
	.st1{display:inline;fill:#FFFFFF;}
	.st2{display:inline;fill:#FFFFFF;}
	.st3{display:inline;}
	.st4{fill:#FFFFFF;}
	.st5{display:inline;fill:#FFFFFF;}
	.st6{fill:#FFFFFF;}
	.st7{fill:#FFFFFF;}
	.st8{fill:#FFFFFF;}
	.st9{fill:#FFFFFF;}
	.st10{fill:#FFFFFF;}
	.st11{opacity:0.8;fill:#FFFFFF;}
	.st12{fill:#FFFFFF;}
	.st13{fill:#FFFFFF;}
	.st14{fill:url(#SVGID_1_);}
	.st15{display:inline;fill:#FFFFFF;}
	.st16{fill:url(#SVGID_2_);}
	.st17{fill:url(#SVGID_3_);}
	.st18{fill:url(#SVGID_4_);}
	.st19{fill:url(#SVGID_5_);}
	.st20{fill:url(#SVGID_6_);}
	.st21{fill:url(#SVGID_7_);}
	.st22{fill:url(#SVGID_8_);}
	.st23{fill:url(#SVGID_9_);}
	.st24{fill:url(#SVGID_10_);}
	.st25{fill:url(#SVGID_11_);}
	.st26{fill:#FFFFFF;}
	.st27{fill:#FFFFFF;}
	.st28{fill:#FFFFFF;}
	.st29{display:inline;fill:#FFFFFF;}
	.st30{fill:#FFFFFF;}
	.st31{fill:url(#SVGID_12_);}
	.st32{fill:url(#SVGID_13_);}
	.st33{fill:url(#SVGID_14_);}
	.st34{fill:url(#SVGID_15_);}
	.st35{fill:url(#SVGID_16_);}
	.st36{fill:url(#SVGID_17_);}
	.st37{fill:url(#SVGID_18_);}
	.st38{fill:url(#SVGID_19_);}
	.st39{fill:url(#SVGID_20_);}
	.st40{fill:url(#SVGID_21_);}
	.st41{fill:url(#SVGID_22_);}
	.st42{fill:url(#SVGID_23_);}
	.st43{fill:url(#SVGID_24_);}
	.st44{fill:url(#SVGID_25_);}
	.st45{fill:url(#SVGID_26_);}
</style>
<metadata
   id="metadata2027">
	<ns:sfw>
		<ns:slices />
		<ns:sliceSourceBounds
   bottomLeftOrigin="true"
   height="1443.9"
   width="3591.2"
   x="-661.2"
   y="-1785" />
		<ns:optimizationSettings>
			<ns:targetSettings
   fileFormat="PNG24Format"
   targetSettingsID="0">
				<ns:PNG24Format
   filtered="false"
   interlaced="true"
   matteColor="#FFFFFF"
   noMatteColor="false"
   transparency="true">
					</ns:PNG24Format>
			</ns:targetSettings>
		</ns:optimizationSettings>
	</ns:sfw>
</metadata>
<g
   id="Layer_1"
   class="st0">
	<rect
   x="-3.5"
   y="-0.5"
   class="st1"
   width="3589"
   height="1441"
   id="rect2029" />
	<path
   class="st2"
   d="m 2900.1,1056.5 100.7,56.5 c 20.7,11.6 20.9,41.3 0.4,53.2 l -100.7,58.4 c -20.4,11.8 -46,-2.9 -46,-26.5 v -114.8 c 0,-23.5 25.2,-38.3 45.6,-26.8 z"
   id="path2031" />
	<g
   class="st3"
   id="g2049">
		<g
   id="g2035">
			<path
   class="st4"
   d="m 851,1231.5 v 0 c -56.6,0 -102.4,-45.9 -102.4,-102.4 V 536.2 c 0,-56.6 45.9,-102.4 102.4,-102.4 v 0 c 56.6,0 102.4,45.9 102.4,102.4 v 592.9 c 0,56.5 -45.9,102.4 -102.4,102.4 z"
   id="path2033" />
		</g>
		<g
   id="g2041">
			<path
   class="st4"
   d="m 1579.4,843.9 c 0,-57.7 10.1,-111.7 30.3,-162 15.3,-38 34.8,-72.4 58.6,-103 -9.5,-12.5 -19.6,-24.3 -30.5,-35.5 -34.8,-35.7 -75.6,-63.6 -122.3,-83.5 -46.8,-20 -96.9,-30 -150.5,-30 -17.4,0 -35.2,1.8 -53.6,5.3 -18.3,3.5 -36.1,8.6 -53.2,15.2 -17.2,6.6 -33.1,15 -47.9,25.4 -14.8,10.3 -27.4,22.1 -37.7,35.2 V 158.5 H 979.3 v 671.1 c 0,58.3 10.1,111.7 30.3,160.4 20.2,48.6 47.8,90.6 82.8,125.8 35,35.2 75.9,62.7 122.7,82.5 46.8,19.7 96.7,29.6 149.8,29.6 53.6,0 103.7,-9.6 150.5,-28.9 46.8,-19.3 87.5,-46.4 122.3,-81.4 10,-10.1 19.3,-20.7 28.1,-31.9 -22.7,-27.7 -41.4,-58.6 -56.2,-92.6 -20.1,-46.4 -30.2,-96.2 -30.2,-149.2 z m -37.9,66.8 c -10.1,24.9 -23.9,46.5 -41.2,64.9 -17.4,18.3 -37.7,32.8 -61,43.4 -23.3,10.6 -48.1,15.9 -74.4,15.9 -26.3,0 -51.1,-5.3 -74.4,-15.9 -23.3,-10.6 -43.6,-25 -61,-43.4 -17.4,-18.3 -31,-39.9 -40.9,-64.9 -9.9,-24.9 -14.8,-51.9 -14.8,-81.1 0,-26.3 4.9,-51.8 14.8,-76.5 9.9,-24.7 23.5,-46.5 40.9,-65.6 17.4,-19 37.7,-34.3 61,-45.8 23.3,-11.5 48,-17.3 74.4,-17.3 26.3,0 51.1,5.2 74.4,15.5 23.3,10.3 43.6,24.7 61,43 17.4,18.3 31.1,40.1 41.2,65.2 10.1,25.1 15.2,52.3 15.2,81.4 -0.1,29.3 -5.1,56.3 -15.2,81.2 z"
   id="path2037" />
			<path
   class="st4"
   d="m 2107.2,994.1 c -2.4,-5.5 -4.6,-11 -6.7,-16.6 -9.9,10.1 -20.9,19 -32.9,26.6 -15.3,9.6 -31.6,17 -48.9,22.2 -17.4,5.2 -35.4,7.7 -54.2,7.7 -26.3,0 -51,-4.9 -74.3,-14.8 -23.2,-9.9 -43.4,-23.5 -60.6,-40.8 -17.1,-17.4 -30.6,-37.6 -40.5,-60.6 -9.9,-23 -14.8,-47.6 -14.8,-73.9 0,-32.4 4.9,-62 14.8,-88.7 9.9,-26.8 23.3,-49.9 40.5,-69.4 17.1,-19.5 37.3,-34.6 60.6,-45.4 23.2,-10.8 48,-16.2 74.3,-16.2 18.8,0 37.1,2.8 54.9,8.4 17.8,5.6 34.4,13.9 49.6,24.6 12.9,9.1 24.7,20 35.4,32.7 0.9,-2.4 1.8,-4.7 2.7,-7.1 20.2,-50.2 47.8,-94 82.7,-131.3 7.8,-8.4 16,-16.3 24.4,-23.9 -21.8,-19.9 -45.3,-36.9 -70.7,-51 -27.5,-15.2 -56.3,-26.9 -86.6,-34.9 -30.3,-8 -61.1,-12 -92.6,-12 -53.1,0 -102.9,10.8 -149.6,32.4 -46.7,21.6 -87.6,51 -122.5,88.4 -8.5,9 -16.5,18.5 -24.1,28.3 20.7,27.3 38.1,57.7 51.9,91.1 20.2,48.6 30.3,101.9 30.3,159.7 0,59.2 -10.1,113.3 -30.3,162.1 -14.4,34.8 -32.5,66.2 -54.3,93.9 8.3,10.2 17.2,19.9 26.5,29.2 35,34.7 75.8,62.1 122.5,82 46.7,19.9 96.6,29.9 149.6,29.9 31.4,0 62.1,-3.6 91.9,-10.9 29.8,-7.3 58.2,-18 85.2,-32 25.2,-13.2 48.8,-29 70.8,-47.5 -7.7,-6.5 -15.2,-13.4 -22.4,-20.5 -34.8,-34.6 -62.4,-75.2 -82.6,-121.7 z"
   id="path2039" />
		</g>
		<path
   class="st4"
   d="m 1720,991.7 c 20.2,-48.9 30.3,-102.9 30.3,-162.1 0,-57.8 -10.1,-111 -30.3,-159.7 -13.9,-33.4 -31.2,-63.8 -51.9,-91.1 -23.8,30.6 -43.3,65 -58.6,103 -20.2,50.2 -30.3,104.2 -30.3,162 0,53.1 10.1,102.8 30.3,149.3 14.8,34 33.5,64.9 56.2,92.6 21.7,-27.8 39.9,-59.1 54.3,-94 z"
   id="path2043" />
		<g
   id="g2047">
			<path
   class="st4"
   d="m 2808.5,610.2 -140.8,141.5 c -7,-19.7 -16.7,-37.4 -28.9,-53.2 -12.2,-15.7 -25.9,-29 -41.2,-39.8 -15.3,-10.8 -31.8,-19 -49.6,-24.6 -17.8,-5.6 -36.2,-8.4 -54.9,-8.4 -26.3,0 -51,5.4 -74.3,16.2 -23.2,10.8 -43.4,25.9 -60.6,45.4 -17.1,19.5 -30.6,42.6 -40.5,69.4 -9.9,26.8 -14.8,56.3 -14.8,88.7 0,26.3 4.9,50.9 14.8,73.9 9.9,23 23.3,43.2 40.5,60.6 17.1,17.4 37.3,31 60.6,40.8 23.2,9.9 48,14.8 74.3,14.8 18.8,0 36.8,-2.6 54.2,-7.7 17.4,-5.2 33.7,-12.6 48.9,-22.2 15.2,-9.6 28.9,-21.4 40.8,-35.2 12,-13.8 21.7,-29.2 29.2,-46.1 l 140.8,141.5 c -17.8,25.3 -38.4,48.1 -61.6,68.3 -23.2,20.2 -48.4,37.3 -75.3,51.4 -27,14.1 -55.4,24.8 -85.2,32 -29.8,7.3 -60.4,10.9 -91.9,10.9 -53.1,0 -102.9,-10 -149.6,-29.9 -46.7,-19.9 -87.6,-47.3 -122.5,-82 -35,-34.7 -62.6,-75.3 -82.7,-121.8 -20.2,-46.5 -30.3,-96.2 -30.3,-149.3 0,-57.7 10.1,-111.7 30.3,-162 20.2,-50.2 47.8,-94 82.7,-131.3 35,-37.3 75.8,-66.8 122.5,-88.4 46.7,-21.6 96.6,-32.4 149.6,-32.4 31.4,0 62.3,4 92.6,12 30.3,8 59.1,19.6 86.6,34.9 27.5,15.3 52.8,33.9 76,56 23.3,22 43.4,47.4 60.3,76 z"
   id="path2045" />
		</g>
	</g>
</g>
<g
   id="Layer_6"
   class="st0">
	<rect
   x="0.5"
   y="0.5"
   class="st5"
   width="3579"
   height="1437"
   id="rect2052" />
	<g
   id="g2062">
		<path
   class="st3"
   d="M 859.4,1041.2 H 719.5 v -700 h 139.9 z"
   id="path2054" />
		<path
   class="st3"
   d="m 1548.3,831.6 c 0,28.9 -5.5,56.1 -16.6,81.4 -11.1,25.4 -26.1,47.5 -45.1,66.6 -19,19 -41.2,34.1 -66.5,45.1 -25.4,11.1 -52.5,16.6 -81.4,16.6 H 989.1 V 342.1 h 349.6 c 28.9,0 56.1,5.5 81.4,16.6 25.4,11.1 47.5,26.1 66.5,45.1 19,19 34,41.2 45.1,66.5 11,25.4 16.6,52.5 16.6,81.4 0,13 -1.8,26.3 -5.4,40 -3.6,13.7 -8.6,26.8 -15.1,39.5 -6.5,12.7 -14.3,24.2 -23.4,34.6 -9.1,10.4 -19.2,19 -30.2,25.8 11.4,6.2 21.6,14.5 30.7,25.1 9.1,10.6 16.9,22.2 23.4,34.9 6.5,12.7 11.5,25.9 14.9,39.7 3.4,13.9 5.1,27.3 5.1,40.3 z M 1129,621.9 h 209.6 c 9.8,0 18.8,-1.8 27.3,-5.4 8.4,-3.6 15.8,-8.5 22.2,-14.9 6.3,-6.3 11.3,-13.8 14.9,-22.4 3.6,-8.6 5.4,-17.8 5.4,-27.5 0,-9.8 -1.8,-18.8 -5.4,-27.3 -3.6,-8.4 -8.5,-15.8 -14.9,-22.2 -6.3,-6.3 -13.7,-11.3 -22.2,-14.9 -8.5,-3.6 -17.6,-5.4 -27.3,-5.4 H 1129 Z m 0,279.4 h 209.6 c 9.8,0 18.8,-1.8 27.3,-5.4 8.4,-3.6 15.8,-8.5 22.2,-14.9 6.3,-6.3 11.3,-13.7 14.9,-22.2 3.6,-8.4 5.4,-17.6 5.4,-27.3 0,-9.7 -1.8,-18.8 -5.4,-27.3 -3.6,-8.4 -8.5,-15.8 -14.9,-22.2 -6.3,-6.3 -13.7,-11.3 -22.2,-14.9 -8.5,-3.6 -17.6,-5.4 -27.3,-5.4 H 1129 Z"
   id="path2056" />
		<path
   class="st3"
   d="m 2212.3,969.5 c -32.5,28 -68.9,49.4 -109.2,64.4 -40.3,14.9 -82.1,22.4 -125.3,22.4 -33.2,0 -65.1,-4.3 -95.8,-12.9 -30.7,-8.6 -59.5,-20.8 -86.3,-36.6 -26.8,-15.8 -51.3,-34.7 -73.4,-56.8 -22.1,-22.1 -41,-46.6 -56.8,-73.4 -15.8,-26.8 -28,-55.6 -36.6,-86.3 -8.6,-30.7 -12.9,-62.6 -12.9,-95.8 0,-33.2 4.3,-65.2 12.9,-96 8.6,-30.9 20.8,-59.7 36.6,-86.5 15.8,-26.8 34.7,-51.3 56.8,-73.4 22.1,-22.1 46.6,-41 73.4,-56.8 26.8,-15.8 55.6,-27.9 86.3,-36.6 30.7,-8.6 62.6,-12.9 95.8,-12.9 43.2,0 85,7.4 125.3,22.2 40.3,14.8 76.7,36.3 109.2,64.6 L 2138.2,541 c -20.5,-22.1 -44.7,-39.1 -72.6,-50.9 -28,-11.9 -57.2,-17.8 -87.8,-17.8 -30.9,0 -59.8,5.9 -86.8,17.6 -27,11.7 -50.5,27.5 -70.7,47.5 -20.2,20 -36.1,43.6 -47.8,70.7 -11.7,27.1 -17.6,56 -17.6,86.5 0,30.6 5.9,59.2 17.6,86.1 11.7,26.8 27.6,50.3 47.8,70.4 20.1,20.2 43.7,36.1 70.7,47.8 27,11.7 55.9,17.6 86.8,17.6 30.5,0 59.8,-5.9 87.8,-17.8 27.9,-11.9 52.2,-28.8 72.6,-50.9 z"
   id="path2058" />
		<path
   class="st3"
   d="m 2831.5,969.5 c -32.5,28 -68.9,49.4 -109.2,64.4 -40.3,14.9 -82.1,22.4 -125.3,22.4 -33.2,0 -65.1,-4.3 -95.8,-12.9 -30.7,-8.6 -59.5,-20.8 -86.3,-36.6 -26.8,-15.8 -51.3,-34.7 -73.4,-56.8 -22.1,-22.1 -41,-46.6 -56.8,-73.4 -15.8,-26.8 -28,-55.6 -36.6,-86.3 -8.6,-30.7 -12.9,-62.6 -12.9,-95.8 0,-33.2 4.3,-65.2 12.9,-96 8.6,-30.9 20.8,-59.7 36.6,-86.5 15.8,-26.8 34.7,-51.3 56.8,-73.4 22.1,-22.1 46.6,-41 73.4,-56.8 26.8,-15.8 55.6,-27.9 86.3,-36.6 30.7,-8.6 62.6,-12.9 95.8,-12.9 43.2,0 85,7.4 125.3,22.2 40.3,14.8 76.7,36.3 109.2,64.6 L 2757.4,541 c -20.5,-22.1 -44.7,-39.1 -72.6,-50.9 -28,-11.9 -57.2,-17.8 -87.8,-17.8 -30.9,0 -59.8,5.9 -86.8,17.6 -27,11.7 -50.5,27.5 -70.7,47.5 -20.2,20 -36.1,43.6 -47.8,70.7 -11.7,27.1 -17.6,56 -17.6,86.5 0,30.6 5.9,59.2 17.6,86.1 11.7,26.8 27.6,50.3 47.8,70.4 20.1,20.2 43.7,36.1 70.7,47.8 27,11.7 55.9,17.6 86.8,17.6 30.5,0 59.8,-5.9 87.8,-17.8 27.9,-11.9 52.2,-28.8 72.6,-50.9 z"
   id="path2060" />
	</g>
	<g
   class="st3"
   id="g2074">
		<path
   d="m 580.1,332.5 h 166.3 v 762.1 H 580.1 Z"
   id="path2064" />
		<path
   d="m 1506.8,818.6 c 0,173.4 -120.1,284.3 -275,284.3 -73.9,0 -133.4,-23.6 -173.4,-71.8 v 63.6 h -153 V 333.2 h 160.1 V 601 c 41.1,-45.2 97.5,-66.7 166.3,-66.7 154.9,0 275,110.8 275,284.3 z m -162.2,0 c 0,-95.4 -60.5,-152.9 -140.6,-152.9 -80,0 -140.6,57.5 -140.6,152.9 0,95.4 60.5,152.9 140.6,152.9 80.1,0 140.6,-57.5 140.6,-152.9 z"
   id="path2066" />
		<path
   d="m 1572.4,818.6 c 0,-166.3 128.3,-284.3 307.9,-284.3 116,0 207.3,50.3 247.3,140.6 l -124.2,66.7 c -29.8,-52.3 -73.9,-75.9 -124.2,-75.9 -81.1,0 -144.7,56.4 -144.7,152.9 0,96.5 63.6,152.9 144.7,152.9 50.3,0 94.4,-22.6 124.2,-75.9 l 124.2,67.7 c -40,88.3 -131.4,139.6 -247.3,139.6 -179.6,-0.1 -307.9,-118.1 -307.9,-284.3 z"
   id="path2068" />
		<path
   d="m 2171.8,818.6 c 0,-166.3 128.3,-284.3 307.9,-284.3 116,0 207.3,50.3 247.3,140.6 l -124.2,66.7 c -29.8,-52.3 -73.9,-75.9 -124.2,-75.9 -81.1,0 -144.7,56.4 -144.7,152.9 0,96.5 63.6,152.9 144.7,152.9 50.3,0 94.4,-22.6 124.2,-75.9 l 124.2,67.7 c -40,88.3 -131.4,139.6 -247.3,139.6 -179.6,-0.1 -307.9,-118.1 -307.9,-284.3 z"
   id="path2070" />
		<path
   class="st6"
   d="m 2800.8,1002.3 c 0,-59.5 44.1,-98.5 99.5,-98.5 55.4,0 99.5,39 99.5,98.5 0,58.5 -44.1,100.6 -99.5,100.6 -55.3,-0.1 -99.5,-42.1 -99.5,-100.6 z"
   id="path2072" />
	</g>
</g>
<g
   id="Layer_2"
   class="st0">
	<rect
   x="-2.2"
   y="-3.4000001"
   class="st1"
   width="2439"
   height="1441"
   id="rect2077" />
	<g
   class="st3"
   id="g2095">
		<g
   id="g2081">
			<path
   class="st4"
   d="m 129.5,1347.8 v 0 C 62.8,1347.8 8.7,1293.7 8.7,1227 V 527.8 C 8.8,461.1 62.8,407 129.5,407 v 0 c 66.7,0 120.8,54.1 120.8,120.8 V 1227 c 0,66.7 -54,120.8 -120.8,120.8 z"
   id="path2079" />
		</g>
		<g
   id="g2087">
			<path
   class="st4"
   d="m 980.3,890.7 c 0,-68.1 11.9,-131.7 35.7,-191 18,-44.9 41.1,-85.4 69.1,-121.5 -11.2,-14.7 -23.2,-28.6 -36,-41.8 -41,-42.1 -89.1,-75 -144.2,-98.5 -55.2,-23.6 -114.3,-35.3 -177.5,-35.3 -20.5,0 -41.6,2.1 -63.2,6.2 -21.6,4.2 -42.5,10.1 -62.8,17.9 -20.2,7.8 -39.1,17.7 -56.5,29.9 -17.5,12.2 -32.3,26.1 -44.5,41.6 V 82.4 H 272.6 v 791.5 c 0,68.7 11.9,131.8 35.7,189.1 23.8,57.4 56.4,106.8 97.7,148.4 41.3,41.6 89.5,74 144.7,97.3 55.1,23.3 114,34.9 176.7,34.9 63.2,0 122.3,-11.4 177.5,-34.1 55.1,-22.7 103.2,-54.7 144.2,-96 11.8,-11.9 22.8,-24.4 33.2,-37.6 -26.8,-32.7 -48.9,-69.1 -66.3,-109.2 -23.8,-54.8 -35.7,-113.5 -35.7,-176 z m -44.7,78.8 c -11.9,29.4 -28.1,54.9 -48.6,76.5 -20.5,21.6 -44.5,38.7 -71.9,51.1 -27.4,12.5 -56.7,18.7 -87.7,18.7 -31,0 -60.3,-6.2 -87.7,-18.7 -27.4,-12.5 -51.4,-29.5 -71.9,-51.1 -20.5,-21.6 -36.6,-47.1 -48.2,-76.5 -11.6,-29.4 -17.5,-61.2 -17.5,-95.6 0,-31 5.8,-61.1 17.5,-90.2 11.6,-29.1 27.7,-54.9 48.2,-77.3 20.5,-22.4 44.5,-40.5 71.9,-54 27.4,-13.6 56.7,-20.4 87.7,-20.4 31,0 60.3,6.1 87.7,18.3 27.4,12.2 51.4,29.1 71.9,50.7 20.5,21.6 36.7,47.3 48.6,76.9 11.9,29.7 17.9,61.7 17.9,96 0,34.3 -6,66.2 -17.9,95.6 z"
   id="path2083" />
			<path
   class="st7"
   d="m 1602.8,1067.8 c -2.8,-6.5 -5.4,-13 -7.9,-19.6 -11.7,12 -24.6,22.4 -38.7,31.3 -18,11.4 -37.2,20.1 -57.7,26.2 -20.5,6.1 -41.8,9.1 -63.9,9.1 -31,0 -60.2,-5.8 -87.6,-17.4 -27.4,-11.6 -51.2,-27.7 -71.4,-48.2 -20.2,-20.5 -36.1,-44.3 -47.7,-71.4 -11.6,-27.1 -17.4,-56.2 -17.4,-87.2 0,-38.2 5.8,-73.1 17.4,-104.6 11.6,-31.6 27.5,-58.8 47.7,-81.8 20.2,-23 44,-40.8 71.4,-53.6 27.4,-12.7 56.6,-19.1 87.6,-19.1 22.1,0 43.7,3.3 64.8,10 21,6.6 40.5,16.3 58.5,29.1 15.2,10.8 29.1,23.6 41.8,38.6 1.1,-2.8 2.1,-5.6 3.2,-8.4 23.8,-59.2 56.3,-110.9 97.6,-154.9 9.2,-9.9 18.9,-19.2 28.8,-28.2 -25.7,-23.5 -53.4,-43.5 -83.4,-60.1 -32.4,-18 -66.4,-31.7 -102.1,-41.1 -35.7,-9.4 -72.1,-14.1 -109.2,-14.1 -62.6,0 -121.4,12.7 -176.5,38.2 -55.1,25.5 -103.3,60.2 -144.5,104.2 -10,10.7 -19.5,21.8 -28.5,33.4 24.5,32.2 44.9,68 61.3,107.4 23.8,57.4 35.7,120.1 35.7,188.3 0,69.8 -11.9,133.6 -35.7,191.2 -17,41.1 -38.4,78 -64.1,110.8 9.8,12 20.2,23.5 31.3,34.5 41.2,41 89.4,73.2 144.5,96.7 55.1,23.5 113.9,35.3 176.5,35.3 37.1,0 73.2,-4.3 108.4,-12.9 35.1,-8.6 68.6,-21.2 100.5,-37.8 29.8,-15.5 57.6,-34.2 83.5,-56 -9.1,-7.7 -17.9,-15.8 -26.4,-24.2 -41.5,-41 -74,-88.9 -97.8,-143.7 z"
   id="path2085" />
		</g>
		<path
   class="st4"
   d="m 1146.1,1065 c 23.8,-57.6 35.7,-121.4 35.7,-191.2 0,-68.2 -11.9,-130.9 -35.7,-188.3 -16.4,-39.4 -36.8,-75.2 -61.3,-107.4 -28,36.1 -51.1,76.6 -69.1,121.5 -23.8,59.2 -35.7,122.9 -35.7,191 0,62.6 11.9,121.2 35.7,176 17.4,40.1 39.5,76.5 66.3,109.2 25.7,-32.8 47.1,-69.7 64.1,-110.8 z"
   id="path2089" />
		<g
   id="g2093">
			<path
   class="st7"
   d="M 2429.8,615.1 2263.7,782 c -8.3,-23.3 -19.7,-44.1 -34,-62.7 -14.4,-18.5 -30.6,-34.2 -48.6,-46.9 -18,-12.7 -37.5,-22.4 -58.5,-29.1 -21,-6.6 -42.6,-10 -64.8,-10 -31,0 -60.2,6.4 -87.6,19.1 -27.4,12.7 -51.2,30.6 -71.4,53.6 -20.2,23 -36.1,50.2 -47.7,81.8 -11.6,31.6 -17.4,66.4 -17.4,104.6 0,31 5.8,60.1 17.4,87.2 11.6,27.1 27.5,50.9 47.7,71.4 20.2,20.5 44,36.5 71.4,48.2 27.4,11.7 56.6,17.4 87.6,17.4 22.1,0 43.5,-3 63.9,-9.1 20.5,-6.1 39.7,-14.8 57.7,-26.2 18,-11.3 34,-25.2 48.2,-41.5 14.1,-16.3 25.6,-34.5 34.5,-54.4 l 166.1,166.9 c -21,29.9 -45.3,56.8 -72.7,80.5 -27.4,23.8 -57,44 -88.9,60.6 -31.8,16.6 -65.3,29.2 -100.5,37.8 -35.2,8.6 -71.3,12.9 -108.4,12.9 -62.6,0 -121.4,-11.8 -176.5,-35.3 -55.1,-23.5 -103.3,-55.8 -144.5,-96.7 -41.2,-41 -73.8,-88.9 -97.6,-143.7 -23.8,-54.8 -35.7,-113.5 -35.7,-176 0,-68.1 11.9,-131.7 35.7,-191 23.8,-59.2 56.3,-110.9 97.6,-154.9 41.2,-44 89.4,-78.7 144.5,-104.2 55.1,-25.5 113.9,-38.2 176.5,-38.2 37.1,0 73.5,4.7 109.2,14.1 35.7,9.4 69.8,23.1 102.1,41.1 32.4,18 62.3,40 89.7,66 27.5,26.1 51.1,56 71.1,89.8 z"
   id="path2091" />
		</g>
	</g>
</g>
<g
   id="Layer_3"
   class="st0">
</g>
<g
   id="Layer_4"
   class="st0">
	<g
   class="st3"
   id="g2115">
		<path
   class="st8"
   d="M 227.7,1229.3 V 503.9 h 151.6 v 725.4 z"
   id="path2099" />
		<path
   class="st8"
   d="m 1865,1228.2 c -92.1,0 -175.4,-19.4 -249.9,-58.3 -74.6,-38.9 -133.6,-95.3 -177,-169.2 -43.5,-73.9 -65.2,-162.7 -65.2,-266.5 v -25.3 c 0,-103.7 21.7,-192.2 65.2,-265.5 43.4,-73.2 102.4,-129.6 177,-169.2 74.5,-39.5 157.8,-59.3 249.9,-59.3 92,0 170.5,16.9 235.3,50.6 64.8,33.7 117,78.5 156.6,134.2 39.5,55.8 65.2,117.4 76.8,184.8 l -194.5,40.8 c -6.5,-42.8 -20.1,-81.7 -40.8,-116.7 -20.8,-35 -49.9,-62.9 -87.5,-83.6 -37.6,-20.7 -84.9,-31.1 -142,-31.1 -55.8,0 -106,12.6 -150.7,37.9 -44.7,25.3 -80.1,61.6 -106,108.9 -26,47.3 -38.9,104.7 -38.9,172.1 v 17.5 c 0,67.4 12.9,125.1 38.9,173.1 25.9,48 61.3,84.3 106,108.9 44.7,24.6 95,37 150.7,37 84.3,0 148.5,-21.7 192.5,-65.2 44.1,-43.4 72,-98.9 83.6,-166.3 l 194.5,44.7 c -15.6,66.1 -43.1,127.1 -82.7,182.8 -39.6,55.8 -91.7,100.2 -156.6,133.2 -64.7,33.2 -143.1,49.7 -235.2,49.7 z"
   id="path2101" />
		<path
   class="st8"
   d="m 2877.7,1231.3 c -92.1,0 -175.4,-19.4 -249.9,-58.3 -74.6,-38.9 -133.6,-95.3 -177,-169.2 -43.5,-73.9 -65.2,-162.7 -65.2,-266.5 V 712 c 0,-103.7 21.7,-192.2 65.2,-265.5 43.4,-73.2 102.4,-129.6 177,-169.2 74.5,-39.5 157.8,-59.3 249.9,-59.3 92,0 170.5,16.9 235.3,50.6 64.8,33.7 117,78.5 156.6,134.2 39.5,55.8 65.2,117.4 76.8,184.8 L 3152,628.4 c -6.5,-42.8 -20.1,-81.7 -40.8,-116.7 -20.8,-35 -49.9,-62.9 -87.5,-83.6 -37.6,-20.7 -84.9,-31.1 -142,-31.1 -55.8,0 -106,12.6 -150.7,37.9 -44.7,25.3 -80.1,61.6 -106,108.9 -26,47.3 -38.9,104.7 -38.9,172.1 v 17.5 c 0,67.4 12.9,125.1 38.9,173.1 25.9,48 61.3,84.3 106,108.9 44.7,24.6 95,37 150.7,37 84.3,0 148.5,-21.7 192.5,-65.2 44.1,-43.4 72,-98.9 83.6,-166.3 l 194.5,44.7 c -15.6,66.1 -43.1,127.1 -82.7,182.8 -39.6,55.8 -91.7,100.2 -156.6,133.2 -64.8,33.2 -143.2,49.7 -235.3,49.7 z"
   id="path2103" />
		<path
   class="st9"
   d="m 270.4,207.2 93.9,52.6 c 19.3,10.8 19.5,38.5 0.3,49.6 l -93.9,54.4 c -19,11 -42.9,-2.7 -42.9,-24.7 v -107 c 0.1,-21.8 23.6,-35.6 42.6,-24.9 z"
   id="path2105" />
		<g
   id="g2113">
			<path
   class="st10"
   d="M 1203.9,731.9 1079.8,665.4 709.7,869.9 C 635.3,911 544.1,857.2 544.1,772.2 V 1105 c 0,96.9 103.9,158.2 188.7,111.3 l 472.5,-261.1 c 88.2,-48.7 87.4,-175.7 -1.4,-223.3 z"
   id="path2107" />
			<path
   class="st9"
   d="m 731.4,478.6 348.4,186.8 44.4,-24.5 c 77.4,-42.8 76.7,-154.2 -1.3,-196 L 708.4,222.6 c -74.3,-39.8 -164.3,14 -164.3,98.3 v 269.7 c 0,-96 102.6,-157.4 187.3,-112 z"
   id="path2109" />
			<path
   class="st11"
   d="M 709.7,869.9 1079.8,665.3 731.4,478.6 c -84.7,-45.4 -187.3,16 -187.3,112.1 v 181.6 c 0,85 91.2,138.7 165.6,97.6 z"
   id="path2111" />
		</g>
	</g>
</g>
<g
   id="Layer_5"
   class="st0">
	<g
   class="st3"
   id="g2124">
		<path
   class="st10"
   d="M 776.4,706.9 656.4,642.6 298.6,840.4 C 226.7,880.1 138.5,828.1 138.5,746 v 321.8 c 0,93.6 100.5,152.9 182.5,107.6 L 777.8,922.9 c 85.3,-47.1 84.5,-170 -1.4,-216 z"
   id="path2118" />
		<path
   class="st9"
   d="m 319.6,462 336.9,180.6 42.9,-23.7 c 74.8,-41.3 74.1,-149.1 -1.2,-189.5 L 297.4,214.5 C 225.5,176 138.5,228 138.5,309.6 v 260.8 c 0,-93 99.2,-152.3 181.1,-108.4 z"
   id="path2120" />
		<path
   class="st11"
   d="M 298.6,840.4 656.5,642.6 319.6,462 C 237.7,418.1 138.5,477.4 138.5,570.4 V 746 c 0,82.1 88.2,134.1 160.1,94.4 z"
   id="path2122" />
	</g>
	<g
   class="st3"
   id="g2134">
		<path
   class="st8"
   d="M 1151.8,1169.7 H 991.6 V 369.4 h 160.2 z"
   id="path2126" />
		<path
   class="st8"
   d="m 1940.5,929.7 c 0,33.1 -6.3,64.2 -19,93.2 -12.7,29 -29.9,54.4 -51.6,76.2 -21.8,21.8 -47.2,39 -76.2,51.6 -29,12.7 -60.1,19 -93.2,19 H 1300.3 V 369.4 h 400.2 c 33.1,0 64.2,6.3 93.2,19 29,12.7 54.4,29.9 76.2,51.6 21.8,21.7 39,47.2 51.6,76.2 12.6,29 19,60.1 19,93.2 0,14.9 -2,30.1 -6.1,45.8 -4.1,15.6 -9.9,30.7 -17.3,45.2 -7.4,14.5 -16.4,27.7 -26.8,39.6 -10.4,11.9 -22,21.8 -34.6,29.6 13,7.1 24.7,16.7 35.2,28.7 10.4,12.1 19.3,25.4 26.8,39.9 7.4,14.5 13.1,29.7 17,45.5 3.8,15.8 5.8,31.2 5.8,46 z m -480,-240 h 240 c 11.2,0 21.6,-2 31.3,-6.1 9.7,-4.1 18.1,-9.8 25.4,-17 7.3,-7.3 12.9,-15.8 17,-25.7 4.1,-9.9 6.1,-20.4 6.1,-31.5 0,-11.2 -2,-21.6 -6.1,-31.3 -4.1,-9.7 -9.8,-18.1 -17,-25.4 -7.3,-7.3 -15.7,-12.9 -25.4,-17 -9.7,-4.1 -20.1,-6.1 -31.3,-6.1 h -240 z m 0,319.9 h 240 c 11.2,0 21.6,-2 31.3,-6.1 9.7,-4.1 18.1,-9.8 25.4,-17 7.3,-7.3 12.9,-15.7 17,-25.4 4.1,-9.7 6.1,-20.1 6.1,-31.3 0,-11.2 -2,-21.6 -6.1,-31.3 -4.1,-9.7 -9.8,-18.1 -17,-25.4 -7.3,-7.3 -15.7,-12.9 -25.4,-17 -9.7,-4.1 -20.1,-6.1 -31.3,-6.1 h -240 z"
   id="path2128" />
		<path
   class="st8"
   d="m 2700.7,1087.7 c -37.2,32 -78.9,56.6 -125,73.7 -46.1,17.1 -94,25.7 -143.4,25.7 -38,0 -74.5,-4.9 -109.7,-14.8 -35.2,-9.9 -68.1,-23.8 -98.8,-41.9 -30.7,-18 -58.7,-39.7 -84,-65 -25.3,-25.3 -47,-53.3 -65,-84 -18.1,-30.7 -32,-63.6 -41.9,-98.8 -9.9,-35.2 -14.8,-71.7 -14.8,-109.7 0,-38 4.9,-74.6 14.8,-110 9.9,-35.3 23.8,-68.4 41.9,-99.1 18,-30.7 39.7,-58.7 65,-84 25.3,-25.3 53.3,-47 84,-65 30.7,-18 63.6,-32 98.8,-41.9 35.2,-9.9 71.7,-14.8 109.7,-14.8 49.5,0 97.3,8.5 143.4,25.4 46.1,16.9 87.8,41.6 125,74 L 2615.9,597 c -23.4,-25.3 -51.2,-44.7 -83.2,-58.3 -32,-13.6 -65.5,-20.4 -100.5,-20.4 -35.4,0 -68.5,6.7 -99.3,20.1 -30.9,13.4 -57.9,31.5 -80.9,54.4 -23.1,22.9 -41.3,49.9 -54.7,80.9 -13.4,31.1 -20.1,64.1 -20.1,99.1 0,35 6.7,67.8 20.1,98.5 13.4,30.7 31.6,57.6 54.7,80.7 23.1,23.1 50,41.3 80.9,54.7 30.9,13.4 64,20.1 99.3,20.1 35,0 68.5,-6.8 100.5,-20.4 32,-13.6 59.7,-33 83.2,-58.3 z"
   id="path2130" />
		<path
   class="st8"
   d="m 3409.5,1087.7 c -37.2,32 -78.9,56.6 -125,73.7 -46.1,17.1 -94,25.7 -143.4,25.7 -38,0 -74.5,-4.9 -109.7,-14.8 -35.2,-9.9 -68.1,-23.8 -98.8,-41.9 -30.7,-18 -58.7,-39.7 -84,-65 -25.3,-25.3 -47,-53.3 -65,-84 -18.1,-30.7 -32,-63.6 -41.9,-98.8 -9.9,-35.2 -14.8,-71.7 -14.8,-109.7 0,-38 4.9,-74.6 14.8,-110 9.9,-35.3 23.8,-68.4 41.9,-99.1 18,-30.7 39.7,-58.7 65,-84 25.3,-25.3 53.3,-47 84,-65 30.7,-18 63.6,-32 98.8,-41.9 35.2,-9.9 71.7,-14.8 109.7,-14.8 49.5,0 97.3,8.5 143.4,25.4 46.1,16.9 87.8,41.6 125,74 L 3324.7,597 c -23.4,-25.3 -51.2,-44.7 -83.2,-58.3 -32,-13.6 -65.5,-20.4 -100.5,-20.4 -35.4,0 -68.5,6.7 -99.3,20.1 -30.9,13.4 -57.9,31.5 -80.9,54.4 -23.1,22.9 -41.3,49.9 -54.7,80.9 -13.4,31.1 -20.1,64.1 -20.1,99.1 0,35 6.7,67.8 20.1,98.5 13.4,30.7 31.6,57.6 54.7,80.7 23.1,23.1 50,41.3 80.9,54.7 30.9,13.4 64,20.1 99.3,20.1 35,0 68.5,-6.8 100.5,-20.4 32,-13.6 59.7,-33 83.2,-58.3 z"
   id="path2132" />
	</g>
</g>
<g
   id="Layer_7"
   class="st0">
	<rect
   x="-5.6999998"
   y="-0.40000001"
   class="st5"
   width="3579"
   height="1435.9"
   id="rect2137" />
	<g
   id="g2147">
		<path
   class="st3"
   d="m 853.2,1039.5 h -140 V 340 h 139.9 v 699.5 z"
   id="path2139" />
		<path
   class="st3"
   d="m 1542.1,830 c 0,28.9 -5.5,56 -16.6,81.4 -11.1,25.3 -26.1,47.5 -45.1,66.5 -19,19 -41.2,34 -66.5,45.1 -25.4,11 -52.5,16.6 -81.4,16.6 H 982.8 V 340.9 h 349.6 c 28.9,0 56.1,5.5 81.4,16.6 25.4,11 47.5,26.1 66.5,45.1 19,19 34,41.2 45.1,66.5 11,25.3 16.6,52.5 16.6,81.4 0,13 -1.8,26.3 -5.4,39.9 -3.6,13.6 -8.6,26.8 -15.1,39.5 -6.5,12.7 -14.3,24.2 -23.4,34.6 -9.1,10.4 -19.2,19 -30.2,25.8 11.4,6.2 21.6,14.5 30.7,25.1 9.1,10.6 16.9,22.2 23.4,34.8 6.5,12.7 11.5,25.9 14.9,39.7 3.5,13.7 5.2,27.1 5.2,40.1 z M 1122.8,620.5 h 209.6 c 9.8,0 18.8,-1.8 27.3,-5.4 8.4,-3.6 15.8,-8.5 22.2,-14.9 6.3,-6.3 11.3,-13.8 14.9,-22.4 3.6,-8.6 5.4,-17.8 5.4,-27.5 0,-9.7 -1.8,-18.8 -5.4,-27.3 -3.6,-8.4 -8.5,-15.8 -14.9,-22.2 -6.3,-6.3 -13.7,-11.3 -22.2,-14.9 -8.5,-3.6 -17.6,-5.4 -27.3,-5.4 h -209.6 z m 0,279.2 h 209.6 c 9.8,0 18.8,-1.8 27.3,-5.4 8.4,-3.6 15.8,-8.5 22.2,-14.9 6.3,-6.3 11.3,-13.7 14.9,-22.2 3.6,-8.4 5.4,-17.5 5.4,-27.3 0,-9.8 -1.8,-18.8 -5.4,-27.3 -3.6,-8.4 -8.5,-15.8 -14.9,-22.2 -6.3,-6.3 -13.7,-11.3 -22.2,-14.9 -8.5,-3.6 -17.6,-5.4 -27.3,-5.4 h -209.6 z"
   id="path2141" />
		<path
   class="st3"
   d="m 2206.1,967.9 c -32.5,27.9 -68.9,49.4 -109.2,64.3 -40.3,14.9 -82.1,22.4 -125.3,22.4 -33.2,0 -65.1,-4.3 -95.8,-12.9 -30.7,-8.6 -59.5,-20.8 -86.3,-36.5 -26.8,-15.7 -51.3,-34.7 -73.4,-56.8 -22.1,-22.1 -41,-46.5 -56.8,-73.3 -15.8,-26.8 -28,-55.5 -36.6,-86.2 -8.6,-30.7 -12.9,-62.6 -12.9,-95.7 0,-33.1 4.3,-65.1 12.9,-96 8.6,-30.9 20.8,-59.7 36.6,-86.5 15.8,-26.8 34.7,-51.2 56.8,-73.3 22.1,-22.1 46.6,-41 73.4,-56.8 26.8,-15.7 55.6,-27.9 86.3,-36.5 30.7,-8.6 62.6,-12.9 95.8,-12.9 43.2,0 85,7.4 125.3,22.2 40.3,14.8 76.7,36.3 109.2,64.6 L 2132,539.7 c -20.5,-22.1 -44.7,-39.1 -72.6,-50.9 -28,-11.9 -57.2,-17.8 -87.8,-17.8 -30.9,0 -59.8,5.8 -86.8,17.5 -27,11.7 -50.5,27.5 -70.7,47.5 -20.2,20 -36.1,43.5 -47.8,70.6 -11.7,27.1 -17.6,55.9 -17.6,86.5 0,30.5 5.9,59.2 17.6,86 11.7,26.8 27.6,50.3 47.8,70.4 20.1,20.1 43.7,36.1 70.7,47.7 27,11.7 55.9,17.5 86.8,17.5 30.5,0 59.8,-5.9 87.8,-17.8 27.9,-11.9 52.2,-28.8 72.6,-50.9 z"
   id="path2143" />
		<path
   class="st3"
   d="m 2825.3,967.9 c -32.5,27.9 -68.9,49.4 -109.2,64.3 -40.3,14.9 -82.1,22.4 -125.3,22.4 -33.2,0 -65.1,-4.3 -95.8,-12.9 -30.7,-8.6 -59.5,-20.8 -86.3,-36.5 -26.8,-15.7 -51.3,-34.7 -73.4,-56.8 -22.1,-22.1 -41,-46.5 -56.8,-73.3 -15.8,-26.8 -28,-55.5 -36.6,-86.2 -8.6,-30.7 -12.9,-62.6 -12.9,-95.7 0,-33.1 4.3,-65.1 12.9,-96 8.6,-30.9 20.8,-59.7 36.6,-86.5 15.8,-26.8 34.7,-51.2 56.8,-73.3 22.1,-22.1 46.6,-41 73.4,-56.8 26.8,-15.7 55.6,-27.9 86.3,-36.5 30.7,-8.6 62.6,-12.9 95.8,-12.9 43.2,0 85,7.4 125.3,22.2 40.3,14.8 76.7,36.3 109.2,64.6 l -74.1,121.8 c -20.5,-22.1 -44.7,-39.1 -72.6,-50.9 -28,-11.9 -57.2,-17.8 -87.8,-17.8 -30.9,0 -59.8,5.8 -86.8,17.5 -27,11.7 -50.5,27.5 -70.7,47.5 -20.2,20 -36.1,43.5 -47.8,70.6 -11.7,27.1 -17.6,55.9 -17.6,86.5 0,30.5 5.9,59.2 17.6,86 11.7,26.8 27.6,50.3 47.8,70.4 20.1,20.1 43.7,36.1 70.7,47.7 27,11.7 55.9,17.5 86.8,17.5 30.5,0 59.8,-5.9 87.8,-17.8 27.9,-11.9 52.2,-28.8 72.6,-50.9 z"
   id="path2145" />
	</g>
	<g
   class="st3"
   id="g2170">
		<g
   id="g2151">
			<path
   class="st12"
   d="m 1313.5,410.7 c -38.1,0 -74.4,3.8 -108.4,11.2 v 209.8 c 32.6,-22 69.8,-32.4 109.8,-32.4 116.5,0 207.9,81 207.9,219.5 0,138.5 -91.4,219.5 -207.9,219.5 -40,0 -77.3,-10 -109.8,-31.8 v 209.1 c 34,7.5 70.2,11.3 108.4,11.3 258,0 442.3,-169.4 442.3,-408.1 0.1,-238.6 -184.2,-408.1 -442.3,-408.1 z"
   id="path2149" />
		</g>
		<g
   id="g2157">
			<path
   class="st12"
   d="m 1852.9,603.6 c 33.3,-61.4 79.5,-109 138.6,-142.8 59.1,-33.8 126.7,-50.7 202.9,-50.7 98.1,0 179.4,24.5 243.7,73.5 64.3,49 107.4,117.8 129.3,206.4 h -215.8 c -11.4,-34.3 -30.7,-61.2 -57.9,-80.7 C 2266.6,589.8 2233,580 2193,580 c -57.2,0 -102.4,20.7 -135.8,62.1 -33.4,41.4 -50,100.2 -50,176.4 0,75.2 16.7,133.5 50,174.9 33.3,41.4 78.6,62.1 135.8,62.1 81,0 133.8,-36.2 158.6,-108.5 h 215.8 c -21.9,85.7 -65.3,153.8 -130.1,204.2 -64.8,50.5 -145.8,75.7 -243,75.7 -76.2,0 -143.9,-16.9 -202.9,-50.7 -59.1,-33.8 -105.3,-81.4 -138.6,-142.8 -33.4,-61.4 -50,-133 -50,-214.9 0,-81.9 16.7,-153.5 50.1,-214.9 z"
   id="path2153" />
			<path
   class="st12"
   d="m 2664.3,603.6 c 33.3,-61.4 79.5,-109 138.6,-142.8 59.1,-33.8 126.7,-50.7 202.9,-50.7 98.1,0 179.4,24.5 243.7,73.5 64.3,49 107.4,117.8 129.3,206.4 H 3163 c -11.4,-34.3 -30.7,-61.2 -57.9,-80.7 -27.2,-19.5 -60.7,-29.3 -100.8,-29.3 -57.2,0 -102.4,20.7 -135.8,62.1 -33.4,41.4 -50,100.2 -50,176.4 0,75.2 16.7,133.5 50,174.9 33.3,41.4 78.6,62.1 135.8,62.1 81,0 133.8,-36.2 158.6,-108.5 h 215.8 c -21.9,85.7 -65.3,153.8 -130.1,204.2 -64.8,50.5 -145.8,75.7 -243,75.7 -76.2,0 -143.9,-16.9 -202.9,-50.7 -59.1,-33.8 -105.3,-81.4 -138.6,-142.8 -33.4,-61.4 -50,-133 -50,-214.9 0.2,-81.9 16.9,-153.5 50.2,-214.9 z"
   id="path2155" />
		</g>
		<g
   id="g2161">
			<path
   class="st13"
   d="M 1156.2,1197 V 225.5 c 0,-13.7 -8.8,-25.3 -21,-29.6 H 222 c -12.2,4.3 -21,15.9 -21,29.6 V 1197 c 0,13.7 8.8,25.3 21,29.6 H 749.4 V 466.3 401 H 1001 v 825.5 h 134.1 c 12.3,-4.3 21.1,-15.9 21.1,-29.5 z M 1000.7,381.8 H 749.2 L 749,279.5 1000.6,203.2 v 178.6 z"
   id="path2159" />
		</g>
		<linearGradient
   id="SVGID_1_"
   gradientUnits="userSpaceOnUse"
   x1="534.61639"
   y1="1006.2191"
   x2="783.94287"
   y2="519.79962">
			<stop
   offset="9.228511e-02"
   style="stop-color:#FFB936"
   id="stop2163" />
			<stop
   offset="1"
   style="stop-color:#CF8E2F"
   id="stop2165" />
		</linearGradient>
		<polygon
   class="st14"
   points="202.5,1226.5 749.4,1226.5 749,279.5 202.5,1014.7 "
   id="polygon2168" />
	</g>
</g>
<g
   id="Layer_8"
   class="st0">
	<circle
   class="st3"
   cx="1486.1"
   cy="417.10001"
   r="101.6"
   id="circle2173" />
	<path
   class="st3"
   d="m 1383.5,786 c 0,113.3 91.7,205.2 205,205.5 v -411 c -113.3,0.3 -205,92.2 -205,205.5 z"
   id="path2175" />
	<path
   class="st3"
   d="m 1619,310.5 c -0.2,0 -0.3,0 -0.5,0 v 411 c 0.2,0 0.3,0 0.5,0 113.5,0 205.5,-92 205.5,-205.5 0,-113.5 -92,-205.5 -205.5,-205.5 z"
   id="path2177" />
	<circle
   class="st3"
   cx="1721.6"
   cy="892.20001"
   r="101.6"
   id="circle2179" />
	<path
   class="st3"
   d="m 1884.5,774.2 c 0,113.3 91.7,205.2 205,205.5 v -411 c -113.3,0.2 -205,92.1 -205,205.5 z"
   id="path2181" />
	<path
   class="st3"
   d="m 2131.5,776.2 c 0,113.3 91.7,205.2 205,205.5 v -411 c -113.3,0.2 -205,92.1 -205,205.5 z"
   id="path2183" />
</g>
<g
   id="Layer_9"
   class="st0">
	<circle
   class="st15"
   cx="682.20001"
   cy="341.10001"
   r="100.6"
   id="circle2186" />
	<g
   class="st3"
   id="g2270">
		<g
   id="g2220">
			<g
   id="g2202">
				<linearGradient
   id="SVGID_2_"
   gradientUnits="userSpaceOnUse"
   x1="785.06818"
   y1="738.63788"
   x2="1347.8157"
   y2="738.63788">
					<stop
   offset="0"
   style="stop-color:#42E49B"
   id="stop2188" />
					<stop
   offset="1"
   style="stop-color:#2E838E"
   id="stop2190" />
				</linearGradient>
				<path
   class="st16"
   d="m 1153.4,721 c 51.8,-16.3 93.4,-44.1 124.6,-83.5 31.2,-39.4 46.8,-88.3 46.8,-146.9 0,-49.9 -12.7,-94.5 -38.2,-133.9 -25.4,-39.4 -62.9,-70.1 -112.3,-92.2 -23.1,-10.3 -48.4,-18.2 -75.6,-23.7 L 913.8,394.1 h 55.3 c 48,0 85,11 110.9,33.1 25.9,22.1 38.9,53.3 38.9,93.6 0,40.3 -13,71.3 -38.9,92.9 -25.9,21.6 -62.9,32.4 -110.9,32.4 h -80.9 v 155.5 h 95.3 c 49,0 87.8,12.2 116.6,36.7 28.8,24.5 43.2,58.3 43.2,101.5 0,42.3 -13.7,74.9 -41,97.9 -27.4,23 -65.5,34.6 -114.5,34.6 H 785.1 v 164.2 h 231.5 c 68.2,0 127.2,-11.5 177.1,-34.6 49.9,-23 88.1,-54.9 114.5,-95.8 26.4,-40.8 39.6,-88.1 39.6,-141.8 0,-59.5 -18.2,-112.3 -54.7,-158.4 -36.5,-46.1 -83.1,-74.4 -139.7,-84.9 z"
   id="path2193" />
				<linearGradient
   id="SVGID_3_"
   gradientUnits="userSpaceOnUse"
   x1="785.06818"
   y1="738.63788"
   x2="1347.8157"
   y2="738.63788">
					<stop
   offset="0"
   style="stop-color:#42E49B"
   id="stop2195" />
					<stop
   offset="1"
   style="stop-color:#2E838E"
   id="stop2197" />
				</linearGradient>
				<path
   class="st17"
   d="m 1153.4,721 c 51.8,-16.3 93.4,-44.1 124.6,-83.5 31.2,-39.4 46.8,-88.3 46.8,-146.9 0,-49.9 -12.7,-94.5 -38.2,-133.9 -25.4,-39.4 -62.9,-70.1 -112.3,-92.2 -23.1,-10.3 -48.4,-18.2 -75.6,-23.7 L 913.8,394.1 h 55.3 c 48,0 85,11 110.9,33.1 25.9,22.1 38.9,53.3 38.9,93.6 0,40.3 -13,71.3 -38.9,92.9 -25.9,21.6 -62.9,32.4 -110.9,32.4 h -80.9 v 155.5 h 95.3 c 49,0 87.8,12.2 116.6,36.7 28.8,24.5 43.2,58.3 43.2,101.5 0,42.3 -13.7,74.9 -41,97.9 -27.4,23 -65.5,34.6 -114.5,34.6 H 785.1 v 164.2 h 231.5 c 68.2,0 127.2,-11.5 177.1,-34.6 49.9,-23 88.1,-54.9 114.5,-95.8 26.4,-40.8 39.6,-88.1 39.6,-141.8 0,-59.5 -18.2,-112.3 -54.7,-158.4 -36.5,-46.1 -83.1,-74.4 -139.7,-84.9 z"
   id="path2200" />
			</g>
			<g
   id="g2218">
				<linearGradient
   id="SVGID_4_"
   gradientUnits="userSpaceOnUse"
   x1="583.16107"
   y1="868.75842"
   x2="785.06818"
   y2="868.75842">
					<stop
   offset="0"
   style="stop-color:#42E49B"
   id="stop2204" />
					<stop
   offset="1"
   style="stop-color:#2E838E"
   id="stop2206" />
				</linearGradient>
				<polygon
   class="st18"
   points="784.8,801.6 784.8,646.1 784.8,646.1 784.8,501 583.2,668.2 583.2,1236.5 785.1,1236.5 785.1,1072.3 784.8,1072.3 784.8,801.6 "
   id="polygon2209" />
				<linearGradient
   id="SVGID_5_"
   gradientUnits="userSpaceOnUse"
   x1="583.16107"
   y1="868.75842"
   x2="785.06818"
   y2="868.75842">
					<stop
   offset="0"
   style="stop-color:#42E49B"
   id="stop2211" />
					<stop
   offset="1"
   style="stop-color:#2E838E"
   id="stop2213" />
				</linearGradient>
				<polygon
   class="st19"
   points="784.8,801.6 784.8,646.1 784.8,646.1 784.8,501 583.2,668.2 583.2,1236.5 785.1,1236.5 785.1,1072.3 784.8,1072.3 784.8,801.6 "
   id="polygon2216" />
			</g>
		</g>
		<g
   id="g2268">
			<g
   id="g2243">
				<linearGradient
   id="SVGID_6_"
   gradientUnits="userSpaceOnUse"
   x1="583.16107"
   y1="738.63788"
   x2="1347.8157"
   y2="738.63788">
					<stop
   offset="0"
   style="stop-color:#42E49B"
   id="stop2222" />
					<stop
   offset="1"
   style="stop-color:#2E838E"
   id="stop2224" />
				</linearGradient>
				<path
   class="st20"
   d="m 1153.4,721 c 51.8,-16.3 93.4,-44.1 124.6,-83.5 31.2,-39.4 46.8,-88.3 46.8,-146.9 0,-49.9 -12.7,-94.5 -38.2,-133.9 -25.4,-39.4 -62.9,-70.1 -112.3,-92.2 -23.1,-10.3 -48.4,-18.2 -75.6,-23.7 L 913.8,394.1 h 55.3 c 48,0 85,11 110.9,33.1 25.9,22.1 38.9,53.3 38.9,93.6 0,40.3 -13,71.3 -38.9,92.9 -25.9,21.6 -62.9,32.4 -110.9,32.4 h -80.9 v 155.5 h 95.3 c 49,0 87.8,12.2 116.6,36.7 28.8,24.5 43.2,58.3 43.2,101.5 0,42.3 -13.7,74.9 -41,97.9 -27.4,23 -65.5,34.6 -114.5,34.6 H 785.1 v 164.2 h 231.5 c 68.2,0 127.2,-11.5 177.1,-34.6 49.9,-23 88.1,-54.9 114.5,-95.8 26.4,-40.8 39.6,-88.1 39.6,-141.8 0,-59.5 -18.2,-112.3 -54.7,-158.4 -36.5,-46.1 -83.1,-74.4 -139.7,-84.9 z"
   id="path2227" />
				<linearGradient
   id="SVGID_7_"
   gradientUnits="userSpaceOnUse"
   x1="583.16107"
   y1="738.63788"
   x2="1347.8157"
   y2="738.63788">
					<stop
   offset="0"
   style="stop-color:#42E49B"
   id="stop2229" />
					<stop
   offset="1"
   style="stop-color:#2E838E"
   id="stop2231" />
				</linearGradient>
				<path
   class="st21"
   d="m 1153.4,721 c 51.8,-16.3 93.4,-44.1 124.6,-83.5 31.2,-39.4 46.8,-88.3 46.8,-146.9 0,-49.9 -12.7,-94.5 -38.2,-133.9 -25.4,-39.4 -62.9,-70.1 -112.3,-92.2 -23.1,-10.3 -48.4,-18.2 -75.6,-23.7 L 913.8,394.1 h 55.3 c 48,0 85,11 110.9,33.1 25.9,22.1 38.9,53.3 38.9,93.6 0,40.3 -13,71.3 -38.9,92.9 -25.9,21.6 -62.9,32.4 -110.9,32.4 h -80.9 v 155.5 h 95.3 c 49,0 87.8,12.2 116.6,36.7 28.8,24.5 43.2,58.3 43.2,101.5 0,42.3 -13.7,74.9 -41,97.9 -27.4,23 -65.5,34.6 -114.5,34.6 H 785.1 v 164.2 h 231.5 c 68.2,0 127.2,-11.5 177.1,-34.6 49.9,-23 88.1,-54.9 114.5,-95.8 26.4,-40.8 39.6,-88.1 39.6,-141.8 0,-59.5 -18.2,-112.3 -54.7,-158.4 -36.5,-46.1 -83.1,-74.4 -139.7,-84.9 z"
   id="path2234" />
				<linearGradient
   id="SVGID_8_"
   gradientUnits="userSpaceOnUse"
   x1="583.16107"
   y1="738.63788"
   x2="1347.8157"
   y2="738.63788">
					<stop
   offset="0"
   style="stop-color:#42E49B"
   id="stop2236" />
					<stop
   offset="1"
   style="stop-color:#2E838E"
   id="stop2238" />
				</linearGradient>
				<path
   class="st22"
   d="m 1153.4,721 c 51.8,-16.3 93.4,-44.1 124.6,-83.5 31.2,-39.4 46.8,-88.3 46.8,-146.9 0,-49.9 -12.7,-94.5 -38.2,-133.9 -25.4,-39.4 -62.9,-70.1 -112.3,-92.2 -23.1,-10.3 -48.4,-18.2 -75.6,-23.7 L 913.8,394.1 h 55.3 c 48,0 85,11 110.9,33.1 25.9,22.1 38.9,53.3 38.9,93.6 0,40.3 -13,71.3 -38.9,92.9 -25.9,21.6 -62.9,32.4 -110.9,32.4 h -80.9 v 155.5 h 95.3 c 49,0 87.8,12.2 116.6,36.7 28.8,24.5 43.2,58.3 43.2,101.5 0,42.3 -13.7,74.9 -41,97.9 -27.4,23 -65.5,34.6 -114.5,34.6 H 785.1 v 164.2 h 231.5 c 68.2,0 127.2,-11.5 177.1,-34.6 49.9,-23 88.1,-54.9 114.5,-95.8 26.4,-40.8 39.6,-88.1 39.6,-141.8 0,-59.5 -18.2,-112.3 -54.7,-158.4 -36.5,-46.1 -83.1,-74.4 -139.7,-84.9 z"
   id="path2241" />
			</g>
			<g
   id="g2266">
				<linearGradient
   id="SVGID_9_"
   gradientUnits="userSpaceOnUse"
   x1="583.16107"
   y1="738.63788"
   x2="1347.8157"
   y2="738.63788">
					<stop
   offset="0"
   style="stop-color:#42E49B"
   id="stop2245" />
					<stop
   offset="1"
   style="stop-color:#2E838E"
   id="stop2247" />
				</linearGradient>
				<polygon
   class="st23"
   points="784.8,801.6 784.8,646.1 784.8,646.1 784.8,501 583.2,668.2 583.2,1236.5 785.1,1236.5 785.1,1072.3 784.8,1072.3 784.8,801.6 "
   id="polygon2250" />
				<linearGradient
   id="SVGID_10_"
   gradientUnits="userSpaceOnUse"
   x1="583.16107"
   y1="738.63788"
   x2="1347.8157"
   y2="738.63788">
					<stop
   offset="0"
   style="stop-color:#42E49B"
   id="stop2252" />
					<stop
   offset="1"
   style="stop-color:#2E838E"
   id="stop2254" />
				</linearGradient>
				<polygon
   class="st24"
   points="784.8,801.6 784.8,646.1 784.8,646.1 784.8,501 583.2,668.2 583.2,1236.5 785.1,1236.5 785.1,1072.3 784.8,1072.3 784.8,801.6 "
   id="polygon2257" />
				<linearGradient
   id="SVGID_11_"
   gradientUnits="userSpaceOnUse"
   x1="583.16107"
   y1="738.63788"
   x2="1347.8157"
   y2="738.63788">
					<stop
   offset="0"
   style="stop-color:#42E49B"
   id="stop2259" />
					<stop
   offset="1"
   style="stop-color:#2E838E"
   id="stop2261" />
				</linearGradient>
				<polygon
   class="st25"
   points="784.8,801.6 784.8,646.1 784.8,646.1 784.8,501 583.2,668.2 583.2,1236.5 785.1,1236.5 785.1,1072.3 784.8,1072.3 784.8,801.6 "
   id="polygon2264" />
			</g>
		</g>
	</g>
	<g
   class="st3"
   id="g2276">
		<path
   class="st26"
   d="m 1847.8,1224.2 c -152.9,0 -269.3,-42.5 -349.4,-127.5 -80,-85 -120.1,-205.8 -120.1,-362.2 0,-77.8 12.2,-147.2 36.6,-208.3 24.4,-61.1 57.9,-112.6 100.4,-154.7 42.5,-42.1 93.1,-73.9 152,-95.6 58.8,-21.7 122.5,-32.6 191.3,-32.6 39.8,0 76,2.9 108.5,8.8 32.6,5.9 61.1,12.7 85.5,20.4 24.4,7.7 44.8,15.6 61.1,23.7 16.3,8.1 28,14.5 35.3,19 l -61.1,170.9 c -29,-15.4 -62.6,-28.5 -101.1,-39.3 -38.5,-10.9 -82.1,-16.3 -130.9,-16.3 -32.6,0 -64.4,5.4 -95.6,16.3 -31.2,10.9 -58.8,28.3 -82.8,52.2 -24,24 -43.2,54.9 -57.7,92.9 -14.5,38 -21.7,84.1 -21.7,138.4 0,43.4 4.7,83.9 14.2,121.4 9.5,37.5 24.9,69.9 46.1,97 21.2,27.1 49.1,48.6 83.4,64.4 34.4,15.8 76,23.7 124.8,23.7 30.7,0 58.3,-1.8 82.8,-5.4 24.4,-3.6 46.1,-7.9 65.1,-12.9 19,-5 35.7,-10.6 50.2,-17 14.5,-6.3 27.6,-12.2 39.3,-17.6 l 58.3,169.6 c -29.8,18.1 -71.9,34.4 -126.2,48.8 -54,14.6 -116.9,21.9 -188.3,21.9 z"
   id="path2272" />
		<path
   class="st26"
   d="m 2633.7,1224.2 c -152.9,0 -269.3,-42.5 -349.4,-127.5 -80,-85 -120.1,-205.8 -120.1,-362.2 0,-77.8 12.2,-147.2 36.6,-208.3 24.4,-61.1 57.9,-112.6 100.4,-154.7 42.5,-42.1 93.1,-73.9 152,-95.6 58.8,-21.7 122.5,-32.6 191.3,-32.6 39.8,0 76,2.9 108.5,8.8 32.6,5.9 61.1,12.7 85.5,20.4 24.4,7.7 44.8,15.6 61.1,23.7 16.3,8.1 28,14.5 35.3,19 l -61.1,170.9 c -29,-15.4 -62.6,-28.5 -101.1,-39.3 -38.5,-10.9 -82.1,-16.3 -130.9,-16.3 -32.6,0 -64.4,5.4 -95.6,16.3 -31.2,10.9 -58.8,28.3 -82.8,52.2 -24,24 -43.2,54.9 -57.7,92.9 -14.5,38 -21.7,84.1 -21.7,138.4 0,43.4 4.7,83.9 14.2,121.4 9.5,37.5 24.9,69.9 46.1,97 21.2,27.1 49.1,48.6 83.4,64.4 34.4,15.8 76,23.7 124.8,23.7 30.7,0 58.3,-1.8 82.8,-5.4 24.4,-3.6 46.1,-7.9 65.1,-12.9 19,-5 35.7,-10.6 50.2,-17 14.5,-6.3 27.6,-12.2 39.3,-17.6 l 58.3,169.6 c -29.8,18.1 -71.9,34.4 -126.2,48.8 -54,14.6 -116.8,21.9 -188.3,21.9 z"
   id="path2274" />
	</g>
</g>

<g
   id="Layer_10"
   class="st0">
	<g
   class="st3"
   id="g2585">
		<g
   id="g2316">
			<path
   class="st30"
   d="m 595.9,915.8 c 21.5,-18 43.9,-34.2 66.9,-49.1 21.7,-14.1 44.1,-26.9 66.8,-38.7 V 268.8 H 564.3 v 675.6 c 0,0 0,0 0.1,-0.1 10.2,-10 20.8,-19.5 31.5,-28.5 z"
   id="path2302" />
			<path
   class="st30"
   d="m 988.4,707.7 h 116.7 c 30.2,0 56.7,4 79.6,12 72.7,-3 145.1,-0.1 216.7,7 -4,-5 -8.3,-9.8 -12.9,-14.5 -37.6,-38.3 -90.5,-62.6 -158.7,-72.9 45.5,-12 80,-32.9 103.6,-62.6 23.6,-29.7 35.4,-66 35.4,-109.1 0,-62 -23.8,-110.6 -71.5,-145.9 -47.7,-35.3 -113,-52.9 -196.1,-52.9 h -278 v 521.1 c 54,-20.6 109.4,-36 165.3,-47.2 v -35 z m 0,-322.8 h 94.4 c 85.7,0 128.5,33.6 128.5,100.7 0,33.6 -11.8,59.8 -35.4,78.7 -23.6,18.9 -56,28.4 -97.1,28.4 H 988.3 V 384.9 Z"
   id="path2304" />
			<path
   class="st30"
   d="m 1272.6,844.5 c 1.1,7.1 1.7,14.4 1.7,22.1 0,40.3 -14.7,72.1 -43.9,95.5 -29.3,23.4 -69.7,35.1 -121.3,35.1 H 988.4 V 887.1 c -44.5,12.5 -87.6,27.9 -128.7,46.6 -12.4,5.6 -24.6,11.6 -36.6,17.8 v 156.8 h 317.4 c 92.7,0 166.6,-20.3 221.7,-61 55.1,-40.7 82.6,-95.9 82.6,-165.7 0,-12.1 -0.9,-23.7 -2.6,-34.9 -7.7,-0.5 -15.5,-0.9 -23.3,-1.2 -48.8,-2.5 -97.7,-2.9 -146.3,-1 z"
   id="path2306" />
			<path
   class="st30"
   d="m 1671,680.4 c 0,-80.1 25.6,-148.1 76.7,-204 51.2,-55.9 118.2,-83.9 201.3,-83.9 69.1,0 128.5,20.7 178.4,62 l 87.9,-127.8 c -77,-52.5 -166.1,-78.8 -267.6,-78.8 -88.3,0 -166.6,19.4 -234.8,58.1 -68.2,38.7 -120.7,90.8 -157.4,156.2 -36.7,65.4 -55.1,138 -55.1,217.6 0,20.4 1.2,40.3 3.6,59.7 61,9.2 121.2,21 180.3,34.1 -8.8,-29.1 -13.3,-60.2 -13.3,-93.2 z"
   id="path2308" />
			<path
   class="st30"
   d="m 1949.1,985.8 c -83.1,0 -150.2,-27.4 -201.3,-82.3 -8,-8.6 -15.4,-17.4 -22.1,-26.6 -4.2,-0.6 -8.5,-1.2 -12.7,-1.9 -63.8,-9.7 -126.3,-19.2 -188.6,-26 8.3,23.5 18.7,46.3 31.3,68.2 36.7,64.1 89.2,115 157.4,152.7 68.2,37.7 146,56.6 233.5,56.6 102.3,0 191.9,-26 268.9,-77.9 l -80.6,-114.2 c -5.8,-0.7 -11.7,-1.4 -17.5,-2.2 -47.9,35.7 -104,53.6 -168.3,53.6 z"
   id="path2310" />
			<path
   class="st30"
   d="m 2380.2,680.9 c 0,-80.2 25.6,-148.2 76.7,-204.3 51.2,-56 118.2,-84 201.3,-84 69.1,0 128.5,20.7 178.4,62.1 l 87.9,-128 c -77,-52.6 -166.1,-78.9 -267.6,-78.9 -88.3,0 -166.6,19.4 -234.8,58.2 -68.2,38.8 -120.7,91 -157.4,156.4 -36.7,65.5 -55.1,138.1 -55.1,217.9 0,52.7 8,102.4 24.1,149 63.8,8.1 128,13.6 191.6,14 -30,-47.4 -45.1,-101.5 -45.1,-162.4 z"
   id="path2312" />
			<path
   class="st30"
   d="m 2658.2,985.3 c -45.2,0 -85.7,-8.2 -121.4,-24.5 -75.7,2.7 -151.6,-1.6 -226.7,-8 -7.9,-0.7 -15.7,-1.5 -23.6,-2.2 34.7,48.6 79.9,88.3 135.6,119.2 68.2,37.8 146,56.8 233.5,56.8 102.3,0 191.9,-26.1 268.9,-78.2 l -87.9,-124.9 c -49.8,41.2 -109.3,61.8 -178.4,61.8 z"
   id="path2314" />
		</g>
		
			<linearGradient
   id="SVGID_12_"
   gradientUnits="userSpaceOnUse"
   x1="-17.3216"
   y1="1200.2842"
   x2="6317.75"
   y2="-1116.0671"
   gradientTransform="matrix(1.0031,-0.02023448,0.02031466,0.9998,-25.0958,33.5604)">
			<stop
   offset="0"
   style="stop-color:#02FFE2"
   id="stop2318" />
			<stop
   offset="9.333432e-03"
   style="stop-color:#02FCE2"
   id="stop2320" />
			<stop
   offset="0.1404"
   style="stop-color:#01D9DF"
   id="stop2322" />
			<stop
   offset="0.2791"
   style="stop-color:#01BBDC"
   id="stop2324" />
			<stop
   offset="0.4257"
   style="stop-color:#00A5DA"
   id="stop2326" />
			<stop
   offset="0.5837"
   style="stop-color:#0094D9"
   id="stop2328" />
			<stop
   offset="0.7615"
   style="stop-color:#008BD8"
   id="stop2330" />
			<stop
   offset="1"
   style="stop-color:#0088D8"
   id="stop2332" />
		</linearGradient>
		<path
   class="st31"
   d="m 988.4,750.2 v 122.6 c 45.9,-13.7 93.1,-24.1 141.1,-31.5 47.1,-7.3 94.9,-11.8 143.1,-13.8 -4.7,-31 -19.2,-56.4 -43.5,-76.1 -12.8,-10.4 -27.6,-18.5 -44.4,-24.5 -22.9,1 -45.8,2.5 -68.7,4.7 -42.5,4 -85.2,10 -127.6,18.6 z"
   id="path2335" />
		
			<linearGradient
   id="SVGID_13_"
   gradientUnits="userSpaceOnUse"
   x1="-5.3162999"
   y1="1233.1178"
   x2="6329.7554"
   y2="-1083.2335"
   gradientTransform="matrix(1.0031,-0.02023448,0.02031466,0.9998,-25.0958,33.5604)">
			<stop
   offset="0"
   style="stop-color:#02FFE2"
   id="stop2337" />
			<stop
   offset="9.333432e-03"
   style="stop-color:#02FCE2"
   id="stop2339" />
			<stop
   offset="0.1404"
   style="stop-color:#01D9DF"
   id="stop2341" />
			<stop
   offset="0.2791"
   style="stop-color:#01BBDC"
   id="stop2343" />
			<stop
   offset="0.4257"
   style="stop-color:#00A5DA"
   id="stop2345" />
			<stop
   offset="0.5837"
   style="stop-color:#0094D9"
   id="stop2347" />
			<stop
   offset="0.7615"
   style="stop-color:#008BD8"
   id="stop2349" />
			<stop
   offset="1"
   style="stop-color:#0088D8"
   id="stop2351" />
		</linearGradient>
		<path
   class="st32"
   d="m 564.3,959.9 c -10.7,11 -19.5,19.8 -31.9,35.9 l -1.6,2 c -1.6,2.1 -3.1,4.4 -4.5,6.7 -21.1,35 -9.7,80.4 25.3,101.4 22.9,13.7 50.2,13.7 72.3,2.3 h -59.6 z"
   id="path2354" />
		
			<linearGradient
   id="SVGID_14_"
   gradientUnits="userSpaceOnUse"
   x1="112.3273"
   y1="1554.8656"
   x2="6447.3989"
   y2="-761.48572"
   gradientTransform="matrix(1.0031,-0.02023448,0.02031466,0.9998,-25.0958,33.5604)">
			<stop
   offset="0"
   style="stop-color:#02FFE2"
   id="stop2356" />
			<stop
   offset="9.333432e-03"
   style="stop-color:#02FCE2"
   id="stop2358" />
			<stop
   offset="0.1404"
   style="stop-color:#01D9DF"
   id="stop2360" />
			<stop
   offset="0.2791"
   style="stop-color:#01BBDC"
   id="stop2362" />
			<stop
   offset="0.4257"
   style="stop-color:#00A5DA"
   id="stop2364" />
			<stop
   offset="0.5837"
   style="stop-color:#0094D9"
   id="stop2366" />
			<stop
   offset="0.7615"
   style="stop-color:#008BD8"
   id="stop2368" />
			<stop
   offset="1"
   style="stop-color:#0088D8"
   id="stop2370" />
		</linearGradient>
		<path
   class="st33"
   d="M 2260.6,900.5 C 2081.9,870.2 1904.4,830 1726.5,791.7 c -14,-3.3 -28.1,-6.6 -42.2,-9.8 9.1,30.2 22.8,58.2 41.2,84.2 130.3,19.9 260.5,40.6 391.6,57.8 3.5,-2.7 6.9,-5.5 10.3,-8.4 l 7.2,10.7 c 50.5,6.5 101.1,12.4 151.9,17.5 -7.8,-11.3 -15.1,-23.1 -21.8,-35.4 -1.3,-2.7 -2.7,-5.3 -4.1,-7.8 z"
   id="path2373" />
		
			<linearGradient
   id="SVGID_15_"
   gradientUnits="userSpaceOnUse"
   x1="211.7608"
   y1="1826.8097"
   x2="6546.8325"
   y2="-489.54169"
   gradientTransform="matrix(1.0031,-0.02023448,0.02031466,0.9998,-25.0958,33.5604)">
			<stop
   offset="0"
   style="stop-color:#02FFE2"
   id="stop2375" />
			<stop
   offset="9.333432e-03"
   style="stop-color:#02FCE2"
   id="stop2377" />
			<stop
   offset="0.1404"
   style="stop-color:#01D9DF"
   id="stop2379" />
			<stop
   offset="0.2791"
   style="stop-color:#01BBDC"
   id="stop2381" />
			<stop
   offset="0.4257"
   style="stop-color:#00A5DA"
   id="stop2383" />
			<stop
   offset="0.5837"
   style="stop-color:#0094D9"
   id="stop2385" />
			<stop
   offset="0.7615"
   style="stop-color:#008BD8"
   id="stop2387" />
			<stop
   offset="1"
   style="stop-color:#0088D8"
   id="stop2389" />
		</linearGradient>
		<path
   class="st34"
   d="m 2613,948.6 c 100.9,-10.5 198.5,-42.8 286.7,-90 -91.1,41.8 -189.1,67.5 -288.2,71.7 -38.6,1.9 -77.1,1.4 -115.7,-0.8 12.9,9.6 26.6,17.9 41.1,24.7 25.3,-1 50.7,-2.8 76.1,-5.6 z"
   id="path2392" />
		
			<linearGradient
   id="SVGID_16_"
   gradientUnits="userSpaceOnUse"
   x1="-25.404699"
   y1="1178.1772"
   x2="6309.667"
   y2="-1138.1741"
   gradientTransform="matrix(1.0031,-0.02023448,0.02031466,0.9998,-25.0958,33.5604)">
			<stop
   offset="0"
   style="stop-color:#02FFE2"
   id="stop2394" />
			<stop
   offset="9.333432e-03"
   style="stop-color:#02FCE2"
   id="stop2396" />
			<stop
   offset="0.1404"
   style="stop-color:#01D9DF"
   id="stop2398" />
			<stop
   offset="0.2791"
   style="stop-color:#01BBDC"
   id="stop2400" />
			<stop
   offset="0.4257"
   style="stop-color:#00A5DA"
   id="stop2402" />
			<stop
   offset="0.5837"
   style="stop-color:#0094D9"
   id="stop2404" />
			<stop
   offset="0.7615"
   style="stop-color:#008BD8"
   id="stop2406" />
			<stop
   offset="1"
   style="stop-color:#0088D8"
   id="stop2408" />
		</linearGradient>
		<path
   class="st35"
   d="m 807.2,804.5 c -26.3,10.8 -52.2,22.9 -77.6,36.3 v 162.8 c 4.3,-3.5 8.7,-6.9 13.2,-10.3 25.2,-19 52.2,-36.4 80.5,-52 V 798.2 c -5.5,2 -10.8,4.1 -16.1,6.3 z"
   id="path2411" />
		
			<linearGradient
   id="SVGID_17_"
   gradientUnits="userSpaceOnUse"
   x1="22.808901"
   y1="1310.0386"
   x2="6357.8804"
   y2="-1006.3127"
   gradientTransform="matrix(1.0031,-0.02023448,0.02031466,0.9998,-25.0958,33.5604)">
			<stop
   offset="0"
   style="stop-color:#02FFE2"
   id="stop2413" />
			<stop
   offset="9.333432e-03"
   style="stop-color:#02FCE2"
   id="stop2415" />
			<stop
   offset="0.1404"
   style="stop-color:#01D9DF"
   id="stop2417" />
			<stop
   offset="0.2791"
   style="stop-color:#01BBDC"
   id="stop2419" />
			<stop
   offset="0.4257"
   style="stop-color:#00A5DA"
   id="stop2421" />
			<stop
   offset="0.5837"
   style="stop-color:#0094D9"
   id="stop2423" />
			<stop
   offset="0.7615"
   style="stop-color:#008BD8"
   id="stop2425" />
			<stop
   offset="1"
   style="stop-color:#0088D8"
   id="stop2427" />
		</linearGradient>
		<path
   class="st36"
   d="m 1401.4,734 c 21.8,27.4 35.4,59.3 40.8,95.7 27.4,1.7 54.7,4.2 82.1,7.3 -9.7,-28.8 -16.4,-58.8 -20.2,-89.8 -34,-5.3 -68.3,-9.7 -102.7,-13.2 z"
   id="path2430" />
		
			<linearGradient
   id="SVGID_18_"
   gradientUnits="userSpaceOnUse"
   x1="-14.1938"
   y1="1208.8384"
   x2="6320.8779"
   y2="-1107.5129"
   gradientTransform="matrix(1.0031,-0.02023448,0.02031466,0.9998,-25.0958,33.5604)">
			<stop
   offset="0"
   style="stop-color:#02FFE2"
   id="stop2432" />
			<stop
   offset="9.333432e-03"
   style="stop-color:#02FCE2"
   id="stop2434" />
			<stop
   offset="0.1404"
   style="stop-color:#01D9DF"
   id="stop2436" />
			<stop
   offset="0.2791"
   style="stop-color:#01BBDC"
   id="stop2438" />
			<stop
   offset="0.4257"
   style="stop-color:#00A5DA"
   id="stop2440" />
			<stop
   offset="0.5837"
   style="stop-color:#0094D9"
   id="stop2442" />
			<stop
   offset="0.7615"
   style="stop-color:#008BD8"
   id="stop2444" />
			<stop
   offset="1"
   style="stop-color:#0088D8"
   id="stop2446" />
		</linearGradient>
		<path
   class="st37"
   d="m 662.7,880.4 c -23,15.3 -45.3,31.9 -66.9,50.3 -10.7,9.2 -21.2,18.9 -31.5,29.1 0,0 0,0 -0.1,0.1 v 148.3 h 59.6 c 11.8,-6.1 22.1,-15.4 29.4,-27.6 2.4,-3.9 10.4,-13.9 16.7,-21 6.9,-7.8 14.4,-15.6 22.2,-23.1 11.8,-11.4 24.3,-22.4 37.3,-32.9 V 840.8 c -22.6,12.1 -44.9,25.2 -66.7,39.6 z"
   id="path2449" />
		
			<linearGradient
   id="SVGID_19_"
   gradientUnits="userSpaceOnUse"
   x1="1.9761"
   y1="1253.062"
   x2="6337.0474"
   y2="-1063.2893"
   gradientTransform="matrix(1.0031,-0.02023448,0.02031466,0.9998,-25.0958,33.5604)">
			<stop
   offset="0"
   style="stop-color:#02FFE2"
   id="stop2451" />
			<stop
   offset="9.333432e-03"
   style="stop-color:#02FCE2"
   id="stop2453" />
			<stop
   offset="0.1404"
   style="stop-color:#01D9DF"
   id="stop2455" />
			<stop
   offset="0.2791"
   style="stop-color:#01BBDC"
   id="stop2457" />
			<stop
   offset="0.4257"
   style="stop-color:#00A5DA"
   id="stop2459" />
			<stop
   offset="0.5837"
   style="stop-color:#0094D9"
   id="stop2461" />
			<stop
   offset="0.7615"
   style="stop-color:#008BD8"
   id="stop2463" />
			<stop
   offset="1"
   style="stop-color:#0088D8"
   id="stop2465" />
		</linearGradient>
		<path
   class="st38"
   d="m 1184.7,726.9 c 16.8,6 31.6,14.1 44.4,24.5 24.3,19.7 38.8,45.1 43.5,76.1 48.5,-2 97.4,-1.6 146.3,0.8 7.8,0.4 15.5,0.8 23.3,1.3 -5.4,-36.4 -19,-68.3 -40.8,-95.7 -71.6,-7.1 -144,-10 -216.7,-7 z"
   id="path2468" />
		
			<linearGradient
   id="SVGID_20_"
   gradientUnits="userSpaceOnUse"
   x1="-29.5613"
   y1="1166.8094"
   x2="6305.5103"
   y2="-1149.5419"
   gradientTransform="matrix(1.0031,-0.02023448,0.02031466,0.9998,-25.0958,33.5604)">
			<stop
   offset="0"
   style="stop-color:#02FFE2"
   id="stop2470" />
			<stop
   offset="9.333432e-03"
   style="stop-color:#02FCE2"
   id="stop2472" />
			<stop
   offset="0.1404"
   style="stop-color:#01D9DF"
   id="stop2474" />
			<stop
   offset="0.2791"
   style="stop-color:#01BBDC"
   id="stop2476" />
			<stop
   offset="0.4257"
   style="stop-color:#00A5DA"
   id="stop2478" />
			<stop
   offset="0.5837"
   style="stop-color:#0094D9"
   id="stop2480" />
			<stop
   offset="0.7615"
   style="stop-color:#008BD8"
   id="stop2482" />
			<stop
   offset="1"
   style="stop-color:#0088D8"
   id="stop2484" />
		</linearGradient>
		<path
   class="st39"
   d="M 988.4,872.8 V 750.2 c -55.9,11.3 -111.2,27 -165.3,47.9 v 143.2 c 12,-6.6 24.2,-12.9 36.6,-18.9 41.1,-19.9 84.2,-36.3 128.7,-49.6 z"
   id="path2487" />
		
			<linearGradient
   id="SVGID_21_"
   gradientUnits="userSpaceOnUse"
   x1="148.95869"
   y1="1655.05"
   x2="6484.0303"
   y2="-661.30127"
   gradientTransform="matrix(1.0031,-0.02023448,0.02031466,0.9998,-25.0958,33.5604)">
			<stop
   offset="0"
   style="stop-color:#02FFE2"
   id="stop2489" />
			<stop
   offset="9.333432e-03"
   style="stop-color:#02FCE2"
   id="stop2491" />
			<stop
   offset="0.1404"
   style="stop-color:#01D9DF"
   id="stop2493" />
			<stop
   offset="0.2791"
   style="stop-color:#01BBDC"
   id="stop2495" />
			<stop
   offset="0.4257"
   style="stop-color:#00A5DA"
   id="stop2497" />
			<stop
   offset="0.5837"
   style="stop-color:#0094D9"
   id="stop2499" />
			<stop
   offset="0.7615"
   style="stop-color:#008BD8"
   id="stop2501" />
			<stop
   offset="1"
   style="stop-color:#0088D8"
   id="stop2503" />
		</linearGradient>
		<path
   class="st40"
   d="m 2117.1,923.8 c 5.8,0.8 11.7,1.5 17.5,2.3 l -7.2,-10.7 c -3.4,2.9 -6.8,5.7 -10.3,8.4 z"
   id="path2506" />
		
			<linearGradient
   id="SVGID_22_"
   gradientUnits="userSpaceOnUse"
   x1="48.405399"
   y1="1380.0433"
   x2="6383.4771"
   y2="-936.30798"
   gradientTransform="matrix(1.0031,-0.02023448,0.02031466,0.9998,-25.0958,33.5604)">
			<stop
   offset="0"
   style="stop-color:#02FFE2"
   id="stop2508" />
			<stop
   offset="9.333432e-03"
   style="stop-color:#02FCE2"
   id="stop2510" />
			<stop
   offset="0.1404"
   style="stop-color:#01D9DF"
   id="stop2512" />
			<stop
   offset="0.2791"
   style="stop-color:#01BBDC"
   id="stop2514" />
			<stop
   offset="0.4257"
   style="stop-color:#00A5DA"
   id="stop2516" />
			<stop
   offset="0.5837"
   style="stop-color:#0094D9"
   id="stop2518" />
			<stop
   offset="0.7615"
   style="stop-color:#008BD8"
   id="stop2520" />
			<stop
   offset="1"
   style="stop-color:#0088D8"
   id="stop2522" />
		</linearGradient>
		<path
   class="st41"
   d="m 1725.6,866 c -18.4,-26 -32.1,-54 -41.2,-84.2 -59.1,-13.3 -119.3,-25.3 -180.3,-34.7 3.8,31.1 10.5,61 20.2,89.8 62.3,7 124.8,16.9 188.6,27.1 4.2,0.7 8.5,1.4 12.7,2 z"
   id="path2525" />
		
			<linearGradient
   id="SVGID_23_"
   gradientUnits="userSpaceOnUse"
   x1="184.26939"
   y1="1751.6227"
   x2="6519.3408"
   y2="-564.7287"
   gradientTransform="matrix(1.0031,-0.02023448,0.02031466,0.9998,-25.0958,33.5604)">
			<stop
   offset="0"
   style="stop-color:#02FFE2"
   id="stop2527" />
			<stop
   offset="9.333432e-03"
   style="stop-color:#02FCE2"
   id="stop2529" />
			<stop
   offset="0.1404"
   style="stop-color:#01D9DF"
   id="stop2531" />
			<stop
   offset="0.2791"
   style="stop-color:#01BBDC"
   id="stop2533" />
			<stop
   offset="0.4257"
   style="stop-color:#00A5DA"
   id="stop2535" />
			<stop
   offset="0.5837"
   style="stop-color:#0094D9"
   id="stop2537" />
			<stop
   offset="0.7615"
   style="stop-color:#008BD8"
   id="stop2539" />
			<stop
   offset="1"
   style="stop-color:#0088D8"
   id="stop2541" />
		</linearGradient>
		<path
   class="st42"
   d="m 2536.8,954.2 c -14.5,-6.9 -28.1,-15.1 -41.1,-24.7 -60.6,-3.5 -121,-11.1 -181.1,-20.2 -18,-2.8 -36,-5.8 -54,-8.8 1.3,2.6 2.7,5.1 4.1,7.7 6.7,12.3 14,24.1 21.8,35.4 7.9,0.8 15.7,1.6 23.6,2.3 75.2,6.6 151,11.1 226.7,8.3 z"
   id="path2544" />
		
			<linearGradient
   id="SVGID_24_"
   gradientUnits="userSpaceOnUse"
   x1="235.84351"
   y1="1741.3744"
   x2="6457.1753"
   y2="-533.38928"
   gradientTransform="matrix(1.0031,-0.02023448,0.02031466,0.9998,-25.0958,33.5604)">
			<stop
   offset="0"
   style="stop-color:#02FFE2"
   id="stop2546" />
			<stop
   offset="0.2216"
   style="stop-color:#01DEDF"
   id="stop2548" />
			<stop
   offset="0.5739"
   style="stop-color:#01B0DB"
   id="stop2550" />
			<stop
   offset="0.8449"
   style="stop-color:#0093D9"
   id="stop2552" />
			<stop
   offset="1"
   style="stop-color:#0088D8"
   id="stop2554" />
		</linearGradient>
		<path
   class="st43"
   d="m 2675.3,878.3 c 38.4,-5.5 76.7,-13.2 114.6,-23.7 38.4,-11.1 74.2,-22.7 113.5,-43.9 0.9,-0.5 1.8,-1 2.7,-1.6 16.8,-11 21.4,-33.5 10.3,-50.2 -11,-16.7 -33.6,-21.4 -50.4,-10.3 l -1.5,1 c -25.8,16.9 -60.9,32.6 -94.1,44.9 -33.9,12.5 -69.1,22.7 -104.9,30.8 -71.5,16.2 -145.9,25 -219.9,26.6 -6.7,0.1 -13.5,0.1 -20.2,0 7.8,12.4 16.5,24.4 26.3,35.8 74.5,3.8 149,1.1 223.6,-9.4 z"
   id="path2557" />
		
			<linearGradient
   id="SVGID_25_"
   gradientUnits="userSpaceOnUse"
   x1="166.4413"
   y1="1551.564"
   x2="6387.7734"
   y2="-723.19983"
   gradientTransform="matrix(1.0031,-0.02023448,0.02031466,0.9998,-25.0958,33.5604)">
			<stop
   offset="0"
   style="stop-color:#02FFE2"
   id="stop2559" />
			<stop
   offset="0.2216"
   style="stop-color:#01DEDF"
   id="stop2561" />
			<stop
   offset="0.5739"
   style="stop-color:#01B0DB"
   id="stop2563" />
			<stop
   offset="0.8449"
   style="stop-color:#0093D9"
   id="stop2565" />
			<stop
   offset="1"
   style="stop-color:#0088D8"
   id="stop2567" />
		</linearGradient>
		<path
   class="st44"
   d="m 2221.9,836.1 c -74.6,-10.1 -148.8,-23.5 -222.4,-40.5 72,22.7 145.2,41.9 219.3,58 7.5,1.6 15,3.2 22.5,4.7 -2.7,-6.8 -5.2,-13.7 -7.6,-20.7 -3.9,-0.4 -7.9,-0.9 -11.8,-1.5 z"
   id="path2570" />
		
			<linearGradient
   id="SVGID_26_"
   gradientUnits="userSpaceOnUse"
   x1="205.4313"
   y1="1658.1991"
   x2="6426.7632"
   y2="-616.56458"
   gradientTransform="matrix(1.0031,-0.02023448,0.02031466,0.9998,-25.0958,33.5604)">
			<stop
   offset="0"
   style="stop-color:#02FFE2"
   id="stop2572" />
			<stop
   offset="0.2216"
   style="stop-color:#01DEDF"
   id="stop2574" />
			<stop
   offset="0.5739"
   style="stop-color:#01B0DB"
   id="stop2576" />
			<stop
   offset="0.8449"
   style="stop-color:#0093D9"
   id="stop2578" />
			<stop
   offset="1"
   style="stop-color:#0088D8"
   id="stop2580" />
		</linearGradient>
		<path
   class="st45"
   d="m 2451.7,887.7 c -9.8,-11.5 -18.5,-23.4 -26.3,-35.8 -63.7,-0.4 -127.8,-6 -191.6,-14.2 2.4,7 4.9,13.8 7.6,20.7 66.8,13.6 134.4,24.4 203.3,29 2.3,0.1 4.6,0.2 7,0.3 z"
   id="path2583" />
	</g>
</g>
<g
   id="g2289"
   transform="matrix(0.03264091,0,0,0.03264091,-19.544115,-12.631182)"><path
     class="st28"
     d="m 1553,480.5 c 0,-26.1 20.9,-47 48.5,-47 27.6,0 48.5,20.1 48.5,45.5 0,26.8 -20.1,47.7 -48.5,47.7 -27.6,0 -48.5,-20.1 -48.5,-46.2 z m 12.7,122.3 h 71.6 V 998 h -71.6 z"
     id="path2281" /><path
     class="st28"
     d="m 2145.8,800.4 c 0,120.8 -84.3,202.1 -199.8,202.1 -58.2,0 -108.9,-22.4 -140.9,-67.1 V 998 h -68.6 V 444.7 h 71.6 v 217.7 c 32.8,-42.5 82,-63.4 137.9,-63.4 115.6,0.1 199.8,80.6 199.8,201.4 z m -72.3,0 c 0,-84.3 -57.4,-138.7 -133.5,-138.7 -75.3,0 -132.7,54.4 -132.7,138.7 0,84.3 57.4,139.4 132.7,139.4 76.1,0 133.5,-55.2 133.5,-139.4 z"
     id="path2283" /><path
     class="st28"
     d="m 2171.2,800.4 c 0,-117.8 87.2,-201.3 208.8,-201.3 70.8,0 129.7,29.1 161.1,84.3 l -54.4,35 c -25.4,-38.8 -64.1,-56.7 -107.4,-56.7 -77.5,0 -135.7,54.4 -135.7,138.7 0,85.7 58.2,139.4 135.7,139.4 43.2,0 82,-17.9 107.4,-56.7 l 54.4,34.3 c -31.3,55.2 -90.2,85 -161.1,85 -121.6,0.1 -208.8,-84.2 -208.8,-202 z"
     id="path2285" /><path
     class="st28"
     d="m 2553.7,800.4 c 0,-117.8 87.2,-201.3 208.8,-201.3 70.8,0 129.7,29.1 161.1,84.3 l -54.4,35 c -25.4,-38.8 -64.1,-56.7 -107.4,-56.7 -77.5,0 -135.7,54.4 -135.7,138.7 0,85.7 58.2,139.4 135.7,139.4 43.2,0 82,-17.9 107.4,-56.7 l 54.4,34.3 c -31.3,55.2 -90.2,85 -161.1,85 -121.6,0.1 -208.8,-84.2 -208.8,-202 z"
     id="path2287" /></g></svg>
