<?xml version="1.0" encoding="UTF-8" standalone="no"?>
<!-- Created with Inkscape (http://www.inkscape.org/) -->

<svg
   xmlns:dc="http://purl.org/dc/elements/1.1/"
   xmlns:cc="http://creativecommons.org/ns#"
   xmlns:rdf="http://www.w3.org/1999/02/22-rdf-syntax-ns#"
   xmlns:svg="http://www.w3.org/2000/svg"
   xmlns="http://www.w3.org/2000/svg"
   xmlns:sodipodi="http://sodipodi.sourceforge.net/DTD/sodipodi-0.dtd"
   xmlns:inkscape="http://www.inkscape.org/namespaces/inkscape"
   width="40px"
   height="40px"
   viewBox="0 0 90 85"
   version="1.1"
   id="SVGRoot"
   inkscape:export-filename="C:\Users\Rizvan\bitmap2.png"
   inkscape:export-xdpi="106.66666"
   inkscape:export-ydpi="106.66666"
   inkscape:version="0.92.4 (5da689c313, 2019-01-14)"
   sodipodi:docname="drawing.svg">
  <defs
     id="defs3824" />
  <sodipodi:namedview
     id="base"
     pagecolor="#ffffff"
     bordercolor="#666666"
     borderopacity="1.0"
     inkscape:pageopacity="0.0"
     inkscape:pageshadow="2"
     inkscape:zoom="5.6888889"
     inkscape:cx="16.435547"
     inkscape:cy="42.5"
     inkscape:document-units="px"
     inkscape:current-layer="layer1"
     showgrid="false"
     inkscape:window-width="2560"
     inkscape:window-height="1387"
     inkscape:window-x="-8"
     inkscape:window-y="-8"
     inkscape:window-maximized="1" />
  <metadata
     id="metadata3827">
    <rdf:RDF>
      <cc:Work
         rdf:about="">
        <dc:format>image/svg+xml</dc:format>
        <dc:type
           rdf:resource="http://purl.org/dc/dcmitype/StillImage" />
        <dc:title></dc:title>
      </cc:Work>
    </rdf:RDF>
  </metadata>
  <g
     inkscape:label="Layer 1"
     inkscape:groupmode="layer"
     id="layer1">
    <g
       id="SvgjsG3289"
       featurekey="symbol1"
       transform="matrix(0.85295359,0,0,0.85295359,2.176539,-0.3625232)"
       style="fill:#4c84fc;fill-opacity:1">
      <path
         d="m 98.3,39.1 v 31.5 c 0,5 -3.6,9.2 -8.3,10.2 v 9.3 c 0,2.2 -1.8,3.9 -3.9,3.9 -1,0 -2,-0.4 -2.8,-1.1 L 71.5,81.1 H 35.8 c -5.6,0 -10.1,-4.4 -10.4,-9.8 l 6,-6 h 1.2 v 5.4 c 0,1.7 1.4,3.2 3.2,3.2 h 38.7 l 8.2,8.2 v -8.2 h 5.2 c 1.7,0 3.2,-1.4 3.2,-3.2 V 39.1 c 0,-1.7 -1.4,-3.2 -3.2,-3.2 h -6.3 v -7.3 h 6.3 c 5.7,0.1 10.4,4.8 10.4,10.5 z M 1.7,47.9 V 16.4 C 1.7,10.6 6.4,6 12.1,6 h 52 c 5.8,0 10.4,4.7 10.4,10.4 v 31.5 c 0,5.8 -4.7,10.4 -10.4,10.4 H 28.5 L 16.7,70.2 C 16,70.9 15,71.3 14,71.3 c -1,0 -1.9,-0.4 -2.7,-1.1 -0.8,-0.7 -1.2,-1.8 -1.2,-2.9 V 58 C 5.3,57.1 1.7,52.9 1.7,47.9 Z m 52.3,0 h 7.4 V 40.7 H 54 Z m -13,0 h 7.4 V 25.2 H 41 Z m -13,0 h 7.4 V 32.3 H 28 Z m -13,0 h 7.4 V 16.7 H 15 Z"
         id="path26"
         inkscape:connector-curvature="0"
         style="fill:#4c84fc;fill-opacity:1" />
    </g>
  </g>
</svg>
