<?xml version="1.0" encoding="UTF-8" standalone="no"?>
<svg
   xmlns:dc="http://purl.org/dc/elements/1.1/"
   xmlns:cc="http://creativecommons.org/ns#"
   xmlns:rdf="http://www.w3.org/1999/02/22-rdf-syntax-ns#"
   xmlns:svg="http://www.w3.org/2000/svg"
   xmlns="http://www.w3.org/2000/svg"
   id="SVGRoot"
   version="1.1"
   viewBox="0 0 550 115"
   height="22px"
   width="105px">
  <defs
     id="defs4712" />
  <metadata
     id="metadata4715">
    <rdf:RDF>
      <cc:Work
         rdf:about="">
        <dc:format>image/svg+xml</dc:format>
        <dc:type
           rdf:resource="http://purl.org/dc/dcmitype/StillImage" />
        <dc:title></dc:title>
      </cc:Work>
    </rdf:RDF>
  </metadata>
  <g
     id="layer1">
    <path
       id="path29"
       d="m 70.333994,70.08661 19.42517,36.84086 c 0.81869,1.56294 0.0744,2.60491 -1.63737,2.60491 h -12.42914 c -1.19081,0 -2.0095,-0.52099 -2.6049,-1.7118 L 54.630114,72.09611 h -2.0095 -22.40222 v 35.20349 c 0,1.33966 -0.89311,2.23278 -2.23278,2.23278 h -12.20585 c -1.33967,0 -2.23278,-0.89312 -2.23278,-2.23278 V 7.5688027 c 0,-1.339667 0.89311,-2.232778 2.23278,-2.232778 h 36.84085 c 28.9517,0 38.92477,11.6848763 38.92477,33.3428313 0,16.522563 -5.73079,27.239904 -21.21139,31.407754 z m -40.1156,-49.790967 v 36.840851 h 23.59303 c 13.24782,0 21.65796,-3.423594 21.65796,-18.457638 0,-14.959619 -8.41014,-18.383213 -21.65796,-18.383213 z M 140.66652,5.3360247 c 35.94774,0 54.55423,22.8487703 54.55423,52.0981733 0,29.249412 -18.60649,52.098182 -54.55423,52.098182 h -26.79335 c -1.33966,0 -2.23278,-0.89312 -2.23278,-2.23278 V 7.5688027 c 0,-1.339667 0.89312,-2.232778 2.23278,-2.232778 z m 0,89.2367353 c 25.15597,0 37.65954,-13.91766 37.65954,-37.138562 0,-23.2209 -12.50357,-37.138555 -37.65954,-37.138555 H 128.31181 V 94.57276 Z M 319.73539,5.3360247 c 1.33967,0 2.23278,0.893111 2.23278,2.232778 V 107.2996 c 0,1.33966 -0.89311,2.23278 -2.23278,2.23278 h -12.20585 c -1.33967,0 -2.23278,-0.89312 -2.23278,-2.23278 V 38.678856 l -28.57958,69.141724 c -0.44656,1.19081 -1.4141,1.7118 -2.60491,1.7118 h -11.4616 c -1.19081,0 -2.15835,-0.52099 -2.60491,-1.7118 L 231.61505,38.902133 V 107.2996 c 0,1.33966 -0.89312,2.23278 -2.23278,2.23278 h -12.20586 c -1.33967,0 -2.23278,-0.89312 -2.23278,-2.23278 V 7.5688027 c 0,-1.339667 0.89311,-2.232778 2.23278,-2.232778 h 14.58749 c 1.19081,0 2.23278,0.446555 2.67933,1.488519 L 268.4559,90.55376 302.31972,6.8245437 c 0.44655,-1.041964 1.48852,-1.488519 2.67933,-1.488519 z m 108.14093,0 c 1.33966,0 2.23278,0.893111 2.23278,2.232778 V 67.33285 c 0,29.91924 -16.67142,44.35788 -42.72051,44.35788 -25.97466,0 -42.7205,-14.43864 -42.7205,-44.35788 V 7.5688027 c 0,-1.339667 0.89311,-2.232778 2.23278,-2.232778 h 12.20586 c 1.33967,0 2.23278,0.893111 2.23278,2.232778 V 67.33285 c 0,18.97863 10.19635,28.50515 26.04908,28.50515 15.92716,0 25.97466,-9.52652 25.97466,-28.50515 V 7.5688027 c 0,-1.339667 0.89312,-2.232778 2.23278,-2.232778 z m 103.30322,80.3056153 7.66591,8.11243 c 0.9675,1.04196 0.9675,2.15835 -0.074,3.12589 -9.45213,9.1544 -21.58356,14.58749 -35.87334,14.58749 -29.69595,0 -53.0657,-23.74188 -53.0657,-53.586696 0,-29.993663 23.36975,-53.7355453 53.0657,-53.7355453 14.28978,0 26.42121,5.5819465 35.87334,14.5874893 1.0419,0.967537 1.0419,2.083927 0.074,3.12589 l -7.66591,8.11243 c -0.96754,1.041963 -2.08392,0.967538 -3.12589,0.07443 -6.92161,-5.954077 -14.95962,-9.600949 -25.2304,-9.600949 -19.94615,0 -35.8733,16.001582 -35.8733,37.436259 0,21.211402 15.92715,37.287402 35.8733,37.287402 10.27078,0 18.30879,-3.64687 25.2304,-9.60094 1.04197,-0.89312 2.15835,-0.96754 3.12589,0.0744 z"
       style="fill:#ffffff;fill-opacity:1;stroke-width:7.44259644" />
  </g>
</svg>
