<?xml version="1.0" encoding="UTF-8" standalone="no"?>
<svg
   xmlns:dc="http://purl.org/dc/elements/1.1/"
   xmlns:cc="http://creativecommons.org/ns#"
   xmlns:rdf="http://www.w3.org/1999/02/22-rdf-syntax-ns#"
   xmlns:svg="http://www.w3.org/2000/svg"
   xmlns="http://www.w3.org/2000/svg"
   id="SVGRoot"
   version="1.1"
   viewBox="0 0 800 200"
   height="75px"
   width="300px">
  <defs
     id="defs3790" />
  <metadata
     id="metadata3793">
    <rdf:RDF>
      <cc:Work
         rdf:about="">
        <dc:format>image/svg+xml</dc:format>
        <dc:type
           rdf:resource="http://purl.org/dc/dcmitype/StillImage" />
        <dc:title></dc:title>
      </cc:Work>
    </rdf:RDF>
  </metadata>
  <g
     id="layer1">
    <g
       transform="matrix(1.9077594,0,0,1.9077594,15.27741,4.61203)"
       featurekey="symbol1"
       id="SvgjsG3289"
       style="fill:#000000">
      <path
         style="fill:#4c84fc;fill-opacity:0.94117647"
         id="path26"
         d="m 98.3,39.1 v 31.5 c 0,5 -3.6,9.2 -8.3,10.2 v 9.3 c 0,2.2 -1.8,3.9 -3.9,3.9 -1,0 -2,-0.4 -2.8,-1.1 L 71.5,81.1 H 35.8 c -5.6,0 -10.1,-4.4 -10.4,-9.8 l 6,-6 h 1.2 v 5.4 c 0,1.7 1.4,3.2 3.2,3.2 h 38.7 l 8.2,8.2 v -8.2 h 5.2 c 1.7,0 3.2,-1.4 3.2,-3.2 V 39.1 c 0,-1.7 -1.4,-3.2 -3.2,-3.2 h -6.3 v -7.3 h 6.3 c 5.7,0.1 10.4,4.8 10.4,10.5 z M 1.7,47.9 V 16.4 C 1.7,10.6 6.4,6 12.1,6 h 52 c 5.8,0 10.4,4.7 10.4,10.4 v 31.5 c 0,5.8 -4.7,10.4 -10.4,10.4 H 28.5 L 16.7,70.2 C 16,70.9 15,71.3 14,71.3 c -1,0 -1.9,-0.4 -2.7,-1.1 -0.8,-0.7 -1.2,-1.8 -1.2,-2.9 V 58 C 5.3,57.1 1.7,52.9 1.7,47.9 Z m 52.3,0 h 7.4 V 40.7 H 54 Z m -13,0 h 7.4 V 25.2 H 41 Z m -13,0 h 7.4 V 32.3 H 28 Z m -13,0 h 7.4 V 16.7 H 15 Z" />
    </g>
    <path
       id="path29"
       d="m 312.25134,110.95976 19.42517,36.84086 c 0.81869,1.56294 0.0744,2.60491 -1.63737,2.60491 H 317.61 c -1.19081,0 -2.0095,-0.52099 -2.6049,-1.7118 l -18.45764,-35.72447 h -2.0095 -22.40222 v 35.20349 c 0,1.33966 -0.89311,2.23278 -2.23278,2.23278 h -12.20585 c -1.33967,0 -2.23278,-0.89312 -2.23278,-2.23278 V 48.441953 c 0,-1.339667 0.89311,-2.232778 2.23278,-2.232778 h 36.84085 c 28.9517,0 38.92477,11.684876 38.92477,33.342831 0,16.522563 -5.73079,27.239904 -21.21139,31.407754 z m -40.1156,-49.790967 v 36.840851 h 23.59303 c 13.24782,0 21.65796,-3.423594 21.65796,-18.457638 0,-14.959619 -8.41014,-18.383213 -21.65796,-18.383213 z M 382.58387,46.209175 c 35.94774,0 54.55423,22.84877 54.55423,52.098173 0,29.249412 -18.60649,52.098182 -54.55423,52.098182 h -26.79335 c -1.33966,0 -2.23278,-0.89312 -2.23278,-2.23278 V 48.441953 c 0,-1.339667 0.89312,-2.232778 2.23278,-2.232778 z m 0,89.236735 c 25.15597,0 37.65954,-13.91766 37.65954,-37.138562 0,-23.2209 -12.50357,-37.138555 -37.65954,-37.138555 H 370.22916 V 135.44591 Z M 561.65273,46.209175 c 1.33967,0 2.23278,0.893111 2.23278,2.232778 v 99.730797 c 0,1.33966 -0.89311,2.23278 -2.23278,2.23278 h -12.20585 c -1.33967,0 -2.23278,-0.89312 -2.23278,-2.23278 V 79.552006 l -28.57957,69.141724 c -0.44656,1.19081 -1.4141,1.7118 -2.60491,1.7118 h -11.4616 c -1.19081,0 -2.15835,-0.52099 -2.60491,-1.7118 L 473.5324,79.775283 v 68.397467 c 0,1.33966 -0.89312,2.23278 -2.23278,2.23278 h -12.20586 c -1.33967,0 -2.23278,-0.89312 -2.23278,-2.23278 V 48.441953 c 0,-1.339667 0.89311,-2.232778 2.23278,-2.232778 h 14.58749 c 1.19081,0 2.23278,0.446555 2.67933,1.488519 l 34.01267,83.729216 33.86381,-83.729216 c 0.44655,-1.041964 1.48852,-1.488519 2.67933,-1.488519 z m 108.14093,0 c 1.33966,0 2.23278,0.893111 2.23278,2.232778 V 108.206 c 0,29.91924 -16.67142,44.35788 -42.72051,44.35788 -25.97466,0 -42.7205,-14.43864 -42.7205,-44.35788 V 48.441953 c 0,-1.339667 0.89311,-2.232778 2.23278,-2.232778 h 12.20586 c 1.33967,0 2.23278,0.893111 2.23278,2.232778 V 108.206 c 0,18.97863 10.19635,28.50515 26.04908,28.50515 15.92716,0 25.97466,-9.52652 25.97466,-28.50515 V 48.441953 c 0,-1.339667 0.89312,-2.232778 2.23278,-2.232778 z m 103.30323,80.305615 7.66591,8.11243 c 0.9675,1.04196 0.9675,2.15835 -0.074,3.12589 -9.45213,9.1544 -21.58356,14.58749 -35.87334,14.58749 -29.69596,0 -53.06571,-23.74188 -53.06571,-53.586696 0,-29.993663 23.36975,-53.735545 53.06571,-53.735545 14.28978,0 26.42121,5.581947 35.87334,14.587489 1.0419,0.967537 1.0419,2.083927 0.074,3.12589 l -7.66591,8.11243 c -0.96754,1.041963 -2.08392,0.967538 -3.12589,0.07443 -6.92161,-5.954077 -14.95962,-9.600949 -25.2304,-9.600949 -19.94616,0 -35.87331,16.001582 -35.87331,37.436259 0,21.211402 15.92715,37.287402 35.87331,37.287402 10.27078,0 18.30879,-3.64687 25.2304,-9.60094 1.04197,-0.89312 2.15835,-0.96754 3.12589,0.0744 z"
       style="fill:#3f4853;stroke-width:7.44259644;fill-opacity:1" />
  </g>
</svg>
