<svg xmlns="http://www.w3.org/2000/svg" xmlns:xlink="http://www.w3.org/1999/xlink" viewBox="0 0 505.8 304.28"><defs><style>.cls-1{fill:url(#radial-gradient);}.cls-2{mask:url(#mask);}.cls-3{fill:url(#radial-gradient-2);}.cls-4{fill:url(#radial-gradient-3);}.cls-5{mask:url(#mask-2);}.cls-6{fill:url(#radial-gradient-4);}.cls-7{fill:#231f20;}.cls-8{fill:#1e6ea6;}.cls-9{fill:#fff;}.cls-10{fill:#162b75;}.cls-11{fill:url(#radial-gradient-5);}.cls-12{fill:none;}.cls-13{mask:url(#mask-3);}</style><radialGradient id="radial-gradient" cx="646.17" cy="2546.37" r="49.4" gradientTransform="matrix(0.68, -0.73, 0.55, 0.51, -1476.65, -806.04)" gradientUnits="userSpaceOnUse"><stop offset="0" stop-color="#fff"/><stop offset="0.17" stop-color="#c6c6c6"/><stop offset="0.4" stop-color="gray"/><stop offset="0.6" stop-color="#494949"/><stop offset="0.78" stop-color="#212121"/><stop offset="0.92" stop-color="#090909"/><stop offset="1"/></radialGradient><mask id="mask" x="322.58" y="1.34" width="124.95" height="124.84" maskUnits="userSpaceOnUse"><path class="cls-1" d="M342.58,109.56a62.34,62.34,0,1,1,88.1-3.35A62.3,62.3,0,0,1,342.58,109.56Z"/></mask><radialGradient id="radial-gradient-2" cx="627.13" cy="-53.76" r="62.34" gradientTransform="matrix(0.68, -0.73, 0.73, 0.68, -1.59, 560.29)" gradientUnits="userSpaceOnUse"><stop offset="0.75" stop-color="#010101"/><stop offset="0.78" stop-color="#393939"/><stop offset="0.81" stop-color="#7f7f7f"/><stop offset="0.84" stop-color="#b6b6b6"/><stop offset="0.87" stop-color="#dedede"/><stop offset="0.89" stop-color="#f6f6f6"/><stop offset="0.9" stop-color="#fff"/><stop offset="0.91" stop-color="#f6f6f6"/><stop offset="0.92" stop-color="#dedede"/><stop offset="0.94" stop-color="#b6b6b6"/><stop offset="0.96" stop-color="#7f7f7f"/><stop offset="0.98" stop-color="#393939"/><stop offset="1" stop-color="#010101"/></radialGradient><radialGradient id="radial-gradient-3" cx="503.64" cy="3071.03" r="49.4" gradientTransform="matrix(-0.45, 0.89, -0.67, -0.34, 2700.13, 693.2)" xlink:href="#radial-gradient"/><mask id="mask-2" x="322.77" y="1.12" width="124.92" height="124.93" maskUnits="userSpaceOnUse"><path class="cls-4" d="M413.49,7.87A62.35,62.35,0,1,1,329.7,35.29,62.29,62.29,0,0,1,413.49,7.87Z"/></mask><radialGradient id="radial-gradient-4" cx="485.16" cy="339.06" r="62.35" gradientTransform="matrix(-0.45, 0.89, -0.89, -0.45, 906.88, -215.82)" xlink:href="#radial-gradient-2"/><radialGradient id="radial-gradient-5" cx="385.1" cy="63.84" fx="425.4991861719975" r="63.35" gradientUnits="userSpaceOnUse"><stop offset="0.27" stop-color="#fff"/><stop offset="0.39" stop-color="#fbfbfc"/><stop offset="0.51" stop-color="#efeff5"/><stop offset="0.64" stop-color="#dadae9"/><stop offset="0.66" stop-color="#d6d6e6"/><stop offset="0.7" stop-color="#cfd0e2"/><stop offset="0.75" stop-color="#bdbed5"/><stop offset="0.82" stop-color="#9fa2c1"/><stop offset="0.89" stop-color="#747aa5"/><stop offset="0.97" stop-color="#3f4881"/><stop offset="1" stop-color="#283272"/></radialGradient><mask id="mask-3" x="321.61" y="0" width="127.04" height="127.03" maskUnits="userSpaceOnUse"><g class="cls-2"><path class="cls-3" d="M342.8,109.42a62.34,62.34,0,1,1,88.09-3.35A62.27,62.27,0,0,1,342.8,109.42Z"/></g><g class="cls-5"><path class="cls-6" d="M413.33,8.07a62.34,62.34,0,1,1-83.8,27.41A62.29,62.29,0,0,1,413.33,8.07Z"/></g></mask></defs><title>Asset 1</title><g id="Layer_2" data-name="Layer 2"><g id="Layer_1-2" data-name="Layer 1"><path class="cls-7" d="M26,295.6l-3.43-8.94H6.37L3,295.6H0l13-32.67h3.41L29.2,295.6Zm-11.5-30L7.41,283.87H21.46Z"/><path class="cls-7" d="M72.07,295.6V280.86c0-3.06-1.9-5.89-5-6.2-4.46-.47-7.48,3.69-7.48,7.87V295.6H56.88V281c0-3.11-1.56-5.85-5-6.21-4.77-.52-7.36,3.65-7.36,7.76V295.6H42V276.9L41.74,273h2.72l.16,3.35.74-1c2-2.71,4.79-3.44,8-3.09,3.57.52,4.74,3,5.56,4.76a8.84,8.84,0,0,1,10-4.59c3.94.91,5.82,4.16,5.82,8.16v15Z"/><path class="cls-7" d="M82.41,284.81c0,5.53,3.26,8.94,7.32,8.94a6.66,6.66,0,0,0,6.87-5.49h2.89a9.42,9.42,0,0,1-9.71,8c-6.43,0-10.41-5.16-10.41-12.64,0-5.94,3.7-11.4,10.53-11.4,7.2,0,9.78,5.75,9.78,12.61Zm7.41-10.15a7.47,7.47,0,0,0-7.27,7.62H96.74c-.14-4.24-3-7.62-6.92-7.62"/><path class="cls-7" d="M134,295.6V280.86c0-3.06-1.91-5.89-5-6.2-4.48-.47-7.48,3.69-7.48,7.87V295.6h-2.68V281c0-3.11-1.55-5.85-5-6.21-4.78-.52-7.36,3.65-7.36,7.76V295.6h-2.6V276.9l-.19-3.88h2.71l.16,3.35.75-1c2-2.71,4.78-3.44,8-3.09,3.57.52,4.73,3,5.56,4.76a8.82,8.82,0,0,1,10-4.59c3.95.91,5.82,4.16,5.82,8.16v15Z"/><path class="cls-7" d="M152.37,296.24a9.16,9.16,0,0,1-8.1-4l-.12,3.38h-2.84l.37-5.05V262.93h2.71v13.24l1.2-1.25a8.78,8.78,0,0,1,8.1-2.53c5.19.92,7.36,5.82,7.55,11,.3,6-2.32,12.71-8.87,12.81m-.74-21.47c-4.64-.21-7.45,4.24-7.36,9.49,0,4.86,2,9.49,7.59,9.59,5.08,0,6.28-5.11,6.51-9.56.34-5-2.29-9.37-6.74-9.52"/><path class="cls-7" d="M168.74,284.81c0,5.53,3.25,8.94,7.31,8.94a6.65,6.65,0,0,0,6.87-5.49h2.89a9.43,9.43,0,0,1-9.72,8c-6.41,0-10.4-5.16-10.4-12.64,0-5.94,3.7-11.4,10.53-11.4,7.21,0,9.79,5.75,9.79,12.61Zm7.4-10.15a7.47,7.47,0,0,0-7.27,7.62h14.18c-.13-4.24-3-7.62-6.91-7.62"/><path class="cls-7" d="M198.76,274.82c-3.44.9-4.8,4.43-4.8,8.05v12.75H191.4V276.76l-.16-3.74H194l.11,3.15a6.34,6.34,0,0,1,3.33-3.57,12.89,12.89,0,0,1,4.58-.48v2.7a8.3,8.3,0,0,0-3.22,0"/><path class="cls-7" d="M225,296.35c-7,0-10.57-5.91-10.57-12.2,0-6.11,4.21-11.88,10.65-11.88s10.41,5.68,10.41,11.78c0,6.5-3.77,12.3-10.49,12.3m0-21.58c-4.6,0-7.73,4.79-7.73,9.38,0,4.85,2.76,9.7,7.61,9.7s7.64-5,7.64-9.8c0-4.59-3-9.28-7.52-9.28"/><path class="cls-7" d="M248.4,265.45a3.08,3.08,0,0,0-1.24,2.72V273h5.14v2.49h-5.21V295.6h-2.68V275.36h-4.47v-2.52h4.52V268c0-2.18.65-4.35,2.7-5.13a8,8,0,0,1,4.45-.21l.87.21v2.22c-.87.14-2.88-.35-4.08.35"/><path class="cls-7" d="M280.11,296.24c-8.75.26-14.27-5.12-14.27-12.76V263.19h7v20.29c0,4.48,2.09,7.81,7,7.65,5.28,0,6.79-3.22,6.79-7.39V263.19h7.08v20.55c0,7.13-4.57,12.35-13.61,12.5"/><polygon class="cls-7" points="298.12 295.6 298.12 263.19 319.67 263.19 319.67 268.62 305.15 268.62 305.15 276.13 318.89 276.13 318.89 281.59 305.15 281.59 305.15 290.16 320.21 290.16 320.21 295.6 298.12 295.6"/><polygon class="cls-7" points="354.5 295.6 354.5 268.36 345.5 295.6 339.69 295.6 331.31 268.2 331.31 295.6 324.69 295.6 324.69 263.19 336.16 263.19 342.76 286.66 350.05 263.19 361.22 263.19 361.22 295.6 354.5 295.6"/><path class="cls-7" d="M397.74,273c.1-3.92-3.1-5.24-6.24-5.27-7.46-.14-9.16,6.15-9.23,12,0,5,1.77,10.27,6.7,11.22,3.08.66,8.54-.45,8.54-.45v-6.6h-6.32v-5.63h13.29v16.41s-8.35,2.06-15.47,1.55c-10.12-.69-14.19-8.1-14.27-16.5,0-9.46,5.21-17.08,16.36-17.25,9.75-.11,14.07,4.24,13.83,10.53Z"/><path class="cls-7" d="M418.13,280.13c-1.2,1.32-1.25,4.13-1.25,4.68V295.6h-6.62V276.39l-.28-3.22h6.37l0,4a6.94,6.94,0,0,1,2.53-3.14,8.12,8.12,0,0,1,4.35-1.05H424v6s-4.39-.42-5.86,1.22"/><path class="cls-7" d="M439.19,296.38c-7.5,0-11.94-5.63-11.78-12.23.14-6.35,4.48-11.62,11.66-11.71,7.79,0,11.95,5.72,11.79,12.27s-3.71,11.67-11.67,11.67m.24-19.24c-3.95,0-4.75,3.67-4.89,7-.22,3.5.85,7.85,4.73,7.7,4.11,0,4.65-3.89,4.65-7.28s-.54-7.43-4.49-7.43"/><path class="cls-7" d="M469.91,295.6V293l-.55.42a8.6,8.6,0,0,1-6,2.8c-4.73.18-8.11-4-8.11-8.48V273.17h6.67v11.92c0,3.08.2,6.82,3.88,6.76s4.15-3.57,4.15-6.62V273.17h6.71V293l.24,2.58Z"/><path class="cls-7" d="M495.45,296.54c-2.19-.16-3.83-.66-5.2-2.43l-.9-1.19v11.36h-6.77v-27l-.25-4.07h7v3l.43-.52a7.55,7.55,0,0,1,6.74-2.86c5.68.31,9.33,6,9.33,11.78,0,6.18-3.65,12.45-10.35,12m-1.29-19.3c-3.37,0-4.78,3.93-4.78,7.29s1.22,7.47,4.64,7.52c4,.09,4.91-4.09,4.87-7.52s-.9-7.29-4.73-7.29"/><rect class="cls-8" x="56.3" y="137.49" width="392.81" height="73.55"/><path class="cls-9" d="M185.32,162.82v6.87h12.11v9.12H185.32v7.1H198.1V195H174.57V153.71H198.1v9.11Z"/><path class="cls-9" d="M204.17,153.71h15.24a20.66,20.66,0,1,1,0,41.31H204.17Zm10.74,32.2h2.41c6.42,0,11.89-3.5,11.89-11.57,0-7.35-4.87-11.52-11.77-11.52h-2.53Z"/><path class="cls-9" d="M286.05,172c-.12,6-.56,11.16-4.23,16.34-4.05,5.63-10.13,8.09-17,8.09-13,0-22-8.82-22-21.81,0-13.42,9.09-22.26,22.42-22.26,8.48,0,15.07,3.83,18.62,11.57l-10.19,4.3c-1.47-4-4.61-6.6-8.93-6.6-7.08,0-10.75,6.75-10.75,13s3.83,12.94,10.9,12.94c4.66,0,8.23-2.41,8.66-7.19h-8.76V172Z"/><path class="cls-9" d="M299.52,162.82v6.87h12.11v9.12H299.52v7.1h12.77V195h-23.5V153.71h23.5v9.11Z"/><path class="cls-9" d="M317.28,153.71H328l19.68,25.23h.1V153.71h10.74V195H347.8l-19.68-25.33H328V195H317.28Z"/><path class="cls-9" d="M381.45,195H370.7v-32.2h-8.87v-9.11h28.49v9.11h-8.87Z"/><path class="cls-9" d="M400.91,187.83,398.05,195h-11.4l15.9-41.31h11.73L429.83,195H418.38l-2.68-7.19Zm7.49-21.34h-.11l-4.42,13.15h8.92Z"/><path class="cls-10" d="M127.76,43.61A1.28,1.28,0,0,1,129,44.88v58.3s-.93,24.16-34.81,23.64H91.11c-33.88.52-34.81-23.64-34.81-23.64V44.88a1.29,1.29,0,0,1,1.28-1.27H76.92a1.28,1.28,0,0,1,1.27,1.27V99.59s.44,8.84,8.38,10.36c0,0,9,1.19,12.21,0,8-1.52,8.37-10.36,8.37-10.36V44.88a1.28,1.28,0,0,1,1.27-1.27Z"/><path class="cls-10" d="M263.84,124.9a1.8,1.8,0,0,0,1.63-1.25L277.89,81c.2-.69.41-.67.48,0l4.27,42.64a1.45,1.45,0,0,0,1.4,1.28h18.22a1.12,1.12,0,0,0,1.13-1.28l-9-78.75A1.48,1.48,0,0,0,293,43.6H273a1.91,1.91,0,0,0-1.67,1.21L254.84,93.88c-.22.67-.41,1.2-.42,1.2a11.94,11.94,0,0,1-.43-1.2L237.48,44.81a1.94,1.94,0,0,0-1.68-1.21h-20a1.49,1.49,0,0,0-1.42,1.27l-9,78.75a1.12,1.12,0,0,0,1.13,1.28h18.21a1.45,1.45,0,0,0,1.41-1.28L230.46,81c.07-.7.29-.72.5,0l12.41,42.7A1.79,1.79,0,0,0,245,124.9Z"/><path class="cls-10" d="M144.29,43.61A1.27,1.27,0,0,0,143,44.88v78.73a1.27,1.27,0,0,0,1.27,1.28h52a1.3,1.3,0,0,0,1.3-1.29V109.36a1.3,1.3,0,0,0-1.3-1.28H164.9V91.91h27.31a1.28,1.28,0,0,0,1.27-1.28V77.87a1.27,1.27,0,0,0-1.27-1.28H164.9V60.42h31.34a1.3,1.3,0,0,0,1.3-1.28V44.88a1.29,1.29,0,0,0-1.3-1.27Z"/><path class="cls-11" d="M448.71,63.62A63.61,63.61,0,1,1,385.1,0,63.6,63.6,0,0,1,448.71,63.62Z"/><path class="cls-10" d="M356.24,21.12c-5.49,11.73-1.53,18,5.33,19.35,6.59,1.32,42.09-3.18,68.49-21.85A63.4,63.4,0,0,0,385.1,0a64.56,64.56,0,0,0-13.93,1.54C366,5.75,359,15.32,356.24,21.12Z"/><path class="cls-10" d="M445.86,44.85c.4,1.3.79,2.67,1.12,4-20.22,17.3-61.73,25.44-63.33,25.88s-3.19.3-3.5-1.07S382.82,72,382.82,72c40.51-9.73,58.65-20.85,63-27Z"/><path class="cls-10" d="M377,57.53s.31,1.22,5.19,0c4.59-1.15,46.4-11.35,58.38-25.12-.56-1-1.14-2-1.75-2.91-5.4,6.57-22.89,16.85-59.6,25.37C379.17,54.87,375.44,55.55,377,57.53Z"/><path class="cls-10" d="M396,105.94c-28.44,5.12-44.46,2.25-60.35-2.31A63.61,63.61,0,0,0,445.26,84.3C434.53,93.29,412.92,102.9,396,105.94Z"/><path class="cls-10" d="M385.79,89.06s-4,.46-3.66,2,3.05,1,4.27.77c7.43-1.28,46.91-10,62.2-24.53.07-1.21.11-2.43.11-3.66C442.8,70.41,422.87,81.39,385.79,89.06Z"/><path class="cls-12" d="M448.71,63.62A63.61,63.61,0,1,1,385.1,0,63.6,63.6,0,0,1,448.71,63.62Z"/><path class="cls-12" d="M448.71,63.62A63.61,63.61,0,1,1,385.1,0,63.6,63.6,0,0,1,448.71,63.62Z"/><g class="cls-13"><path class="cls-9" d="M351.92,117.66a63.51,63.51,0,1,1,87.34-20.94A63.49,63.49,0,0,1,351.92,117.66Z"/></g></g></g></svg>