<svg xmlns="http://www.w3.org/2000/svg" viewBox="0 0 392.81 73.55"><defs><style>.cls-1{fill:#1e6ea5;}.cls-2{fill:#fff;}</style></defs><title>Asset 1</title><g id="Layer_2" data-name="Layer 2"><g id="Layer_1-2" data-name="Layer 1"><rect class="cls-1" width="392.81" height="73.55"/><path class="cls-2" d="M129,25.33v6.88h12.11v9.11H129v7.1h12.77v9.11H118.27V16.22h23.52v9.11Z"/><path class="cls-2" d="M147.86,16.22H163.1a20.66,20.66,0,1,1,0,41.31H147.86Zm10.75,32.2H161c6.42,0,11.89-3.5,11.89-11.57,0-7.35-4.88-11.52-11.78-11.52h-2.52V48.42Z"/><path class="cls-2" d="M229.75,34.47c-.12,6-.55,11.16-4.23,16.33-4.05,5.63-10.13,8.09-17,8.09-13,0-22-8.82-22-21.81,0-13.42,9.09-22.26,22.42-22.26,8.49,0,15.07,3.83,18.62,11.57l-10.18,4.3c-1.47-4-4.61-6.6-8.94-6.6-7.07,0-10.75,6.75-10.75,13s3.83,12.94,10.9,12.94c4.66,0,8.23-2.41,8.66-7.19h-8.76V34.46h21.32Z"/><path class="cls-2" d="M243.22,25.33v6.88h12.11v9.11H243.22v7.1H256v9.11H232.48V16.22H256v9.11Z"/><path class="cls-2" d="M261,16.22h10.74L291.4,41.46h.1V16.22h10.74V57.53H291.5L271.82,32.21h-.11V57.53H261V16.22Z"/><path class="cls-2" d="M325.15,57.53H314.39V25.33h-8.87V16.22H334v9.11h-8.87v32.2Z"/><path class="cls-2" d="M344.61,50.34l-2.86,7.19h-11.4l15.9-41.31H358l15.56,41.31H362.09l-2.68-7.19ZM352.1,29H352l-4.42,13.15h8.92Z"/></g></g></svg>